{"glyphs":{"0":{"ha":935,"x_min":0,"x_max":0,"o":"m 467 -22 b 868 492 714 -22 868 176 b 467 1008 868 810 714 1008 b 67 492 221 1008 67 808 b 467 -22 67 175 221 -22 z m 467 115 b 222 492 310 115 222 249 b 467 871 222 736 310 871 b 713 492 625 871 713 736 b 467 115 713 249 625 115 z "},"1":{"ha":564,"x_min":0,"x_max":0,"o":"m 263 0 l 413 0 l 413 986 l 294 986 b 139 824 294 863 251 824 l 54 824 l 54 703 l 263 703 z "},"2":{"ha":875,"x_min":0,"x_max":0,"o":"m 82 0 l 793 0 l 793 138 l 264 138 b 526 389 269 204 356 297 b 793 718 725 494 793 567 b 460 1008 793 890 669 1008 b 86 685 240 1008 107 883 l 242 675 b 460 871 261 801 333 871 b 638 715 578 871 638 807 b 451 511 638 624 586 582 b 82 0 168 361 82 224 z "},"3":{"ha":868,"x_min":0,"x_max":0,"o":"m 429 -22 b 801 275 651 -22 801 88 b 597 528 801 401 725 493 b 768 739 708 563 768 635 b 432 1008 768 904 643 1008 b 89 750 228 1008 107 904 l 243 742 b 432 871 254 821 313 871 b 613 728 553 871 613 819 b 428 585 613 624 533 585 l 346 585 l 346 454 l 428 454 b 646 281 558 454 646 399 b 429 115 646 161 547 115 b 221 274 313 115 232 161 l 67 265 b 429 -22 75 93 201 -22 z "},"4":{"ha":874,"x_min":0,"x_max":0,"o":"m 536 0 l 686 0 l 686 206 l 807 206 l 807 342 l 686 342 l 686 986 l 518 986 l 39 333 l 39 206 l 536 206 z m 210 342 l 536 778 l 536 342 z "},"5":{"ha":890,"x_min":0,"x_max":0,"o":"m 443 -22 b 808 321 660 -22 808 117 b 476 657 808 515 675 657 b 261 575 389 657 311 628 l 296 849 l 740 849 l 740 986 l 163 986 l 96 425 l 251 425 b 442 529 281 489 353 529 b 653 321 574 529 653 447 b 443 115 653 192 572 115 b 236 269 328 115 250 167 l 82 260 b 443 -22 96 92 224 -22 z "},"6":{"ha":839,"x_min":0,"x_max":0,"o":"m 428 -22 b 786 326 639 -22 786 108 b 457 658 786 526 654 658 b 219 543 347 658 265 608 b 465 872 238 765 325 872 b 633 754 565 872 611 826 l 782 767 b 465 1008 744 913 646 1008 b 67 422 175 1008 67 749 b 428 -22 67 139 194 -22 z m 429 111 b 225 326 304 111 225 200 b 439 532 225 451 315 532 b 633 326 554 532 633 451 b 429 111 633 192 549 111 z "},"7":{"ha":738,"x_min":0,"x_max":0,"o":"m 240 0 l 393 0 b 738 858 393 339 503 592 l 738 986 l 28 986 l 28 849 l 579 849 b 240 0 369 607 240 306 z "},"8":{"ha":867,"x_min":0,"x_max":0,"o":"m 433 -22 b 814 269 660 -22 814 79 b 619 531 814 399 739 489 b 767 738 710 565 767 633 b 433 1008 767 894 639 1008 b 100 738 228 1008 100 894 b 247 531 100 635 157 565 b 53 269 128 490 53 399 b 433 -22 53 79 208 -22 z m 433 586 b 256 731 321 586 256 633 b 433 872 256 817 317 872 b 611 731 550 872 611 817 b 433 586 611 633 546 586 z m 433 115 b 208 285 297 115 208 171 b 433 463 208 392 282 463 b 658 285 585 463 658 392 b 433 115 658 171 569 115 z "},"9":{"ha":842,"x_min":0,"x_max":0,"o":"m 383 -22 b 775 543 669 -22 775 208 b 404 1008 775 831 660 1008 b 53 656 199 1008 53 872 b 381 317 53 453 188 317 b 621 438 485 317 568 358 b 383 114 606 210 526 114 b 218 211 294 114 240 149 l 67 201 b 383 -22 107 67 213 -22 z m 401 446 b 207 657 286 446 207 528 b 407 875 207 786 282 875 b 613 656 535 875 613 783 b 401 446 613 522 526 446 z "},"A":{"ha":957,"x_min":0,"x_max":0,"o":"m 28 0 l 188 0 l 276 257 l 679 257 l 769 0 l 929 0 l 574 986 l 383 986 z m 324 393 l 478 843 l 633 393 z "},"Á":{"ha":957,"x_min":0,"x_max":0,"o":"m 413 1075 l 531 1075 l 656 1261 l 501 1261 z m 28 0 l 188 0 l 276 257 l 679 257 l 769 0 l 929 0 l 574 986 l 383 986 z m 324 393 l 478 843 l 633 393 z "},"Ă":{"ha":957,"x_min":0,"x_max":0,"o":"m 478 1079 b 679 1267 597 1079 674 1150 l 586 1267 b 478 1175 578 1203 539 1175 b 369 1267 417 1175 378 1203 l 276 1267 b 478 1079 282 1150 360 1079 z m 28 0 l 188 0 l 276 257 l 679 257 l 769 0 l 929 0 l 574 986 l 383 986 z m 324 393 l 478 843 l 633 393 z "},"Ǎ":{"ha":957,"x_min":0,"x_max":0,"o":"m 274 1268 l 401 1075 l 556 1075 l 683 1268 l 569 1268 l 478 1144 l 388 1268 z m 28 0 l 188 0 l 276 257 l 679 257 l 769 0 l 929 0 l 574 986 l 383 986 z m 324 393 l 478 843 l 633 393 z "},"Â":{"ha":957,"x_min":0,"x_max":0,"o":"m 274 1075 l 388 1075 l 478 1199 l 569 1075 l 683 1075 l 556 1268 l 401 1268 z m 28 0 l 188 0 l 276 257 l 679 257 l 769 0 l 929 0 l 574 986 l 383 986 z m 324 393 l 478 843 l 633 393 z "},"Ä":{"ha":957,"x_min":0,"x_max":0,"o":"m 274 1092 l 422 1092 l 422 1239 l 274 1239 z m 535 1092 l 682 1092 l 682 1239 l 535 1239 z m 28 0 l 188 0 l 276 257 l 679 257 l 769 0 l 929 0 l 574 986 l 383 986 z m 324 393 l 478 843 l 633 393 z "},"À":{"ha":957,"x_min":0,"x_max":0,"o":"m 428 1075 l 546 1075 l 457 1261 l 303 1261 z m 28 0 l 188 0 l 276 257 l 679 257 l 769 0 l 929 0 l 574 986 l 383 986 z m 324 393 l 478 843 l 633 393 z "},"Ā":{"ha":957,"x_min":0,"x_max":0,"o":"m 285 1107 l 672 1107 l 672 1225 l 285 1225 z m 28 0 l 188 0 l 276 257 l 679 257 l 769 0 l 929 0 l 574 986 l 383 986 z m 324 393 l 478 843 l 633 393 z "},"Ą":{"ha":957,"x_min":0,"x_max":0,"o":"m 28 0 l 188 0 l 276 257 l 679 257 l 769 0 l 810 0 l 788 -29 b 711 -190 750 -79 711 -136 b 850 -294 711 -258 764 -294 b 979 -258 901 -294 957 -279 l 943 -172 b 878 -190 926 -183 904 -190 b 839 -156 856 -190 839 -178 b 883 -62 839 -132 850 -107 l 929 0 l 574 986 l 383 986 z m 324 393 l 478 843 l 633 393 z "},"Å":{"ha":960,"x_min":0,"x_max":0,"o":"m 474 1050 b 607 1182 549 1050 607 1107 b 474 1314 607 1257 549 1314 b 340 1182 399 1314 340 1257 b 474 1050 340 1107 399 1050 z m 474 1125 b 418 1182 442 1125 418 1150 b 474 1238 418 1214 442 1238 b 529 1182 506 1238 529 1214 b 474 1125 529 1150 506 1125 z m 24 0 l 183 0 l 274 257 l 675 257 l 765 0 l 925 0 l 569 986 l 379 986 z m 319 393 l 475 843 l 629 393 z "},"Ã":{"ha":960,"x_min":0,"x_max":0,"o":"m 544 1093 b 688 1271 631 1093 683 1160 l 606 1271 b 549 1186 600 1204 582 1186 b 485 1217 528 1186 511 1194 b 376 1258 451 1243 421 1258 b 238 1083 294 1258 240 1196 l 321 1083 b 378 1165 324 1147 347 1165 b 444 1132 403 1165 415 1156 b 544 1093 476 1106 506 1093 z m 24 0 l 183 0 l 274 257 l 675 257 l 765 0 l 925 0 l 569 986 l 379 986 z m 319 393 l 475 843 l 629 393 z "},"Æ":{"ha":1382,"x_min":0,"x_max":0,"o":"m 28 0 l 192 0 l 324 257 l 699 257 l 699 0 l 1308 0 l 1308 138 l 849 138 l 849 428 l 1281 428 l 1281 561 l 849 561 l 849 849 l 1297 849 l 1297 986 l 556 986 z m 699 853 l 699 392 l 394 392 l 632 853 z "},"B":{"ha":956,"x_min":0,"x_max":0,"o":"m 119 0 l 526 0 b 874 271 749 0 874 90 b 649 510 874 403 790 493 b 832 719 764 526 832 607 b 474 986 832 904 710 986 l 119 986 z m 269 565 l 269 851 l 471 851 b 678 708 607 851 678 806 b 471 565 678 617 603 565 z m 269 135 l 269 438 l 522 438 b 719 285 646 438 719 382 b 522 135 719 186 646 135 z "},"C":{"ha":990,"x_min":0,"x_max":0,"o":"m 511 -22 b 936 344 754 -22 899 121 l 779 353 b 511 115 756 206 671 115 b 217 492 335 115 217 256 b 513 871 217 726 333 871 b 772 654 663 871 746 789 l 929 663 b 513 1008 888 878 757 1008 b 61 492 242 1008 61 810 b 511 -22 61 171 244 -22 z "},"Ć":{"ha":990,"x_min":0,"x_max":0,"o":"m 444 1075 l 561 1075 l 686 1261 l 532 1261 z m 511 -22 b 936 344 754 -22 899 121 l 779 353 b 511 115 756 206 671 115 b 217 492 335 115 217 256 b 513 871 217 726 333 871 b 772 654 663 871 746 789 l 929 663 b 513 1008 888 878 757 1008 b 61 492 242 1008 61 810 b 511 -22 61 171 244 -22 z "},"Č":{"ha":990,"x_min":0,"x_max":0,"o":"m 306 1268 l 433 1075 l 586 1075 l 714 1268 l 601 1268 l 510 1144 l 418 1268 z m 511 -22 b 936 344 754 -22 899 121 l 779 353 b 511 115 756 206 671 115 b 217 492 335 115 217 256 b 513 871 217 726 333 871 b 772 654 663 871 746 789 l 929 663 b 513 1008 888 878 757 1008 b 61 492 242 1008 61 810 b 511 -22 61 171 244 -22 z "},"Ç":{"ha":990,"x_min":0,"x_max":0,"o":"m 503 -311 b 664 -175 594 -311 664 -260 b 531 -47 664 -104 622 -53 l 550 -21 b 936 344 769 -6 901 133 l 779 353 b 511 115 756 206 671 115 b 217 492 335 115 217 256 b 513 871 217 726 333 871 b 772 654 663 871 746 789 l 929 663 b 513 1008 888 878 757 1008 b 61 492 242 1008 61 810 b 456 -19 61 194 219 6 l 426 -67 l 471 -112 b 571 -172 554 -112 571 -137 b 499 -225 571 -206 544 -225 b 413 -169 454 -225 428 -208 l 335 -200 b 503 -311 356 -264 413 -311 z "},"Ĉ":{"ha":990,"x_min":0,"x_max":0,"o":"m 306 1075 l 418 1075 l 510 1199 l 601 1075 l 714 1075 l 586 1268 l 433 1268 z m 511 -22 b 936 344 754 -22 899 121 l 779 353 b 511 115 756 206 671 115 b 217 492 335 115 217 256 b 513 871 217 726 333 871 b 772 654 663 871 746 789 l 929 663 b 513 1008 888 878 757 1008 b 61 492 242 1008 61 810 b 511 -22 61 171 244 -22 z "},"Ċ":{"ha":990,"x_min":0,"x_max":0,"o":"m 433 1093 l 586 1093 l 586 1240 l 433 1240 z m 511 -22 b 936 344 754 -22 899 121 l 779 353 b 511 115 756 206 671 115 b 217 492 335 115 217 256 b 513 871 217 726 333 871 b 772 654 663 871 746 789 l 929 663 b 513 1008 888 878 757 1008 b 61 492 242 1008 61 810 b 511 -22 61 171 244 -22 z "},"D":{"ha":979,"x_min":0,"x_max":0,"o":"m 119 0 l 444 0 b 918 492 749 0 918 176 b 436 986 918 808 744 986 l 119 986 z m 269 138 l 269 849 l 436 849 b 763 492 654 849 763 732 b 436 138 763 254 654 138 z "},"Ď":{"ha":979,"x_min":0,"x_max":0,"o":"m 244 1268 l 372 1075 l 526 1075 l 654 1268 l 542 1268 l 450 1144 l 358 1268 z m 119 0 l 444 0 b 918 492 749 0 918 176 b 436 986 918 808 744 986 l 119 986 z m 269 138 l 269 849 l 436 849 b 763 492 654 849 763 732 b 436 138 763 254 654 138 z "},"Đ":{"ha":979,"x_min":0,"x_max":0,"o":"m 119 0 l 444 0 b 918 492 749 0 918 176 b 436 986 918 808 744 986 l 119 986 l 119 556 l 22 556 l 22 431 l 119 431 z m 269 138 l 269 431 l 542 431 l 542 556 l 269 556 l 269 849 l 436 849 b 763 492 654 849 763 732 b 436 138 763 254 654 138 z "},"Ð":{"ha":979,"x_min":0,"x_max":0,"o":"m 119 0 l 444 0 b 918 492 749 0 918 176 b 436 986 918 808 744 986 l 119 986 l 119 556 l 22 556 l 22 431 l 119 431 z m 269 138 l 269 431 l 542 431 l 542 556 l 269 556 l 269 849 l 436 849 b 763 492 654 849 763 732 b 436 138 763 254 654 138 z "},"E":{"ha":846,"x_min":0,"x_max":0,"o":"m 119 0 l 772 0 l 772 138 l 269 138 l 269 428 l 744 428 l 744 561 l 269 561 l 269 849 l 761 849 l 761 986 l 119 986 z "},"É":{"ha":846,"x_min":0,"x_max":0,"o":"m 376 1075 l 494 1075 l 619 1261 l 465 1261 z m 119 0 l 772 0 l 772 138 l 269 138 l 269 428 l 744 428 l 744 561 l 269 561 l 269 849 l 761 849 l 761 986 l 119 986 z "},"Ě":{"ha":846,"x_min":0,"x_max":0,"o":"m 238 1268 l 365 1075 l 519 1075 l 647 1268 l 533 1268 l 443 1144 l 351 1268 z m 119 0 l 772 0 l 772 138 l 269 138 l 269 428 l 744 428 l 744 561 l 269 561 l 269 849 l 761 849 l 761 986 l 119 986 z "},"Ê":{"ha":846,"x_min":0,"x_max":0,"o":"m 238 1075 l 351 1075 l 443 1199 l 533 1075 l 647 1075 l 519 1268 l 365 1268 z m 119 0 l 772 0 l 772 138 l 269 138 l 269 428 l 744 428 l 744 561 l 269 561 l 269 849 l 761 849 l 761 986 l 119 986 z "},"Ë":{"ha":846,"x_min":0,"x_max":0,"o":"m 239 1092 l 386 1092 l 386 1239 l 239 1239 z m 499 1092 l 647 1092 l 647 1239 l 499 1239 z m 119 0 l 772 0 l 772 138 l 269 138 l 269 428 l 744 428 l 744 561 l 269 561 l 269 849 l 761 849 l 761 986 l 119 986 z "},"Ė":{"ha":846,"x_min":0,"x_max":0,"o":"m 365 1093 l 519 1093 l 519 1240 l 365 1240 z m 119 0 l 772 0 l 772 138 l 269 138 l 269 428 l 744 428 l 744 561 l 269 561 l 269 849 l 761 849 l 761 986 l 119 986 z "},"È":{"ha":846,"x_min":0,"x_max":0,"o":"m 392 1075 l 510 1075 l 421 1261 l 267 1261 z m 119 0 l 772 0 l 772 138 l 269 138 l 269 428 l 744 428 l 744 561 l 269 561 l 269 849 l 761 849 l 761 986 l 119 986 z "},"Ē":{"ha":846,"x_min":0,"x_max":0,"o":"m 249 1107 l 636 1107 l 636 1225 l 249 1225 z m 119 0 l 772 0 l 772 138 l 269 138 l 269 428 l 744 428 l 744 561 l 269 561 l 269 849 l 761 849 l 761 986 l 119 986 z "},"Ę":{"ha":846,"x_min":0,"x_max":0,"o":"m 119 0 l 653 0 l 631 -29 b 554 -190 593 -79 554 -136 b 693 -294 554 -258 607 -294 b 822 -258 744 -294 800 -279 l 786 -172 b 721 -190 769 -183 747 -190 b 682 -156 699 -190 682 -178 b 726 -62 682 -132 693 -107 l 772 0 l 772 138 l 269 138 l 269 428 l 744 428 l 744 561 l 269 561 l 269 849 l 761 849 l 761 986 l 119 986 z "},"Ẽ":{"ha":846,"x_min":0,"x_max":0,"o":"m 524 1090 b 667 1268 610 1090 663 1157 l 585 1268 b 528 1183 579 1201 561 1183 b 464 1214 507 1183 490 1192 b 356 1256 431 1240 400 1256 b 217 1081 274 1256 219 1193 l 300 1081 b 357 1163 303 1144 326 1163 b 424 1129 382 1163 394 1153 b 524 1090 456 1103 485 1090 z m 119 0 l 772 0 l 772 138 l 269 138 l 269 428 l 744 428 l 744 561 l 269 561 l 269 849 l 761 849 l 761 986 l 119 986 z "},"Ə":{"ha":1011,"x_min":0,"x_max":0,"o":"m 950 493 b 494 1008 950 813 769 1008 b 90 704 299 1008 149 892 l 249 692 b 494 871 297 811 388 871 b 793 549 651 871 778 754 l 61 549 l 61 476 b 494 -22 61 146 269 -22 b 950 493 756 -22 950 164 z m 496 115 b 222 415 346 115 247 217 l 792 415 b 496 115 774 218 653 115 z "},"F":{"ha":826,"x_min":0,"x_max":0,"o":"m 119 0 l 269 0 l 269 415 l 735 415 l 735 549 l 269 549 l 269 849 l 760 849 l 760 986 l 119 986 z "},"G":{"ha":990,"x_min":0,"x_max":0,"o":"m 507 -22 b 813 157 643 -22 764 50 l 819 0 l 922 0 l 922 503 l 515 503 l 515 376 l 779 376 b 514 115 774 232 675 115 b 217 492 308 115 217 276 b 513 871 217 699 307 871 b 763 668 668 871 739 789 l 919 676 b 513 1008 881 868 756 1008 b 61 492 229 1008 61 788 b 507 -22 61 192 226 -22 z "},"Ğ":{"ha":990,"x_min":0,"x_max":0,"o":"m 513 1079 b 714 1267 632 1079 708 1150 l 621 1267 b 513 1175 613 1203 574 1175 b 404 1267 451 1175 413 1203 l 311 1267 b 513 1079 317 1150 394 1079 z m 507 -22 b 813 157 643 -22 764 50 l 819 0 l 922 0 l 922 503 l 515 503 l 515 376 l 779 376 b 514 115 774 232 675 115 b 217 492 308 115 217 276 b 513 871 217 699 307 871 b 763 668 668 871 739 789 l 919 676 b 513 1008 881 868 756 1008 b 61 492 229 1008 61 788 b 507 -22 61 192 226 -22 z "},"Ǧ":{"ha":990,"x_min":0,"x_max":0,"o":"m 308 1268 l 436 1075 l 590 1075 l 718 1268 l 604 1268 l 513 1144 l 422 1268 z m 507 -22 b 813 157 643 -22 764 50 l 819 0 l 922 0 l 922 503 l 515 503 l 515 376 l 779 376 b 514 115 774 232 675 115 b 217 492 308 115 217 276 b 513 871 217 699 307 871 b 763 668 668 871 739 789 l 919 676 b 513 1008 881 868 756 1008 b 61 492 229 1008 61 788 b 507 -22 61 192 226 -22 z "},"Ĝ":{"ha":990,"x_min":0,"x_max":0,"o":"m 308 1075 l 422 1075 l 513 1199 l 604 1075 l 718 1075 l 590 1268 l 436 1268 z m 507 -22 b 813 157 643 -22 764 50 l 819 0 l 922 0 l 922 503 l 515 503 l 515 376 l 779 376 b 514 115 774 232 675 115 b 217 492 308 115 217 276 b 513 871 217 699 307 871 b 763 668 668 871 739 789 l 919 676 b 513 1008 881 868 756 1008 b 61 492 229 1008 61 788 b 507 -22 61 192 226 -22 z "},"Ģ":{"ha":990,"x_min":0,"x_max":0,"o":"m 507 -22 b 813 157 643 -22 764 50 l 819 0 l 922 0 l 922 503 l 515 503 l 515 376 l 779 376 b 514 115 774 232 675 115 b 217 492 308 115 217 276 b 513 871 217 699 307 871 b 763 668 668 871 739 789 l 919 676 b 513 1008 881 868 756 1008 b 61 492 229 1008 61 788 b 507 -22 61 192 226 -22 z m 414 -339 l 508 -339 l 593 -196 l 593 -72 l 440 -72 l 440 -208 l 489 -208 z "},"Ġ":{"ha":990,"x_min":0,"x_max":0,"o":"m 436 1093 l 590 1093 l 590 1240 l 436 1240 z m 507 -22 b 813 157 643 -22 764 50 l 819 0 l 922 0 l 922 503 l 515 503 l 515 376 l 779 376 b 514 115 774 232 675 115 b 217 492 308 115 217 276 b 513 871 217 699 307 871 b 763 668 668 871 739 789 l 919 676 b 513 1008 881 868 756 1008 b 61 492 229 1008 61 788 b 507 -22 61 192 226 -22 z "},"Ḡ":{"ha":990,"x_min":0,"x_max":0,"o":"m 319 1107 l 707 1107 l 707 1225 l 319 1225 z m 507 -22 b 813 157 643 -22 764 50 l 819 0 l 922 0 l 922 503 l 515 503 l 515 376 l 779 376 b 514 115 774 232 675 115 b 217 492 308 115 217 276 b 513 871 217 699 307 871 b 763 668 668 871 739 789 l 919 676 b 513 1008 881 868 756 1008 b 61 492 229 1008 61 788 b 507 -22 61 192 226 -22 z "},"Ǥ":{"ha":1050,"x_min":0,"x_max":0,"o":"m 511 -22 b 885 217 696 -22 825 61 l 996 217 l 996 314 l 911 314 b 922 443 918 354 922 397 l 922 503 l 515 503 l 515 389 l 779 389 b 769 314 778 363 775 338 l 515 314 l 515 217 l 728 217 b 510 115 683 153 611 115 b 217 492 308 115 217 275 b 515 871 217 699 304 871 b 763 668 671 871 740 785 l 919 676 b 517 1008 881 878 746 1008 b 61 492 225 1008 61 781 b 511 -22 61 203 217 -22 z "},"H":{"ha":994,"x_min":0,"x_max":0,"o":"m 119 0 l 269 0 l 269 428 l 725 428 l 725 0 l 875 0 l 875 986 l 725 986 l 725 564 l 269 564 l 269 986 l 119 986 z "},"Ħ":{"ha":994,"x_min":0,"x_max":0,"o":"m 119 0 l 269 0 l 269 428 l 725 428 l 725 0 l 875 0 l 875 729 l 978 729 l 978 856 l 875 856 l 875 986 l 725 986 l 725 856 l 269 856 l 269 986 l 119 986 l 119 856 l 17 856 l 17 729 l 119 729 z m 269 564 l 269 729 l 725 729 l 725 564 z "},"Ĥ":{"ha":994,"x_min":0,"x_max":0,"o":"m 293 1075 l 406 1075 l 497 1199 l 589 1075 l 703 1075 l 575 1268 l 421 1268 z m 119 0 l 269 0 l 269 428 l 725 428 l 725 0 l 875 0 l 875 986 l 725 986 l 725 564 l 269 564 l 269 986 l 119 986 z "},"I":{"ha":389,"x_min":0,"x_max":0,"o":"m 119 0 l 269 0 l 269 986 l 119 986 z "},"Ĳ":{"ha":1207,"x_min":0,"x_max":0,"o":"m 119 0 l 269 0 l 269 986 l 119 986 z m 778 -22 b 1108 347 979 -22 1108 121 l 1108 986 l 958 986 l 958 347 b 778 115 958 196 893 115 b 601 340 667 115 603 193 l 449 332 b 778 -22 450 125 579 -22 z "},"Í":{"ha":389,"x_min":0,"x_max":0,"o":"m 129 1075 l 246 1075 l 371 1261 l 217 1261 z m 119 0 l 269 0 l 269 986 l 119 986 z "},"Î":{"ha":389,"x_min":0,"x_max":0,"o":"m -10 1075 l 103 1075 l 194 1199 l 286 1075 l 399 1075 l 271 1268 l 118 1268 z m 119 0 l 269 0 l 269 986 l 119 986 z "},"Ï":{"ha":389,"x_min":0,"x_max":0,"o":"m -10 1092 l 138 1092 l 138 1239 l -10 1239 z m 251 1092 l 399 1092 l 399 1239 l 251 1239 z m 119 0 l 269 0 l 269 986 l 119 986 z "},"İ":{"ha":389,"x_min":0,"x_max":0,"o":"m 118 1093 l 271 1093 l 271 1240 l 118 1240 z m 119 0 l 269 0 l 269 986 l 119 986 z "},"Ì":{"ha":389,"x_min":0,"x_max":0,"o":"m 143 1075 l 261 1075 l 174 1261 l 18 1261 z m 119 0 l 269 0 l 269 986 l 119 986 z "},"Ī":{"ha":389,"x_min":0,"x_max":0,"o":"m 1 1107 l 388 1107 l 388 1225 l 1 1225 z m 119 0 l 269 0 l 269 986 l 119 986 z "},"Į":{"ha":389,"x_min":0,"x_max":0,"o":"m 119 0 l 150 0 l 128 -29 b 51 -190 90 -79 51 -136 b 190 -294 51 -258 104 -294 b 319 -258 242 -294 297 -279 l 283 -172 b 218 -190 267 -183 244 -190 b 179 -156 196 -190 179 -178 b 224 -62 179 -132 190 -107 l 269 0 l 269 986 l 119 986 z "},"Ĩ":{"ha":389,"x_min":0,"x_max":0,"o":"m 275 1090 b 419 1268 361 1090 414 1157 l 336 1268 b 281 1183 331 1201 313 1183 b 215 1214 260 1183 243 1192 b 108 1256 182 1240 153 1256 b -32 1081 26 1256 -29 1193 l 51 1081 b 108 1163 54 1144 78 1163 b 175 1129 133 1163 147 1153 b 275 1090 207 1103 236 1090 z m 119 0 l 269 0 l 269 986 l 119 986 z "},"J":{"ha":843,"x_min":0,"x_max":0,"o":"m 414 -22 b 744 347 615 -22 744 121 l 744 986 l 594 986 l 594 347 b 414 115 594 196 529 115 b 238 340 303 115 239 193 l 85 332 b 414 -22 86 125 215 -22 z "},"Ĵ":{"ha":843,"x_min":0,"x_max":0,"o":"m 465 1075 l 579 1075 l 671 1199 l 763 1075 l 875 1075 l 747 1268 l 593 1268 z m 414 -22 b 744 347 615 -22 744 121 l 744 986 l 594 986 l 594 347 b 414 115 594 196 529 115 b 238 340 303 115 239 193 l 85 332 b 414 -22 86 125 215 -22 z "},"K":{"ha":911,"x_min":0,"x_max":0,"o":"m 119 0 l 269 0 l 269 317 l 389 450 l 715 0 l 892 0 l 489 556 l 867 986 l 685 986 l 269 515 l 269 986 l 119 986 z "},"Ǩ":{"ha":911,"x_min":0,"x_max":0,"o":"m 260 1268 l 388 1075 l 540 1075 l 668 1268 l 556 1268 l 464 1144 l 372 1268 z m 119 0 l 269 0 l 269 317 l 389 450 l 715 0 l 892 0 l 489 556 l 867 986 l 685 986 l 269 515 l 269 986 l 119 986 z "},"Ķ":{"ha":911,"x_min":0,"x_max":0,"o":"m 119 0 l 269 0 l 269 317 l 389 450 l 715 0 l 892 0 l 489 556 l 867 986 l 685 986 l 269 515 l 269 986 l 119 986 z m 385 -339 l 479 -339 l 563 -196 l 563 -72 l 410 -72 l 410 -208 l 460 -208 z "},"L":{"ha":810,"x_min":0,"x_max":0,"o":"m 119 0 l 750 0 l 750 138 l 269 138 l 269 986 l 119 986 z "},"Ĺ":{"ha":810,"x_min":0,"x_max":0,"o":"m 129 1075 l 246 1075 l 371 1261 l 217 1261 z m 119 0 l 750 0 l 750 138 l 269 138 l 269 986 l 119 986 z "},"Ľ":{"ha":810,"x_min":0,"x_max":0,"o":"m 119 0 l 750 0 l 750 138 l 269 138 l 269 986 l 119 986 z m 547 618 l 653 618 l 726 986 l 589 986 z "},"Ļ":{"ha":810,"x_min":0,"x_max":0,"o":"m 119 0 l 750 0 l 750 138 l 269 138 l 269 986 l 119 986 z m 333 -339 l 428 -339 l 511 -196 l 511 -72 l 358 -72 l 358 -208 l 408 -208 z "},"Ł":{"ha":810,"x_min":0,"x_max":0,"o":"m 119 0 l 750 0 l 750 138 l 269 138 l 269 481 l 471 583 l 471 700 l 269 599 l 269 986 l 119 986 l 119 522 l 21 472 l 21 354 l 119 404 z "},"M":{"ha":1236,"x_min":0,"x_max":0,"o":"m 119 0 l 269 0 l 269 722 l 535 1 l 701 1 l 967 722 l 967 0 l 1117 0 l 1117 986 l 911 986 l 618 176 l 325 986 l 119 986 z "},"N":{"ha":1035,"x_min":0,"x_max":0,"o":"m 119 0 l 269 0 l 269 786 l 718 0 l 915 0 l 915 986 l 765 986 l 765 182 l 310 986 l 119 986 z "},"Ń":{"ha":1035,"x_min":0,"x_max":0,"o":"m 468 1075 l 586 1075 l 711 1261 l 557 1261 z m 119 0 l 269 0 l 269 786 l 718 0 l 915 0 l 915 986 l 765 986 l 765 182 l 310 986 l 119 986 z "},"Ň":{"ha":1035,"x_min":0,"x_max":0,"o":"m 329 1268 l 457 1075 l 611 1075 l 739 1268 l 625 1268 l 533 1144 l 443 1268 z m 119 0 l 269 0 l 269 786 l 718 0 l 915 0 l 915 986 l 765 986 l 765 182 l 310 986 l 119 986 z "},"Ņ":{"ha":1035,"x_min":0,"x_max":0,"o":"m 119 0 l 269 0 l 269 786 l 718 0 l 915 0 l 915 986 l 765 986 l 765 182 l 310 986 l 119 986 z m 417 -339 l 511 -339 l 594 -196 l 594 -72 l 442 -72 l 442 -208 l 492 -208 z "},"Ñ":{"ha":1035,"x_min":0,"x_max":0,"o":"m 614 1090 b 758 1268 701 1090 754 1157 l 675 1268 b 619 1183 671 1201 651 1183 b 556 1214 599 1183 582 1192 b 447 1256 522 1240 492 1256 b 308 1081 365 1256 310 1193 l 390 1081 b 449 1163 394 1144 417 1163 b 514 1129 474 1163 486 1153 b 614 1090 547 1103 576 1090 z m 119 0 l 269 0 l 269 786 l 718 0 l 915 0 l 915 986 l 765 986 l 765 182 l 310 986 l 119 986 z "},"Ŋ":{"ha":1035,"x_min":0,"x_max":0,"o":"m 119 0 l 269 0 l 269 785 l 718 0 l 769 0 l 769 -11 b 686 -92 769 -62 742 -92 l 547 -92 l 547 -214 l 703 -214 b 915 -10 836 -214 915 -135 l 915 986 l 765 986 l 765 183 l 310 986 l 119 986 z "},"O":{"ha":1043,"x_min":0,"x_max":0,"o":"m 521 -22 b 982 492 810 -22 982 172 b 521 1008 982 811 810 1008 b 61 492 235 1008 61 811 b 521 -22 61 172 235 -22 z m 521 115 b 217 492 331 115 217 254 b 521 871 217 729 331 871 b 826 492 713 871 826 729 b 521 115 826 254 713 115 z "},"Ó":{"ha":1043,"x_min":0,"x_max":0,"o":"m 456 1075 l 574 1075 l 699 1261 l 543 1261 z m 521 -22 b 982 492 810 -22 982 172 b 521 1008 982 811 810 1008 b 61 492 235 1008 61 811 b 521 -22 61 172 235 -22 z m 521 115 b 217 492 331 115 217 254 b 521 871 217 729 331 871 b 826 492 713 871 826 729 b 521 115 826 254 713 115 z "},"Ô":{"ha":1043,"x_min":0,"x_max":0,"o":"m 317 1075 l 429 1075 l 521 1199 l 613 1075 l 726 1075 l 599 1268 l 444 1268 z m 521 -22 b 982 492 810 -22 982 172 b 521 1008 982 811 810 1008 b 61 492 235 1008 61 811 b 521 -22 61 172 235 -22 z m 521 115 b 217 492 331 115 217 254 b 521 871 217 729 331 871 b 826 492 713 871 826 729 b 521 115 826 254 713 115 z "},"Ö":{"ha":1043,"x_min":0,"x_max":0,"o":"m 317 1092 l 465 1092 l 465 1239 l 317 1239 z m 578 1092 l 725 1092 l 725 1239 l 578 1239 z m 521 -22 b 982 492 810 -22 982 172 b 521 1008 982 811 810 1008 b 61 492 235 1008 61 811 b 521 -22 61 172 235 -22 z m 521 115 b 217 492 331 115 217 254 b 521 871 217 729 331 871 b 826 492 713 871 826 729 b 521 115 826 254 713 115 z "},"Ò":{"ha":1043,"x_min":0,"x_max":0,"o":"m 471 1075 l 588 1075 l 500 1261 l 346 1261 z m 521 -22 b 982 492 810 -22 982 172 b 521 1008 982 811 810 1008 b 61 492 235 1008 61 811 b 521 -22 61 172 235 -22 z m 521 115 b 217 492 331 115 217 254 b 521 871 217 729 331 871 b 826 492 713 871 826 729 b 521 115 826 254 713 115 z "},"Ő":{"ha":1043,"x_min":0,"x_max":0,"o":"m 357 1075 l 475 1075 l 600 1261 l 446 1261 z m 561 1075 l 678 1075 l 803 1261 l 649 1261 z m 521 -22 b 982 492 810 -22 982 172 b 521 1008 982 811 810 1008 b 61 492 235 1008 61 811 b 521 -22 61 172 235 -22 z m 521 115 b 217 492 331 115 217 254 b 521 871 217 729 331 871 b 826 492 713 871 826 729 b 521 115 826 254 713 115 z "},"Ō":{"ha":1043,"x_min":0,"x_max":0,"o":"m 328 1107 l 714 1107 l 714 1225 l 328 1225 z m 521 -22 b 982 492 810 -22 982 172 b 521 1008 982 811 810 1008 b 61 492 235 1008 61 811 b 521 -22 61 172 235 -22 z m 521 115 b 217 492 331 115 217 254 b 521 871 217 729 331 871 b 826 492 713 871 826 729 b 521 115 826 254 713 115 z "},"Ø":{"ha":1043,"x_min":0,"x_max":0,"o":"m 103 -22 l 232 -22 l 275 40 b 521 -22 343 0 426 -22 b 982 492 810 -22 982 172 b 851 879 982 657 936 789 l 940 1008 l 811 1008 l 768 946 b 521 1008 700 986 617 1008 b 61 492 235 1008 61 811 b 192 107 61 326 107 196 z m 217 492 b 521 871 217 729 331 871 b 686 825 585 871 640 856 l 281 238 b 217 492 239 300 217 386 z m 521 115 b 357 160 457 115 403 131 l 761 749 b 826 492 804 685 826 597 b 521 115 826 254 713 115 z "},"Õ":{"ha":1043,"x_min":0,"x_max":0,"o":"m 601 1090 b 746 1268 688 1090 742 1157 l 663 1268 b 607 1183 658 1201 639 1183 b 543 1214 586 1183 569 1192 b 435 1256 510 1240 479 1256 b 296 1081 353 1256 297 1193 l 378 1081 b 436 1163 382 1144 404 1163 b 501 1129 461 1163 474 1153 b 601 1090 533 1103 564 1090 z m 521 -22 b 982 492 810 -22 982 172 b 521 1008 982 811 810 1008 b 61 492 235 1008 61 811 b 521 -22 61 172 235 -22 z m 521 115 b 217 492 331 115 217 254 b 521 871 217 729 331 871 b 826 492 713 871 826 729 b 521 115 826 254 713 115 z "},"Œ":{"ha":1526,"x_min":0,"x_max":0,"o":"m 519 -22 b 840 125 660 -22 768 32 l 840 0 l 1451 0 l 1451 138 l 990 138 l 990 428 l 1424 428 l 1424 561 l 990 561 l 990 849 l 1440 849 l 1440 986 l 840 986 l 840 861 b 519 1008 768 956 660 1008 b 61 492 231 1008 61 801 b 519 -22 61 183 232 -22 z m 519 115 b 217 492 317 115 217 271 b 519 871 217 710 315 871 b 826 492 726 871 826 708 b 519 115 826 271 726 115 z "},"P":{"ha":913,"x_min":0,"x_max":0,"o":"m 119 0 l 269 0 l 269 369 l 488 369 b 846 679 713 369 846 486 b 488 986 846 871 713 986 l 119 986 z m 269 506 l 269 849 l 483 849 b 690 679 619 849 690 792 b 483 506 690 565 619 506 z "},"Þ":{"ha":871,"x_min":0,"x_max":0,"o":"m 119 0 l 269 0 l 269 208 l 449 208 b 804 508 674 208 804 318 b 449 808 804 697 674 808 l 269 808 l 269 986 l 119 986 z m 447 671 b 649 508 582 671 649 617 b 447 344 649 400 582 344 l 269 344 l 269 671 z "},"Q":{"ha":1035,"x_min":0,"x_max":0,"o":"m 769 -93 l 913 -93 l 788 64 b 974 492 907 156 974 310 b 517 1008 974 781 813 1008 b 61 492 225 1008 61 781 b 517 -22 61 201 231 -22 b 690 10 583 -22 646 -10 z m 517 115 b 217 492 315 115 217 288 b 517 871 217 697 313 871 b 818 492 721 871 818 697 b 699 179 818 349 776 244 l 604 304 l 461 304 l 601 128 b 517 115 581 118 551 115 z "},"R":{"ha":944,"x_min":0,"x_max":0,"o":"m 119 0 l 269 0 l 269 385 l 531 385 b 689 268 639 385 683 349 l 713 0 l 864 0 l 838 288 b 686 458 829 389 776 444 b 854 689 778 486 854 574 b 513 986 854 871 722 986 l 119 986 z m 269 522 l 269 849 l 503 849 b 699 685 629 849 699 790 b 515 522 699 581 628 522 z "},"Ŕ":{"ha":944,"x_min":0,"x_max":0,"o":"m 406 1075 l 524 1075 l 649 1261 l 494 1261 z m 119 0 l 269 0 l 269 385 l 531 385 b 689 268 639 385 683 349 l 713 0 l 864 0 l 838 288 b 686 458 829 389 776 444 b 854 689 778 486 854 574 b 513 986 854 871 722 986 l 119 986 z m 269 522 l 269 849 l 503 849 b 699 685 629 849 699 790 b 515 522 699 581 628 522 z "},"Ř":{"ha":944,"x_min":0,"x_max":0,"o":"m 267 1268 l 394 1075 l 549 1075 l 676 1268 l 563 1268 l 472 1144 l 381 1268 z m 119 0 l 269 0 l 269 385 l 531 385 b 689 268 639 385 683 349 l 713 0 l 864 0 l 838 288 b 686 458 829 389 776 444 b 854 689 778 486 854 574 b 513 986 854 871 722 986 l 119 986 z m 269 522 l 269 849 l 503 849 b 699 685 629 849 699 790 b 515 522 699 581 628 522 z "},"Ŗ":{"ha":944,"x_min":0,"x_max":0,"o":"m 119 0 l 269 0 l 269 385 l 531 385 b 689 268 639 385 683 349 l 713 0 l 864 0 l 838 288 b 686 458 829 389 776 444 b 854 689 778 486 854 574 b 513 986 854 871 722 986 l 119 986 z m 269 522 l 269 849 l 503 849 b 699 685 629 849 699 790 b 515 522 699 581 628 522 z m 389 -339 l 483 -339 l 567 -196 l 567 -72 l 414 -72 l 414 -208 l 464 -208 z "},"S":{"ha":908,"x_min":0,"x_max":0,"o":"m 475 -22 b 833 264 688 -22 833 88 b 490 564 833 408 746 504 b 250 728 299 610 250 642 b 435 872 250 814 321 872 b 660 679 569 872 646 793 l 814 688 b 438 1008 792 874 663 1008 b 96 722 225 1008 96 892 b 418 443 96 568 182 500 b 679 256 636 390 679 339 b 478 114 679 163 604 114 b 229 328 331 114 247 190 l 75 318 b 475 -22 92 115 239 -22 z "},"Ś":{"ha":908,"x_min":0,"x_max":0,"o":"m 372 1075 l 489 1075 l 614 1261 l 460 1261 z m 475 -22 b 833 264 688 -22 833 88 b 490 564 833 408 746 504 b 250 728 299 610 250 642 b 435 872 250 814 321 872 b 660 679 569 872 646 793 l 814 688 b 438 1008 792 874 663 1008 b 96 722 225 1008 96 892 b 418 443 96 568 182 500 b 679 256 636 390 679 339 b 478 114 679 163 604 114 b 229 328 331 114 247 190 l 75 318 b 475 -22 92 115 239 -22 z "},"Š":{"ha":908,"x_min":0,"x_max":0,"o":"m 233 1268 l 361 1075 l 514 1075 l 642 1268 l 529 1268 l 438 1144 l 346 1268 z m 475 -22 b 833 264 688 -22 833 88 b 490 564 833 408 746 504 b 250 728 299 610 250 642 b 435 872 250 814 321 872 b 660 679 569 872 646 793 l 814 688 b 438 1008 792 874 663 1008 b 96 722 225 1008 96 892 b 418 443 96 568 182 500 b 679 256 636 390 679 339 b 478 114 679 163 604 114 b 229 328 331 114 247 190 l 75 318 b 475 -22 92 115 239 -22 z "},"Ş":{"ha":908,"x_min":0,"x_max":0,"o":"m 453 -311 b 615 -175 544 -311 615 -260 b 482 -47 615 -104 572 -53 l 500 -22 b 833 264 699 -14 833 94 b 490 564 833 408 746 504 b 250 728 299 610 250 642 b 435 872 250 814 321 872 b 660 679 569 872 646 793 l 814 688 b 438 1008 792 874 663 1008 b 96 722 225 1008 96 892 b 418 443 96 568 182 500 b 679 256 636 390 679 339 b 478 114 679 163 604 114 b 229 328 331 114 247 190 l 75 318 b 407 -18 89 136 210 6 l 376 -67 l 421 -112 b 521 -172 504 -112 521 -137 b 449 -225 521 -206 494 -225 b 363 -169 404 -225 379 -208 l 285 -200 b 453 -311 306 -264 363 -311 z "},"Ŝ":{"ha":908,"x_min":0,"x_max":0,"o":"m 233 1075 l 346 1075 l 438 1199 l 529 1075 l 642 1075 l 514 1268 l 361 1268 z m 475 -22 b 833 264 688 -22 833 88 b 490 564 833 408 746 504 b 250 728 299 610 250 642 b 435 872 250 814 321 872 b 660 679 569 872 646 793 l 814 688 b 438 1008 792 874 663 1008 b 96 722 225 1008 96 892 b 418 443 96 568 182 500 b 679 256 636 390 679 339 b 478 114 679 163 604 114 b 229 328 331 114 247 190 l 75 318 b 475 -22 92 115 239 -22 z "},"Ș":{"ha":908,"x_min":0,"x_max":0,"o":"m 475 -22 b 833 264 688 -22 833 88 b 490 564 833 408 746 504 b 250 728 299 610 250 642 b 435 872 250 814 321 872 b 660 679 569 872 646 793 l 814 688 b 438 1008 792 874 663 1008 b 96 722 225 1008 96 892 b 418 443 96 568 182 500 b 679 256 636 390 679 339 b 478 114 679 163 604 114 b 229 328 331 114 247 190 l 75 318 b 475 -22 92 115 239 -22 z m 363 -339 l 457 -339 l 540 -196 l 540 -72 l 388 -72 l 388 -208 l 438 -208 z "},"ẞ":{"ha":983,"x_min":0,"x_max":0,"o":"m 119 0 l 269 0 l 269 681 b 425 849 269 790 324 849 l 660 849 l 388 594 l 388 474 l 528 474 b 747 306 663 474 747 413 b 543 138 747 200 669 138 l 363 138 l 363 0 l 543 0 b 903 307 765 0 903 118 b 569 592 903 476 792 576 l 843 840 l 843 986 l 425 986 b 119 681 232 986 119 872 z "},"T":{"ha":789,"x_min":0,"x_max":0,"o":"m 319 0 l 469 0 l 469 849 l 772 849 l 772 986 l 17 986 l 17 849 l 319 849 z "},"Ŧ":{"ha":789,"x_min":0,"x_max":0,"o":"m 319 0 l 469 0 l 469 411 l 654 411 l 654 536 l 469 536 l 469 849 l 772 849 l 772 986 l 17 986 l 17 849 l 319 849 l 319 536 l 135 536 l 135 411 l 319 411 z "},"Ť":{"ha":789,"x_min":0,"x_max":0,"o":"m 189 1268 l 317 1075 l 471 1075 l 599 1268 l 486 1268 l 394 1144 l 303 1268 z m 319 0 l 469 0 l 469 849 l 772 849 l 772 986 l 17 986 l 17 849 l 319 849 z "},"Ţ":{"ha":789,"x_min":0,"x_max":0,"o":"m 319 0 l 347 0 l 306 -67 l 350 -112 b 451 -172 435 -112 451 -137 b 379 -225 451 -206 424 -225 b 292 -169 333 -225 308 -208 l 214 -200 b 382 -311 236 -264 292 -311 b 544 -175 475 -311 544 -260 b 411 -47 544 -104 503 -53 l 446 0 l 469 0 l 469 849 l 772 849 l 772 986 l 17 986 l 17 849 l 319 849 z "},"Ț":{"ha":789,"x_min":0,"x_max":0,"o":"m 319 0 l 469 0 l 469 849 l 772 849 l 772 986 l 17 986 l 17 849 l 319 849 z m 292 -339 l 386 -339 l 471 -196 l 471 -72 l 318 -72 l 318 -208 l 367 -208 z "},"U":{"ha":964,"x_min":0,"x_max":0,"o":"m 482 -22 b 865 349 717 -22 865 121 l 865 988 l 715 988 l 715 349 b 482 115 715 199 631 115 b 249 349 333 115 249 199 l 249 988 l 99 988 l 99 349 b 482 -22 99 121 246 -22 z "},"Ú":{"ha":964,"x_min":0,"x_max":0,"o":"m 417 1075 l 535 1075 l 660 1261 l 504 1261 z m 482 -22 b 865 349 717 -22 865 121 l 865 988 l 715 988 l 715 349 b 482 115 715 199 631 115 b 249 349 333 115 249 199 l 249 988 l 99 988 l 99 349 b 482 -22 99 121 246 -22 z "},"Ŭ":{"ha":964,"x_min":0,"x_max":0,"o":"m 482 1079 b 683 1267 601 1079 678 1150 l 589 1267 b 482 1175 582 1203 543 1175 b 374 1267 421 1175 382 1203 l 281 1267 b 482 1079 286 1150 364 1079 z m 482 -22 b 865 349 717 -22 865 121 l 865 988 l 715 988 l 715 349 b 482 115 715 199 631 115 b 249 349 333 115 249 199 l 249 988 l 99 988 l 99 349 b 482 -22 99 121 246 -22 z "},"Û":{"ha":964,"x_min":0,"x_max":0,"o":"m 278 1075 l 390 1075 l 482 1199 l 574 1075 l 688 1075 l 560 1268 l 406 1268 z m 482 -22 b 865 349 717 -22 865 121 l 865 988 l 715 988 l 715 349 b 482 115 715 199 631 115 b 249 349 333 115 249 199 l 249 988 l 99 988 l 99 349 b 482 -22 99 121 246 -22 z "},"Ü":{"ha":964,"x_min":0,"x_max":0,"o":"m 278 1092 l 426 1092 l 426 1239 l 278 1239 z m 539 1092 l 686 1092 l 686 1239 l 539 1239 z m 482 -22 b 865 349 717 -22 865 121 l 865 988 l 715 988 l 715 349 b 482 115 715 199 631 115 b 249 349 333 115 249 199 l 249 988 l 99 988 l 99 349 b 482 -22 99 121 246 -22 z "},"Ù":{"ha":964,"x_min":0,"x_max":0,"o":"m 432 1075 l 549 1075 l 461 1261 l 307 1261 z m 482 -22 b 865 349 717 -22 865 121 l 865 988 l 715 988 l 715 349 b 482 115 715 199 631 115 b 249 349 333 115 249 199 l 249 988 l 99 988 l 99 349 b 482 -22 99 121 246 -22 z "},"Ű":{"ha":964,"x_min":0,"x_max":0,"o":"m 318 1075 l 436 1075 l 561 1261 l 407 1261 z m 522 1075 l 639 1075 l 764 1261 l 610 1261 z m 482 -22 b 865 349 717 -22 865 121 l 865 988 l 715 988 l 715 349 b 482 115 715 199 631 115 b 249 349 333 115 249 199 l 249 988 l 99 988 l 99 349 b 482 -22 99 121 246 -22 z "},"Ū":{"ha":964,"x_min":0,"x_max":0,"o":"m 289 1107 l 675 1107 l 675 1225 l 289 1225 z m 482 -22 b 865 349 717 -22 865 121 l 865 988 l 715 988 l 715 349 b 482 115 715 199 631 115 b 249 349 333 115 249 199 l 249 988 l 99 988 l 99 349 b 482 -22 99 121 246 -22 z "},"Ų":{"ha":964,"x_min":0,"x_max":0,"o":"m 482 -22 b 500 -22 489 -22 494 -22 l 497 -26 b 421 -187 461 -75 421 -133 b 560 -292 421 -256 474 -292 b 689 -256 613 -292 667 -276 l 654 -168 b 589 -187 638 -181 614 -187 b 550 -151 567 -187 550 -174 b 593 -60 550 -129 561 -104 l 639 3 b 865 349 781 53 865 176 l 865 988 l 715 988 l 715 349 b 482 115 715 199 631 115 b 249 349 333 115 249 199 l 249 988 l 99 988 l 99 349 b 482 -22 99 121 246 -22 z "},"Ů":{"ha":964,"x_min":0,"x_max":0,"o":"m 482 1047 b 615 1179 557 1047 615 1104 b 482 1311 615 1254 557 1311 b 350 1179 407 1311 350 1254 b 482 1047 350 1104 407 1047 z m 482 1122 b 426 1179 450 1122 426 1147 b 482 1235 426 1211 450 1235 b 539 1179 514 1235 539 1211 b 482 1122 539 1147 514 1122 z m 482 -22 b 865 349 717 -22 865 121 l 865 988 l 715 988 l 715 349 b 482 115 715 199 631 115 b 249 349 333 115 249 199 l 249 988 l 99 988 l 99 349 b 482 -22 99 121 246 -22 z "},"Ũ":{"ha":964,"x_min":0,"x_max":0,"o":"m 563 1090 b 707 1268 649 1090 703 1157 l 624 1268 b 568 1183 619 1201 600 1183 b 504 1214 547 1183 531 1192 b 396 1256 471 1240 440 1256 b 257 1081 314 1256 258 1193 l 339 1081 b 397 1163 343 1144 365 1163 b 463 1129 422 1163 435 1153 b 563 1090 494 1103 525 1090 z m 482 -22 b 865 349 717 -22 865 121 l 865 988 l 715 988 l 715 349 b 482 115 715 199 631 115 b 249 349 333 115 249 199 l 249 988 l 99 988 l 99 349 b 482 -22 99 121 246 -22 z "},"V":{"ha":956,"x_min":0,"x_max":0,"o":"m 383 0 l 571 0 l 928 986 l 768 986 l 478 167 l 188 986 l 28 986 z "},"W":{"ha":1344,"x_min":0,"x_max":0,"o":"m 314 0 l 489 0 l 672 719 l 856 0 l 1031 0 l 1293 986 l 1131 986 l 940 207 l 749 986 l 596 986 l 404 207 l 213 986 l 53 986 z "},"Ẃ":{"ha":1344,"x_min":0,"x_max":0,"o":"m 606 1075 l 724 1075 l 849 1261 l 694 1261 z m 314 0 l 489 0 l 672 719 l 856 0 l 1031 0 l 1293 986 l 1131 986 l 940 207 l 749 986 l 596 986 l 404 207 l 213 986 l 53 986 z "},"Ŵ":{"ha":1344,"x_min":0,"x_max":0,"o":"m 467 1075 l 581 1075 l 672 1199 l 764 1075 l 876 1075 l 749 1268 l 594 1268 z m 314 0 l 489 0 l 672 719 l 856 0 l 1031 0 l 1293 986 l 1131 986 l 940 207 l 749 986 l 596 986 l 404 207 l 213 986 l 53 986 z "},"Ẅ":{"ha":1344,"x_min":0,"x_max":0,"o":"m 468 1092 l 615 1092 l 615 1239 l 468 1239 z m 728 1092 l 876 1092 l 876 1239 l 728 1239 z m 314 0 l 489 0 l 672 719 l 856 0 l 1031 0 l 1293 986 l 1131 986 l 940 207 l 749 986 l 596 986 l 404 207 l 213 986 l 53 986 z "},"Ẁ":{"ha":1344,"x_min":0,"x_max":0,"o":"m 621 1075 l 739 1075 l 650 1261 l 496 1261 z m 314 0 l 489 0 l 672 719 l 856 0 l 1031 0 l 1293 986 l 1131 986 l 940 207 l 749 986 l 596 986 l 404 207 l 213 986 l 53 986 z "},"X":{"ha":879,"x_min":0,"x_max":0,"o":"m 19 0 l 194 0 l 439 381 l 683 0 l 860 0 l 531 497 l 856 986 l 681 986 l 442 611 l 199 986 l 22 986 l 347 494 z "},"Y":{"ha":825,"x_min":0,"x_max":0,"o":"m 338 0 l 488 0 l 488 396 l 835 986 l 663 986 l 413 546 l 164 986 l -8 986 l 338 396 z "},"Ý":{"ha":825,"x_min":0,"x_max":0,"o":"m 347 1075 l 465 1075 l 590 1261 l 436 1261 z m 338 0 l 488 0 l 488 396 l 835 986 l 663 986 l 413 546 l 164 986 l -8 986 l 338 396 z "},"Ŷ":{"ha":825,"x_min":0,"x_max":0,"o":"m 208 1075 l 322 1075 l 413 1199 l 504 1075 l 618 1075 l 490 1268 l 336 1268 z m 338 0 l 488 0 l 488 396 l 835 986 l 663 986 l 413 546 l 164 986 l -8 986 l 338 396 z "},"Ÿ":{"ha":825,"x_min":0,"x_max":0,"o":"m 208 1092 l 357 1092 l 357 1239 l 208 1239 z m 469 1092 l 617 1092 l 617 1239 l 469 1239 z m 338 0 l 488 0 l 488 396 l 835 986 l 663 986 l 413 546 l 164 986 l -8 986 l 338 396 z "},"Ỳ":{"ha":825,"x_min":0,"x_max":0,"o":"m 363 1075 l 481 1075 l 392 1261 l 238 1261 z m 338 0 l 488 0 l 488 396 l 835 986 l 663 986 l 413 546 l 164 986 l -8 986 l 338 396 z "},"Ỹ":{"ha":825,"x_min":0,"x_max":0,"o":"m 493 1090 b 638 1268 581 1090 633 1157 l 554 1268 b 499 1183 550 1201 531 1183 b 435 1214 478 1183 461 1192 b 326 1256 401 1240 371 1256 b 188 1081 244 1256 189 1193 l 269 1081 b 328 1163 274 1144 296 1163 b 393 1129 353 1163 365 1153 b 493 1090 426 1103 456 1090 z m 338 0 l 488 0 l 488 396 l 835 986 l 663 986 l 413 546 l 164 986 l -8 986 l 338 396 z "},"Z":{"ha":779,"x_min":0,"x_max":0,"o":"m 39 0 l 740 0 l 740 138 l 214 138 l 725 847 l 725 986 l 58 986 l 58 849 l 547 849 l 39 139 z "},"Ź":{"ha":779,"x_min":0,"x_max":0,"o":"m 335 1075 l 453 1075 l 578 1261 l 424 1261 z m 39 0 l 740 0 l 740 138 l 214 138 l 725 847 l 725 986 l 58 986 l 58 849 l 547 849 l 39 139 z "},"Ž":{"ha":779,"x_min":0,"x_max":0,"o":"m 196 1268 l 324 1075 l 478 1075 l 606 1268 l 492 1268 l 401 1144 l 310 1268 z m 39 0 l 740 0 l 740 138 l 214 138 l 725 847 l 725 986 l 58 986 l 58 849 l 547 849 l 39 139 z "},"Ż":{"ha":779,"x_min":0,"x_max":0,"o":"m 324 1093 l 478 1093 l 478 1240 l 324 1240 z m 39 0 l 740 0 l 740 138 l 214 138 l 725 847 l 725 986 l 58 986 l 58 849 l 547 849 l 39 139 z "},"Ꞌ":{"ha":268,"x_min":0,"x_max":0,"o":"m 78 476 l 189 476 l 207 810 l 207 986 l 61 986 l 61 810 z "},"a":{"ha":785,"x_min":0,"x_max":0,"o":"m 311 -17 b 561 114 426 -17 524 36 b 707 -4 572 28 622 -4 b 761 0 729 -4 751 -3 l 761 117 l 735 117 b 696 164 707 117 696 128 l 696 451 b 389 756 696 643 589 756 b 71 517 214 756 99 664 l 222 507 b 389 631 242 588 294 631 b 549 460 494 631 549 574 l 294 411 b 58 185 132 379 58 311 b 311 -17 58 57 157 -17 z m 335 100 b 211 199 256 100 211 135 b 332 307 211 256 243 290 l 549 349 l 549 301 b 335 100 549 183 468 100 z "},"á":{"ha":785,"x_min":0,"x_max":0,"o":"m 329 828 l 447 828 l 572 1014 l 417 1014 z m 311 -17 b 561 114 426 -17 524 36 b 707 -4 572 28 622 -4 b 761 0 729 -4 751 -3 l 761 117 l 735 117 b 696 164 707 117 696 128 l 696 451 b 389 756 696 643 589 756 b 71 517 214 756 99 664 l 222 507 b 389 631 242 588 294 631 b 549 460 494 631 549 574 l 294 411 b 58 185 132 379 58 311 b 311 -17 58 57 157 -17 z m 335 100 b 211 199 256 100 211 135 b 332 307 211 256 243 290 l 549 349 l 549 301 b 335 100 549 183 468 100 z "},"ă":{"ha":785,"x_min":0,"x_max":0,"o":"m 394 832 b 596 1019 514 832 590 903 l 501 1019 b 394 928 494 956 456 928 b 286 1019 333 928 294 956 l 193 1019 b 394 832 199 903 276 832 z m 311 -17 b 561 114 426 -17 524 36 b 707 -4 572 28 622 -4 b 761 0 729 -4 751 -3 l 761 117 l 735 117 b 696 164 707 117 696 128 l 696 451 b 389 756 696 643 589 756 b 71 517 214 756 99 664 l 222 507 b 389 631 242 588 294 631 b 549 460 494 631 549 574 l 294 411 b 58 185 132 379 58 311 b 311 -17 58 57 157 -17 z m 335 100 b 211 199 256 100 211 135 b 332 307 211 256 243 290 l 549 349 l 549 301 b 335 100 549 183 468 100 z "},"ǎ":{"ha":785,"x_min":0,"x_max":0,"o":"m 190 1021 l 318 828 l 472 828 l 600 1021 l 486 1021 l 394 897 l 303 1021 z m 311 -17 b 561 114 426 -17 524 36 b 707 -4 572 28 622 -4 b 761 0 729 -4 751 -3 l 761 117 l 735 117 b 696 164 707 117 696 128 l 696 451 b 389 756 696 643 589 756 b 71 517 214 756 99 664 l 222 507 b 389 631 242 588 294 631 b 549 460 494 631 549 574 l 294 411 b 58 185 132 379 58 311 b 311 -17 58 57 157 -17 z m 335 100 b 211 199 256 100 211 135 b 332 307 211 256 243 290 l 549 349 l 549 301 b 335 100 549 183 468 100 z "},"â":{"ha":785,"x_min":0,"x_max":0,"o":"m 190 828 l 303 828 l 394 951 l 486 828 l 600 828 l 472 1021 l 318 1021 z m 311 -17 b 561 114 426 -17 524 36 b 707 -4 572 28 622 -4 b 761 0 729 -4 751 -3 l 761 117 l 735 117 b 696 164 707 117 696 128 l 696 451 b 389 756 696 643 589 756 b 71 517 214 756 99 664 l 222 507 b 389 631 242 588 294 631 b 549 460 494 631 549 574 l 294 411 b 58 185 132 379 58 311 b 311 -17 58 57 157 -17 z m 335 100 b 211 199 256 100 211 135 b 332 307 211 256 243 290 l 549 349 l 549 301 b 335 100 549 183 468 100 z "},"ä":{"ha":785,"x_min":0,"x_max":0,"o":"m 190 844 l 339 844 l 339 992 l 190 992 z m 451 844 l 599 844 l 599 992 l 451 992 z m 311 -17 b 561 114 426 -17 524 36 b 707 -4 572 28 622 -4 b 761 0 729 -4 751 -3 l 761 117 l 735 117 b 696 164 707 117 696 128 l 696 451 b 389 756 696 643 589 756 b 71 517 214 756 99 664 l 222 507 b 389 631 242 588 294 631 b 549 460 494 631 549 574 l 294 411 b 58 185 132 379 58 311 b 311 -17 58 57 157 -17 z m 335 100 b 211 199 256 100 211 135 b 332 307 211 256 243 290 l 549 349 l 549 301 b 335 100 549 183 468 100 z "},"à":{"ha":785,"x_min":0,"x_max":0,"o":"m 344 828 l 461 828 l 374 1014 l 219 1014 z m 311 -17 b 561 114 426 -17 524 36 b 707 -4 572 28 622 -4 b 761 0 729 -4 751 -3 l 761 117 l 735 117 b 696 164 707 117 696 128 l 696 451 b 389 756 696 643 589 756 b 71 517 214 756 99 664 l 222 507 b 389 631 242 588 294 631 b 549 460 494 631 549 574 l 294 411 b 58 185 132 379 58 311 b 311 -17 58 57 157 -17 z m 335 100 b 211 199 256 100 211 135 b 332 307 211 256 243 290 l 549 349 l 549 301 b 335 100 549 183 468 100 z "},"ā":{"ha":785,"x_min":0,"x_max":0,"o":"m 201 860 l 588 860 l 588 978 l 201 978 z m 311 -17 b 561 114 426 -17 524 36 b 707 -4 572 28 622 -4 b 761 0 729 -4 751 -3 l 761 117 l 735 117 b 696 164 707 117 696 128 l 696 451 b 389 756 696 643 589 756 b 71 517 214 756 99 664 l 222 507 b 389 631 242 588 294 631 b 549 460 494 631 549 574 l 294 411 b 58 185 132 379 58 311 b 311 -17 58 57 157 -17 z m 335 100 b 211 199 256 100 211 135 b 332 307 211 256 243 290 l 549 349 l 549 301 b 335 100 549 183 468 100 z "},"ą":{"ha":785,"x_min":0,"x_max":0,"o":"m 311 -17 b 561 114 426 -17 524 36 b 644 4 569 51 597 18 l 619 -29 b 543 -190 583 -79 543 -136 b 682 -294 543 -258 596 -294 b 811 -258 735 -294 789 -279 l 776 -172 b 711 -190 760 -183 736 -190 b 672 -156 689 -190 672 -178 b 715 -62 672 -132 683 -107 l 761 0 l 761 117 l 735 117 b 696 164 707 117 696 128 l 696 451 b 389 756 696 643 589 756 b 71 517 214 756 99 664 l 222 507 b 389 631 242 588 294 631 b 549 460 494 631 549 574 l 294 411 b 58 185 132 379 58 311 b 311 -17 58 57 157 -17 z m 335 100 b 211 199 256 100 211 135 b 332 307 211 256 243 290 l 549 349 l 549 301 b 335 100 549 183 468 100 z "},"å":{"ha":785,"x_min":0,"x_max":0,"o":"m 394 800 b 528 932 469 800 528 857 b 394 1064 528 1007 469 1064 b 263 932 319 1064 263 1007 b 394 800 263 857 319 800 z m 394 875 b 339 932 363 875 339 900 b 394 988 339 964 363 988 b 451 932 426 988 451 964 b 394 875 451 900 426 875 z m 311 -17 b 561 114 426 -17 524 36 b 707 -4 572 28 622 -4 b 761 0 729 -4 751 -3 l 761 117 l 735 117 b 696 164 707 117 696 128 l 696 451 b 389 756 696 643 589 756 b 71 517 214 756 99 664 l 222 507 b 389 631 242 588 294 631 b 549 460 494 631 549 574 l 294 411 b 58 185 132 379 58 311 b 311 -17 58 57 157 -17 z m 335 100 b 211 199 256 100 211 135 b 332 307 211 256 243 290 l 549 349 l 549 301 b 335 100 549 183 468 100 z "},"ã":{"ha":785,"x_min":0,"x_max":0,"o":"m 475 843 b 619 1021 561 843 615 910 l 536 1021 b 481 936 532 954 513 936 b 417 967 460 936 443 944 b 308 1008 383 993 353 1008 b 169 833 226 1008 171 946 l 251 833 b 310 915 256 897 278 915 b 375 882 335 915 347 906 b 475 843 407 856 438 843 z m 311 -17 b 561 114 426 -17 524 36 b 707 -4 572 28 622 -4 b 761 0 729 -4 751 -3 l 761 117 l 735 117 b 696 164 707 117 696 128 l 696 451 b 389 756 696 643 589 756 b 71 517 214 756 99 664 l 222 507 b 389 631 242 588 294 631 b 549 460 494 631 549 574 l 294 411 b 58 185 132 379 58 311 b 311 -17 58 57 157 -17 z m 335 100 b 211 199 256 100 211 135 b 332 307 211 256 243 290 l 549 349 l 549 301 b 335 100 549 183 468 100 z "},"æ":{"ha":1294,"x_min":0,"x_max":0,"o":"m 313 -17 b 608 142 450 -17 556 43 b 903 -17 667 42 769 -17 b 1226 213 1067 -17 1186 75 l 1072 222 b 904 110 1050 153 992 110 b 706 326 788 110 714 182 l 1238 326 l 1238 364 b 899 756 1238 613 1100 756 b 643 646 790 756 703 715 b 385 756 590 719 503 756 b 71 517 214 756 100 664 l 222 507 b 386 631 239 581 292 631 b 549 449 497 631 547 575 l 294 411 b 58 185 165 390 58 335 b 313 -17 58 53 164 -17 z m 706 438 b 899 631 722 563 793 631 b 1081 438 1000 631 1071 568 z m 354 99 b 211 199 256 94 211 133 b 332 307 211 251 235 293 l 549 338 l 549 300 b 354 99 549 172 465 104 z "},"b":{"ha":844,"x_min":0,"x_max":0,"o":"m 472 -17 b 786 369 665 -17 786 133 b 472 756 786 606 665 756 b 251 635 369 756 289 699 l 251 986 l 104 986 l 104 0 l 242 0 l 246 111 b 472 -17 288 31 369 -17 z m 449 111 b 251 369 325 111 251 210 b 450 628 251 532 325 628 b 633 369 563 628 633 532 b 449 111 633 210 561 111 z "},"c":{"ha":782,"x_min":0,"x_max":0,"o":"m 408 -17 b 739 263 589 -17 715 93 l 585 271 b 408 111 571 164 503 111 b 211 369 283 111 211 207 b 408 628 211 532 283 628 b 585 479 501 628 569 575 l 739 488 b 408 756 714 658 588 756 b 58 369 196 756 58 603 b 408 -17 58 136 196 -17 z "},"ć":{"ha":782,"x_min":0,"x_max":0,"o":"m 343 828 l 461 828 l 586 1014 l 432 1014 z m 408 -17 b 739 263 589 -17 715 93 l 585 271 b 408 111 571 164 503 111 b 211 369 283 111 211 207 b 408 628 211 532 283 628 b 585 479 501 628 569 575 l 739 488 b 408 756 714 658 588 756 b 58 369 196 756 58 603 b 408 -17 58 136 196 -17 z "},"č":{"ha":782,"x_min":0,"x_max":0,"o":"m 204 1021 l 332 828 l 486 828 l 614 1021 l 500 1021 l 408 897 l 318 1021 z m 408 -17 b 739 263 589 -17 715 93 l 585 271 b 408 111 571 164 503 111 b 211 369 283 111 211 207 b 408 628 211 532 283 628 b 585 479 501 628 569 575 l 739 488 b 408 756 714 658 588 756 b 58 369 196 756 58 603 b 408 -17 58 136 196 -17 z "},"ç":{"ha":782,"x_min":0,"x_max":0,"o":"m 397 -311 b 560 -175 489 -311 560 -260 b 426 -47 560 -104 517 -53 l 450 -15 b 739 263 608 0 717 106 l 585 271 b 408 111 571 164 503 111 b 211 369 283 111 211 207 b 408 628 211 532 283 628 b 585 479 501 628 569 575 l 739 488 b 408 756 714 658 588 756 b 58 369 196 756 58 603 b 354 -12 58 156 172 11 l 321 -67 l 365 -112 b 465 -172 449 -112 465 -137 b 393 -225 465 -206 439 -225 b 307 -169 349 -225 324 -208 l 229 -200 b 397 -311 250 -264 307 -311 z "},"ĉ":{"ha":782,"x_min":0,"x_max":0,"o":"m 204 828 l 318 828 l 408 951 l 500 828 l 614 828 l 486 1021 l 332 1021 z m 408 -17 b 739 263 589 -17 715 93 l 585 271 b 408 111 571 164 503 111 b 211 369 283 111 211 207 b 408 628 211 532 283 628 b 585 479 501 628 569 575 l 739 488 b 408 756 714 658 588 756 b 58 369 196 756 58 603 b 408 -17 58 136 196 -17 z "},"ċ":{"ha":782,"x_min":0,"x_max":0,"o":"m 332 846 l 486 846 l 486 993 l 332 993 z m 408 -17 b 739 263 589 -17 715 93 l 585 271 b 408 111 571 164 503 111 b 211 369 283 111 211 207 b 408 628 211 532 283 628 b 585 479 501 628 569 575 l 739 488 b 408 756 714 658 588 756 b 58 369 196 756 58 603 b 408 -17 58 136 196 -17 z "},"d":{"ha":844,"x_min":0,"x_max":0,"o":"m 367 -17 b 599 111 469 -17 557 31 l 603 0 l 740 0 l 740 986 l 593 986 l 593 635 b 367 756 553 711 468 756 b 58 369 178 756 58 606 b 367 -17 58 132 176 -17 z m 406 111 b 211 369 288 111 211 211 b 406 628 211 531 288 628 b 593 369 526 628 593 533 b 406 111 593 207 526 111 z "},"ď":{"ha":956,"x_min":0,"x_max":0,"o":"m 367 -17 b 599 111 469 -17 557 31 l 603 0 l 740 0 l 740 986 l 593 986 l 593 635 b 367 756 553 711 468 756 b 58 369 178 756 58 606 b 367 -17 58 132 176 -17 z m 810 618 l 915 618 l 989 986 l 851 986 z m 406 111 b 211 369 288 111 211 211 b 406 628 211 531 288 628 b 593 369 526 628 593 533 b 406 111 593 207 526 111 z "},"đ":{"ha":844,"x_min":0,"x_max":0,"o":"m 367 -17 b 599 111 469 -17 557 31 l 603 0 l 740 0 l 740 806 l 832 806 l 832 908 l 740 908 l 740 986 l 593 986 l 593 908 l 393 908 l 393 806 l 593 806 l 593 635 b 367 756 553 711 468 756 b 58 369 178 756 58 606 b 367 -17 58 132 176 -17 z m 406 111 b 211 369 288 111 211 211 b 406 628 211 531 288 628 b 593 369 526 628 593 533 b 406 111 593 207 526 111 z "},"ð":{"ha":817,"x_min":0,"x_max":0,"o":"m 408 -17 b 758 358 625 -17 758 117 b 622 831 758 547 719 714 l 768 885 l 733 976 l 544 906 b 271 1003 474 957 383 992 l 233 888 b 399 850 297 882 351 869 l 293 810 l 328 719 l 499 783 b 589 633 539 744 568 694 b 408 688 536 667 476 688 b 58 336 192 688 58 554 b 408 -17 58 117 192 -17 z m 408 110 b 211 336 283 110 211 193 b 408 561 211 478 283 561 b 606 347 533 561 606 478 b 408 110 606 189 533 110 z "},"e":{"ha":800,"x_min":0,"x_max":0,"o":"m 408 -17 b 731 213 571 -17 692 75 l 578 222 b 410 110 554 153 496 110 b 211 326 292 110 218 182 l 742 326 l 742 364 b 404 756 742 613 606 756 b 58 369 193 756 58 603 b 408 -17 58 136 193 -17 z m 211 438 b 404 631 228 563 299 631 b 586 438 504 631 576 568 z "},"é":{"ha":800,"x_min":0,"x_max":0,"o":"m 343 825 l 461 825 l 586 1011 l 432 1011 z m 408 -17 b 731 213 571 -17 692 75 l 578 222 b 410 110 554 153 496 110 b 211 326 292 110 218 182 l 742 326 l 742 364 b 404 756 742 613 606 756 b 58 369 193 756 58 603 b 408 -17 58 136 193 -17 z m 211 438 b 404 631 228 563 299 631 b 586 438 504 631 576 568 z "},"ě":{"ha":800,"x_min":0,"x_max":0,"o":"m 204 1018 l 332 825 l 486 825 l 614 1018 l 500 1018 l 408 894 l 318 1018 z m 408 -17 b 731 213 571 -17 692 75 l 578 222 b 410 110 554 153 496 110 b 211 326 292 110 218 182 l 742 326 l 742 364 b 404 756 742 613 606 756 b 58 369 193 756 58 603 b 408 -17 58 136 193 -17 z m 211 438 b 404 631 228 563 299 631 b 586 438 504 631 576 568 z "},"ê":{"ha":800,"x_min":0,"x_max":0,"o":"m 204 825 l 318 825 l 408 949 l 500 825 l 614 825 l 486 1018 l 332 1018 z m 408 -17 b 731 213 571 -17 692 75 l 578 222 b 410 110 554 153 496 110 b 211 326 292 110 218 182 l 742 326 l 742 364 b 404 756 742 613 606 756 b 58 369 193 756 58 603 b 408 -17 58 136 193 -17 z m 211 438 b 404 631 228 563 299 631 b 586 438 504 631 576 568 z "},"ë":{"ha":800,"x_min":0,"x_max":0,"o":"m 204 842 l 353 842 l 353 989 l 204 989 z m 465 842 l 613 842 l 613 989 l 465 989 z m 408 -17 b 731 213 571 -17 692 75 l 578 222 b 410 110 554 153 496 110 b 211 326 292 110 218 182 l 742 326 l 742 364 b 404 756 742 613 606 756 b 58 369 193 756 58 603 b 408 -17 58 136 193 -17 z m 211 438 b 404 631 228 563 299 631 b 586 438 504 631 576 568 z "},"ė":{"ha":800,"x_min":0,"x_max":0,"o":"m 332 843 l 486 843 l 486 990 l 332 990 z m 408 -17 b 731 213 571 -17 692 75 l 578 222 b 410 110 554 153 496 110 b 211 326 292 110 218 182 l 742 326 l 742 364 b 404 756 742 613 606 756 b 58 369 193 756 58 603 b 408 -17 58 136 193 -17 z m 211 438 b 404 631 228 563 299 631 b 586 438 504 631 576 568 z "},"è":{"ha":800,"x_min":0,"x_max":0,"o":"m 358 825 l 476 825 l 388 1011 l 233 1011 z m 408 -17 b 731 213 571 -17 692 75 l 578 222 b 410 110 554 153 496 110 b 211 326 292 110 218 182 l 742 326 l 742 364 b 404 756 742 613 606 756 b 58 369 193 756 58 603 b 408 -17 58 136 193 -17 z m 211 438 b 404 631 228 563 299 631 b 586 438 504 631 576 568 z "},"ē":{"ha":800,"x_min":0,"x_max":0,"o":"m 215 857 l 603 857 l 603 975 l 215 975 z m 408 -17 b 731 213 571 -17 692 75 l 578 222 b 410 110 554 153 496 110 b 211 326 292 110 218 182 l 742 326 l 742 364 b 404 756 742 613 606 756 b 58 369 193 756 58 603 b 408 -17 58 136 193 -17 z m 211 438 b 404 631 228 563 299 631 b 586 438 504 631 576 568 z "},"ę":{"ha":800,"x_min":0,"x_max":0,"o":"m 408 -17 b 454 -14 424 -17 439 -15 l 446 -25 b 382 -175 406 -69 382 -115 b 518 -294 382 -250 432 -294 b 646 -258 569 -294 624 -279 l 611 -172 b 546 -190 594 -183 571 -190 b 507 -149 524 -190 507 -178 b 554 -49 507 -121 521 -90 l 672 94 l 668 94 b 731 213 697 128 718 168 l 578 222 b 410 110 554 153 496 110 b 211 326 292 110 218 182 l 742 326 l 742 364 b 404 756 742 613 606 756 b 58 369 193 756 58 603 b 408 -17 58 136 193 -17 z m 211 438 b 404 631 228 563 299 631 b 586 438 504 631 576 568 z "},"ẽ":{"ha":800,"x_min":0,"x_max":0,"o":"m 489 840 b 633 1018 576 840 629 907 l 550 1018 b 494 933 546 951 526 933 b 431 964 474 933 457 942 b 322 1006 397 990 367 1006 b 183 831 240 1006 185 943 l 265 831 b 324 913 269 894 292 913 b 389 879 349 913 361 903 b 489 840 422 853 451 840 z m 408 -17 b 731 213 571 -17 692 75 l 578 222 b 410 110 554 153 496 110 b 211 326 292 110 218 182 l 742 326 l 742 364 b 404 756 742 613 606 756 b 58 369 193 756 58 603 b 408 -17 58 136 193 -17 z m 211 438 b 404 631 228 563 299 631 b 586 438 504 631 576 568 z "},"ə":{"ha":800,"x_min":0,"x_max":0,"o":"m 392 756 b 68 526 228 756 108 664 l 222 517 b 390 629 246 586 303 629 b 589 413 508 629 582 557 l 58 413 l 58 375 b 396 -17 58 126 194 -17 b 742 369 607 -17 742 136 b 392 756 742 603 607 756 z m 589 301 b 396 108 572 176 501 108 b 214 301 294 108 224 171 z "},"f":{"ha":572,"x_min":0,"x_max":0,"o":"m 179 0 l 326 0 l 326 618 l 511 618 l 511 739 l 326 739 l 326 778 b 411 865 326 833 353 865 l 522 865 l 522 986 l 390 986 b 179 786 246 986 179 908 l 179 739 l 76 739 l 76 618 l 179 618 z "},"g":{"ha":843,"x_min":0,"x_max":0,"o":"m 401 -225 b 739 58 608 -225 739 -124 l 739 739 l 597 739 l 597 622 b 371 756 561 704 476 756 b 58 396 188 756 58 607 b 376 38 58 183 190 38 b 592 161 472 38 556 86 l 592 54 b 401 -103 592 -53 524 -103 b 232 -3 297 -103 251 -65 l 79 -12 b 401 -225 111 -140 225 -225 z m 400 163 b 211 397 283 163 211 253 b 400 631 211 540 281 631 b 592 397 517 631 594 542 b 400 163 590 251 515 163 z "},"ğ":{"ha":843,"x_min":0,"x_max":0,"o":"m 406 832 b 607 1019 524 832 601 903 l 513 1019 b 406 928 504 956 467 928 b 297 1019 344 928 304 956 l 203 1019 b 406 832 208 903 286 832 z m 401 -225 b 739 58 608 -225 739 -124 l 739 739 l 597 739 l 597 622 b 371 756 561 704 476 756 b 58 396 188 756 58 607 b 376 38 58 183 190 38 b 592 161 472 38 556 86 l 592 54 b 401 -103 592 -53 524 -103 b 232 -3 297 -103 251 -65 l 79 -12 b 401 -225 111 -140 225 -225 z m 400 163 b 211 397 283 163 211 253 b 400 631 211 540 281 631 b 592 397 517 631 594 542 b 400 163 590 251 515 163 z "},"ǧ":{"ha":843,"x_min":0,"x_max":0,"o":"m 200 1021 l 328 828 l 482 828 l 610 1021 l 497 1021 l 406 897 l 314 1021 z m 401 -225 b 739 58 608 -225 739 -124 l 739 739 l 597 739 l 597 622 b 371 756 561 704 476 756 b 58 396 188 756 58 607 b 376 38 58 183 190 38 b 592 161 472 38 556 86 l 592 54 b 401 -103 592 -53 524 -103 b 232 -3 297 -103 251 -65 l 79 -12 b 401 -225 111 -140 225 -225 z m 400 163 b 211 397 283 163 211 253 b 400 631 211 540 281 631 b 592 397 517 631 594 542 b 400 163 590 251 515 163 z "},"ĝ":{"ha":843,"x_min":0,"x_max":0,"o":"m 200 828 l 314 828 l 406 951 l 497 828 l 610 828 l 482 1021 l 328 1021 z m 401 -225 b 739 58 608 -225 739 -124 l 739 739 l 597 739 l 597 622 b 371 756 561 704 476 756 b 58 396 188 756 58 607 b 376 38 58 183 190 38 b 592 161 472 38 556 86 l 592 54 b 401 -103 592 -53 524 -103 b 232 -3 297 -103 251 -65 l 79 -12 b 401 -225 111 -140 225 -225 z m 400 163 b 211 397 283 163 211 253 b 400 631 211 540 281 631 b 592 397 517 631 594 542 b 400 163 590 251 515 163 z "},"ģ":{"ha":843,"x_min":0,"x_max":0,"o":"m 328 832 l 481 832 l 481 969 l 431 969 l 506 1100 l 411 1100 l 328 957 z m 401 -225 b 739 58 608 -225 739 -124 l 739 739 l 597 739 l 597 622 b 371 756 561 704 476 756 b 58 396 188 756 58 607 b 376 38 58 183 190 38 b 592 161 472 38 556 86 l 592 54 b 401 -103 592 -53 524 -103 b 232 -3 297 -103 251 -65 l 79 -12 b 401 -225 111 -140 225 -225 z m 400 163 b 211 397 283 163 211 253 b 400 631 211 540 281 631 b 592 397 517 631 594 542 b 400 163 590 251 515 163 z "},"ġ":{"ha":843,"x_min":0,"x_max":0,"o":"m 329 846 l 482 846 l 482 993 l 329 993 z m 401 -225 b 739 58 608 -225 739 -124 l 739 739 l 597 739 l 597 622 b 371 756 561 704 476 756 b 58 396 188 756 58 607 b 376 38 58 183 190 38 b 592 161 472 38 556 86 l 592 54 b 401 -103 592 -53 524 -103 b 232 -3 297 -103 251 -65 l 79 -12 b 401 -225 111 -140 225 -225 z m 400 163 b 211 397 283 163 211 253 b 400 631 211 540 281 631 b 592 397 517 631 594 542 b 400 163 590 251 515 163 z "},"ḡ":{"ha":843,"x_min":0,"x_max":0,"o":"m 213 860 l 599 860 l 599 978 l 213 978 z m 401 -225 b 739 58 608 -225 739 -124 l 739 739 l 597 739 l 597 622 b 371 756 561 704 476 756 b 58 396 188 756 58 607 b 376 38 58 183 190 38 b 592 161 472 38 556 86 l 592 54 b 401 -103 592 -53 524 -103 b 232 -3 297 -103 251 -65 l 79 -12 b 401 -225 111 -140 225 -225 z m 400 163 b 211 397 283 163 211 253 b 400 631 211 540 281 631 b 592 397 517 631 594 542 b 400 163 590 251 515 163 z "},"ǥ":{"ha":882,"x_min":0,"x_max":0,"o":"m 401 -225 b 739 58 608 -225 739 -124 l 739 338 l 833 338 l 833 443 l 739 443 l 739 739 l 597 739 l 597 622 b 371 756 561 704 476 756 b 58 396 188 756 58 607 b 376 38 58 183 190 38 b 592 161 472 38 556 86 l 592 54 b 401 -103 592 -53 524 -103 b 232 -3 297 -103 251 -65 l 79 -12 b 401 -225 111 -140 225 -225 z m 400 163 b 211 397 283 163 211 253 b 400 631 211 540 281 631 b 589 443 504 631 576 560 l 346 443 l 346 338 l 586 338 b 400 163 568 228 499 163 z "},"h":{"ha":821,"x_min":0,"x_max":0,"o":"m 104 0 l 251 0 l 251 433 b 429 632 251 563 321 632 b 569 436 524 632 569 568 l 569 0 l 717 0 l 717 475 b 468 756 717 640 629 756 b 251 632 371 756 290 717 l 251 986 l 104 986 z "},"ħ":{"ha":821,"x_min":0,"x_max":0,"o":"m 104 0 l 251 0 l 251 433 b 429 632 251 563 321 632 b 569 436 524 632 569 568 l 569 0 l 717 0 l 717 475 b 468 756 717 640 629 756 b 251 632 371 756 290 717 l 251 806 l 447 806 l 447 908 l 251 908 l 251 986 l 104 986 l 104 908 l 8 908 l 8 806 l 104 806 z "},"ĥ":{"ha":821,"x_min":0,"x_max":0,"o":"m -26 1047 l 88 1047 l 179 1171 l 271 1047 l 383 1047 l 256 1240 l 101 1240 z m 104 0 l 251 0 l 251 433 b 429 632 251 563 321 632 b 569 436 524 632 569 568 l 569 0 l 717 0 l 717 475 b 468 756 717 640 629 756 b 251 632 371 756 290 717 l 251 986 l 104 986 z "},"i":{"ha":356,"x_min":0,"x_max":0,"o":"m 101 846 l 254 846 l 254 993 l 101 993 z m 104 0 l 251 0 l 251 739 l 104 739 z "},"ı":{"ha":356,"x_min":0,"x_max":0,"o":"m 104 0 l 251 0 l 251 739 l 104 739 z "},"í":{"ha":356,"x_min":0,"x_max":0,"o":"m 113 828 l 231 828 l 356 1014 l 200 1014 z m 104 0 l 251 0 l 251 739 l 104 739 z "},"î":{"ha":356,"x_min":0,"x_max":0,"o":"m -26 828 l 86 828 l 178 951 l 269 828 l 383 828 l 256 1021 l 101 1021 z m 104 0 l 251 0 l 251 739 l 104 739 z "},"ï":{"ha":356,"x_min":0,"x_max":0,"o":"m -26 844 l 122 844 l 122 992 l -26 992 z m 235 844 l 382 844 l 382 992 l 235 992 z m 104 0 l 251 0 l 251 739 l 104 739 z "},"ì":{"ha":356,"x_min":0,"x_max":0,"o":"m 128 828 l 244 828 l 157 1014 l 3 1014 z m 104 0 l 251 0 l 251 739 l 104 739 z "},"ī":{"ha":356,"x_min":0,"x_max":0,"o":"m -15 860 l 371 860 l 371 978 l -15 978 z m 104 0 l 251 0 l 251 739 l 104 739 z "},"į":{"ha":356,"x_min":0,"x_max":0,"o":"m 101 846 l 254 846 l 254 993 l 101 993 z m 104 0 l 132 0 l 110 -29 b 33 -190 74 -79 33 -136 b 172 -294 33 -258 86 -294 b 301 -258 225 -294 279 -279 l 267 -172 b 201 -190 250 -183 226 -190 b 163 -156 179 -190 163 -178 b 206 -62 163 -132 174 -107 l 251 0 l 251 739 l 104 739 z "},"ĩ":{"ha":356,"x_min":0,"x_max":0,"o":"m 258 843 b 403 1021 344 843 399 910 l 319 1021 b 264 936 315 954 296 936 b 200 967 243 936 226 944 b 92 1008 167 993 136 1008 b -47 833 10 1008 -46 946 l 35 833 b 93 915 39 897 61 915 b 158 882 118 915 131 906 b 258 843 190 856 221 843 z m 104 0 l 251 0 l 251 739 l 104 739 z "},"ĳ":{"ha":728,"x_min":0,"x_max":0,"o":"m 101 846 l 254 846 l 254 993 l 101 993 z m 474 846 l 626 846 l 626 993 l 474 993 z m 104 0 l 251 0 l 251 739 l 104 739 z m 328 -208 l 417 -208 b 624 -12 567 -208 624 -154 l 624 739 l 476 739 l 476 -7 b 394 -87 476 -69 446 -87 l 328 -87 z "},"j":{"ha":394,"x_min":0,"x_max":0,"o":"m 139 846 l 293 846 l 293 993 l 139 993 z m -6 -208 l 83 -208 b 290 -12 232 -208 290 -154 l 290 739 l 142 739 l 142 -7 b 61 -87 142 -69 111 -87 l -6 -87 z "},"ȷ":{"ha":394,"x_min":0,"x_max":0,"o":"m -6 -208 l 83 -208 b 290 -12 232 -208 290 -154 l 290 739 l 142 739 l 142 -7 b 61 -87 142 -69 111 -87 l -6 -87 z "},"ĵ":{"ha":394,"x_min":0,"x_max":0,"o":"m 11 828 l 125 828 l 217 951 l 307 828 l 421 828 l 293 1021 l 139 1021 z m -6 -208 l 83 -208 b 290 -12 232 -208 290 -154 l 290 739 l 142 739 l 142 -7 b 61 -87 142 -69 111 -87 l -6 -87 z "},"k":{"ha":846,"x_min":0,"x_max":0,"o":"m 104 0 l 251 0 l 251 197 l 382 336 l 611 0 l 781 0 l 481 428 l 769 739 l 583 739 l 251 374 l 251 986 l 104 986 z "},"ǩ":{"ha":846,"x_min":0,"x_max":0,"o":"m -26 1221 l 101 1028 l 256 1028 l 383 1221 l 269 1221 l 178 1097 l 86 1221 z m 104 0 l 251 0 l 251 197 l 382 336 l 611 0 l 781 0 l 481 428 l 769 739 l 583 739 l 251 374 l 251 986 l 104 986 z "},"ķ":{"ha":846,"x_min":0,"x_max":0,"o":"m 104 0 l 251 0 l 251 197 l 382 336 l 611 0 l 781 0 l 481 428 l 769 739 l 583 739 l 251 374 l 251 986 l 104 986 z m 318 -339 l 413 -339 l 496 -196 l 496 -72 l 343 -72 l 343 -208 l 393 -208 z "},"l":{"ha":392,"x_min":0,"x_max":0,"o":"m 265 0 l 361 0 l 361 121 l 303 121 b 251 171 269 121 251 136 l 251 986 l 104 986 l 104 157 b 265 0 104 47 168 0 z "},"ĺ":{"ha":392,"x_min":0,"x_max":0,"o":"m 113 1028 l 231 1028 l 356 1214 l 200 1214 z m 265 0 l 361 0 l 361 121 l 303 121 b 251 171 269 121 251 136 l 251 986 l 104 986 l 104 157 b 265 0 104 47 168 0 z "},"ľ":{"ha":475,"x_min":0,"x_max":0,"o":"m 265 0 l 361 0 l 361 121 l 303 121 b 251 171 269 121 251 136 l 251 986 l 104 986 l 104 157 b 265 0 104 47 168 0 z m 329 618 l 435 618 l 508 986 l 371 986 z "},"ļ":{"ha":392,"x_min":0,"x_max":0,"o":"m 265 0 l 361 0 l 361 121 l 303 121 b 251 171 269 121 251 136 l 251 986 l 104 986 l 104 157 b 265 0 104 47 168 0 z m 136 -339 l 231 -339 l 314 -196 l 314 -72 l 161 -72 l 161 -208 l 211 -208 z "},"ł":{"ha":392,"x_min":0,"x_max":0,"o":"m 265 0 l 361 0 l 361 121 l 303 121 b 251 171 269 121 251 136 l 251 535 l 361 586 l 361 692 l 251 640 l 251 986 l 104 986 l 104 572 l 7 525 l 7 419 l 104 465 l 104 157 b 265 0 104 47 168 0 z "},"m":{"ha":1229,"x_min":0,"x_max":0,"o":"m 104 0 l 251 0 l 251 433 b 406 632 251 557 311 632 b 543 433 504 632 543 558 l 543 0 l 683 0 l 683 433 b 836 632 683 558 743 632 b 976 439 931 632 976 567 l 976 0 l 1124 0 l 1124 475 b 879 756 1124 656 1035 756 b 665 603 774 756 699 701 b 447 756 633 699 557 756 b 242 613 354 756 278 703 l 239 739 l 104 739 z "},"n":{"ha":821,"x_min":0,"x_max":0,"o":"m 104 0 l 251 0 l 251 431 b 426 632 251 561 322 632 b 569 431 529 632 569 561 l 569 0 l 717 0 l 717 475 b 467 756 717 636 632 756 b 242 610 365 756 281 711 l 239 739 l 104 739 z "},"ń":{"ha":821,"x_min":0,"x_max":0,"o":"m 344 828 l 463 828 l 588 1014 l 433 1014 z m 104 0 l 251 0 l 251 431 b 426 632 251 561 322 632 b 569 431 529 632 569 561 l 569 0 l 717 0 l 717 475 b 467 756 717 636 632 756 b 242 610 365 756 281 711 l 239 739 l 104 739 z "},"ň":{"ha":821,"x_min":0,"x_max":0,"o":"m 206 1021 l 333 828 l 488 828 l 615 1021 l 503 1021 l 411 897 l 319 1021 z m 104 0 l 251 0 l 251 431 b 426 632 251 561 322 632 b 569 431 529 632 569 561 l 569 0 l 717 0 l 717 475 b 467 756 717 636 632 756 b 242 610 365 756 281 711 l 239 739 l 104 739 z "},"ņ":{"ha":821,"x_min":0,"x_max":0,"o":"m 104 0 l 251 0 l 251 431 b 426 632 251 561 322 632 b 569 431 529 632 569 561 l 569 0 l 717 0 l 717 475 b 467 756 717 636 632 756 b 242 610 365 756 281 711 l 239 739 l 104 739 z m 308 -339 l 403 -339 l 488 -196 l 488 -72 l 335 -72 l 335 -208 l 383 -208 z "},"ñ":{"ha":821,"x_min":0,"x_max":0,"o":"m 492 843 b 635 1021 578 843 631 910 l 553 1021 b 496 936 547 954 529 936 b 432 967 476 936 460 944 b 324 1008 399 993 368 1008 b 185 833 242 1008 188 946 l 268 833 b 325 915 271 897 294 915 b 392 882 350 915 363 906 b 492 843 424 856 453 843 z m 104 0 l 251 0 l 251 431 b 426 632 251 561 322 632 b 569 431 529 632 569 561 l 569 0 l 717 0 l 717 475 b 467 756 717 636 632 756 b 242 610 365 756 281 711 l 239 739 l 104 739 z "},"ŋ":{"ha":821,"x_min":0,"x_max":0,"o":"m 104 0 l 251 0 l 251 431 b 426 632 251 561 322 632 b 569 431 529 632 569 561 l 569 -3 b 482 -93 569 -57 536 -93 l 378 -93 l 378 -208 l 500 -208 b 717 -8 633 -208 717 -128 l 717 475 b 467 756 717 636 632 756 b 242 610 365 756 281 711 l 239 739 l 104 739 z "},"o":{"ha":817,"x_min":0,"x_max":0,"o":"m 408 -17 b 758 369 619 -17 758 135 b 408 756 758 604 619 756 b 58 369 197 756 58 604 b 408 -17 58 135 197 -17 z m 408 111 b 211 369 283 111 211 207 b 408 628 211 532 283 628 b 606 369 533 628 606 532 b 408 111 606 207 533 111 z "},"ó":{"ha":817,"x_min":0,"x_max":0,"o":"m 343 828 l 461 828 l 586 1014 l 432 1014 z m 408 -17 b 758 369 619 -17 758 135 b 408 756 758 604 619 756 b 58 369 197 756 58 604 b 408 -17 58 135 197 -17 z m 408 111 b 211 369 283 111 211 207 b 408 628 211 532 283 628 b 606 369 533 628 606 532 b 408 111 606 207 533 111 z "},"ô":{"ha":817,"x_min":0,"x_max":0,"o":"m 204 828 l 318 828 l 408 951 l 500 828 l 614 828 l 486 1021 l 332 1021 z m 408 -17 b 758 369 619 -17 758 135 b 408 756 758 604 619 756 b 58 369 197 756 58 604 b 408 -17 58 135 197 -17 z m 408 111 b 211 369 283 111 211 207 b 408 628 211 532 283 628 b 606 369 533 628 606 532 b 408 111 606 207 533 111 z "},"ö":{"ha":817,"x_min":0,"x_max":0,"o":"m 204 844 l 353 844 l 353 992 l 204 992 z m 465 844 l 613 844 l 613 992 l 465 992 z m 408 -17 b 758 369 619 -17 758 135 b 408 756 758 604 619 756 b 58 369 197 756 58 604 b 408 -17 58 135 197 -17 z m 408 111 b 211 369 283 111 211 207 b 408 628 211 532 283 628 b 606 369 533 628 606 532 b 408 111 606 207 533 111 z "},"ò":{"ha":817,"x_min":0,"x_max":0,"o":"m 358 828 l 476 828 l 388 1014 l 233 1014 z m 408 -17 b 758 369 619 -17 758 135 b 408 756 758 604 619 756 b 58 369 197 756 58 604 b 408 -17 58 135 197 -17 z m 408 111 b 211 369 283 111 211 207 b 408 628 211 532 283 628 b 606 369 533 628 606 532 b 408 111 606 207 533 111 z "},"ő":{"ha":817,"x_min":0,"x_max":0,"o":"m 244 828 l 363 828 l 488 1014 l 333 1014 z m 449 828 l 567 828 l 692 1014 l 536 1014 z m 408 -17 b 758 369 619 -17 758 135 b 408 756 758 604 619 756 b 58 369 197 756 58 604 b 408 -17 58 135 197 -17 z m 408 111 b 211 369 283 111 211 207 b 408 628 211 532 283 628 b 606 369 533 628 606 532 b 408 111 606 207 533 111 z "},"ō":{"ha":817,"x_min":0,"x_max":0,"o":"m 215 860 l 603 860 l 603 978 l 215 978 z m 408 -17 b 758 369 619 -17 758 135 b 408 756 758 604 619 756 b 58 369 197 756 58 604 b 408 -17 58 135 197 -17 z m 408 111 b 211 369 283 111 211 207 b 408 628 211 532 283 628 b 606 369 533 628 606 532 b 408 111 606 207 533 111 z "},"ø":{"ha":817,"x_min":0,"x_max":0,"o":"m 86 -19 l 197 -19 l 229 28 b 408 -17 281 -1 340 -17 b 758 369 619 -17 758 135 b 660 654 758 489 722 588 l 731 758 l 619 758 l 588 711 b 408 756 538 740 476 756 b 58 369 197 756 58 604 b 157 85 58 250 94 151 z m 211 369 b 408 628 211 532 283 628 b 511 600 449 628 483 618 l 243 210 b 211 369 222 251 211 306 z m 408 111 b 306 139 369 111 335 121 l 574 529 b 606 369 594 488 606 433 b 408 111 606 207 533 111 z "},"õ":{"ha":817,"x_min":0,"x_max":0,"o":"m 489 843 b 633 1021 576 843 629 910 l 550 1021 b 494 936 546 954 526 936 b 431 967 474 936 457 944 b 322 1008 397 993 367 1008 b 183 833 240 1008 185 946 l 265 833 b 324 915 269 897 292 915 b 389 882 349 915 361 906 b 489 843 422 856 451 843 z m 408 -17 b 758 369 619 -17 758 135 b 408 756 758 604 619 756 b 58 369 197 756 58 604 b 408 -17 58 135 197 -17 z m 408 111 b 211 369 283 111 211 207 b 408 628 211 532 283 628 b 606 369 533 628 606 532 b 408 111 606 207 533 111 z "},"œ":{"ha":1349,"x_min":0,"x_max":0,"o":"m 408 -17 b 682 113 526 -17 621 31 b 957 -17 743 31 838 -17 b 1281 213 1121 -17 1240 75 l 1126 222 b 958 110 1104 153 1046 110 b 760 326 842 110 768 182 l 1292 326 l 1292 364 b 953 756 1292 613 1154 756 b 682 628 836 756 743 708 b 408 756 621 708 526 756 b 58 369 197 756 58 604 b 408 -17 58 135 197 -17 z m 760 438 b 953 631 776 563 847 631 b 1135 438 1054 631 1125 568 z m 408 111 b 211 369 283 111 211 207 b 408 628 211 532 283 628 b 606 369 533 628 606 532 b 408 111 606 207 533 111 z "},"p":{"ha":844,"x_min":0,"x_max":0,"o":"m 104 -208 l 251 -208 l 251 100 b 469 -17 292 28 375 -17 b 786 369 685 -17 786 161 b 469 756 786 578 686 756 b 246 626 371 756 289 711 l 243 739 l 104 739 z m 443 111 b 251 369 324 111 251 199 b 443 628 251 540 325 628 b 633 369 561 628 633 532 b 443 111 633 207 561 111 z "},"þ":{"ha":840,"x_min":0,"x_max":0,"o":"m 104 -208 l 254 -208 l 254 81 b 465 -17 297 19 368 -17 b 782 369 678 -17 782 161 b 465 756 782 578 678 756 b 254 656 365 756 294 719 l 254 986 l 104 986 z m 435 115 b 242 369 299 115 242 240 b 435 628 242 504 299 628 b 629 369 574 628 629 506 b 435 115 629 238 574 115 z "},"q":{"ha":844,"x_min":0,"x_max":0,"o":"m 740 -208 l 740 739 l 601 739 l 599 626 b 375 756 556 711 474 756 b 58 369 158 756 58 578 b 375 -17 58 161 160 -17 b 593 100 469 -17 553 28 l 593 -208 z m 401 111 b 211 369 283 111 211 207 b 401 628 211 532 283 628 b 593 369 519 628 593 540 b 401 111 593 199 521 111 z "},"r":{"ha":547,"x_min":0,"x_max":0,"o":"m 104 0 l 251 0 l 251 436 b 419 607 251 553 307 607 l 490 607 l 490 739 l 419 739 b 243 599 329 739 271 696 l 239 739 l 104 739 z "},"ŕ":{"ha":547,"x_min":0,"x_max":0,"o":"m 222 828 l 340 828 l 465 1014 l 311 1014 z m 104 0 l 251 0 l 251 436 b 419 607 251 553 307 607 l 490 607 l 490 739 l 419 739 b 243 599 329 739 271 696 l 239 739 l 104 739 z "},"ř":{"ha":547,"x_min":0,"x_max":0,"o":"m 83 1021 l 211 828 l 365 828 l 493 1021 l 381 1021 l 289 897 l 197 1021 z m 104 0 l 251 0 l 251 436 b 419 607 251 553 307 607 l 490 607 l 490 739 l 419 739 b 243 599 329 739 271 696 l 239 739 l 104 739 z "},"ŗ":{"ha":547,"x_min":0,"x_max":0,"o":"m 104 0 l 251 0 l 251 436 b 419 607 251 553 307 607 l 490 607 l 490 739 l 419 739 b 243 599 329 739 271 696 l 239 739 l 104 739 z m 76 -339 l 171 -339 l 254 -196 l 254 -72 l 101 -72 l 101 -208 l 151 -208 z "},"s":{"ha":746,"x_min":0,"x_max":0,"o":"m 389 -17 b 685 201 565 -17 685 63 b 393 421 685 322 617 383 b 238 532 274 440 238 467 b 379 632 238 590 283 632 b 536 504 488 632 531 574 l 688 513 b 382 756 674 642 586 756 b 85 526 189 756 85 661 b 364 303 85 406 149 343 b 532 200 504 278 532 254 b 389 107 532 135 481 107 b 210 240 271 107 224 158 l 58 233 b 389 -17 69 88 174 -17 z "},"ś":{"ha":746,"x_min":0,"x_max":0,"o":"m 306 828 l 422 828 l 547 1014 l 393 1014 z m 389 -17 b 685 201 565 -17 685 63 b 393 421 685 322 617 383 b 238 532 274 440 238 467 b 379 632 238 590 283 632 b 536 504 488 632 531 574 l 688 513 b 382 756 674 642 586 756 b 85 526 189 756 85 661 b 364 303 85 406 149 343 b 532 200 504 278 532 254 b 389 107 532 135 481 107 b 210 240 271 107 224 158 l 58 233 b 389 -17 69 88 174 -17 z "},"š":{"ha":746,"x_min":0,"x_max":0,"o":"m 167 1021 l 294 828 l 447 828 l 575 1021 l 463 1021 l 371 897 l 279 1021 z m 389 -17 b 685 201 565 -17 685 63 b 393 421 685 322 617 383 b 238 532 274 440 238 467 b 379 632 238 590 283 632 b 536 504 488 632 531 574 l 688 513 b 382 756 674 642 586 756 b 85 526 189 756 85 661 b 364 303 85 406 149 343 b 532 200 504 278 532 254 b 389 107 532 135 481 107 b 210 240 271 107 224 158 l 58 233 b 389 -17 69 88 174 -17 z "},"ş":{"ha":746,"x_min":0,"x_max":0,"o":"m 368 -311 b 531 -175 461 -311 531 -260 b 397 -47 531 -104 489 -53 l 421 -15 b 685 201 579 -7 685 71 b 393 421 685 322 617 383 b 238 532 274 440 238 467 b 379 632 238 590 283 632 b 536 504 488 632 531 574 l 688 513 b 382 756 674 642 586 756 b 85 526 189 756 85 661 b 364 303 85 406 149 343 b 532 200 504 278 532 254 b 389 107 532 135 481 107 b 210 240 271 107 224 158 l 58 233 b 325 -14 68 103 153 6 l 292 -67 l 338 -112 b 438 -172 421 -112 438 -137 b 365 -225 438 -206 410 -225 b 279 -169 321 -225 294 -208 l 201 -200 b 368 -311 222 -264 278 -311 z "},"ŝ":{"ha":746,"x_min":0,"x_max":0,"o":"m 167 828 l 279 828 l 371 951 l 463 828 l 575 828 l 447 1021 l 294 1021 z m 389 -17 b 685 201 565 -17 685 63 b 393 421 685 322 617 383 b 238 532 274 440 238 467 b 379 632 238 590 283 632 b 536 504 488 632 531 574 l 688 513 b 382 756 674 642 586 756 b 85 526 189 756 85 661 b 364 303 85 406 149 343 b 532 200 504 278 532 254 b 389 107 532 135 481 107 b 210 240 271 107 224 158 l 58 233 b 389 -17 69 88 174 -17 z "},"ș":{"ha":746,"x_min":0,"x_max":0,"o":"m 389 -17 b 685 201 565 -17 685 63 b 393 421 685 322 617 383 b 238 532 274 440 238 467 b 379 632 238 590 283 632 b 536 504 488 632 531 574 l 688 513 b 382 756 674 642 586 756 b 85 526 189 756 85 661 b 364 303 85 406 149 343 b 532 200 504 278 532 254 b 389 107 532 135 481 107 b 210 240 271 107 224 158 l 58 233 b 389 -17 69 88 174 -17 z m 279 -339 l 374 -339 l 457 -196 l 457 -72 l 304 -72 l 304 -208 l 354 -208 z "},"ß":{"ha":847,"x_min":0,"x_max":0,"o":"m 104 0 l 251 0 l 251 679 b 429 868 251 797 321 868 b 586 732 533 868 586 813 b 417 586 586 643 522 586 l 357 586 l 357 456 l 421 456 b 643 290 568 456 643 396 b 433 132 643 183 568 132 l 344 132 l 344 0 l 433 0 b 796 278 665 0 796 104 b 579 531 796 406 711 500 b 735 740 675 561 735 638 b 429 1000 735 897 621 1000 b 104 679 231 1000 104 879 z "},"t":{"ha":569,"x_min":0,"x_max":0,"o":"m 388 0 l 525 0 l 525 121 l 419 121 b 329 211 358 121 329 142 l 329 618 l 525 618 l 525 739 l 329 739 l 329 913 l 182 913 l 182 739 l 69 739 l 69 618 l 182 618 l 182 200 b 388 0 182 61 247 0 z "},"ŧ":{"ha":569,"x_min":0,"x_max":0,"o":"m 71 347 l 182 347 l 182 200 b 388 0 182 61 247 0 l 525 0 l 525 121 l 419 121 b 329 211 358 121 329 142 l 329 347 l 513 347 l 513 451 l 329 451 l 329 618 l 525 618 l 525 739 l 329 739 l 329 913 l 182 913 l 182 739 l 69 739 l 69 618 l 182 618 l 182 451 l 71 451 z "},"ť":{"ha":578,"x_min":0,"x_max":0,"o":"m 422 769 l 524 769 l 597 1068 l 464 1068 z m 388 0 l 525 0 l 525 121 l 419 121 b 329 211 358 121 329 142 l 329 618 l 525 618 l 525 739 l 329 739 l 329 913 l 182 913 l 182 739 l 69 739 l 69 618 l 182 618 l 182 200 b 388 0 182 61 247 0 z "},"ţ":{"ha":569,"x_min":0,"x_max":0,"o":"m 326 -311 b 488 -175 418 -311 488 -260 b 354 -47 488 -104 446 -53 l 389 0 l 525 0 l 525 121 l 419 121 b 329 211 358 121 329 142 l 329 618 l 525 618 l 525 739 l 329 739 l 329 913 l 182 913 l 182 739 l 69 739 l 69 618 l 182 618 l 182 200 b 299 11 182 96 219 35 l 250 -67 l 294 -112 b 394 -172 378 -112 394 -137 b 322 -225 394 -206 368 -225 b 236 -169 278 -225 251 -208 l 158 -200 b 326 -311 179 -264 236 -311 z "},"ț":{"ha":569,"x_min":0,"x_max":0,"o":"m 388 0 l 525 0 l 525 121 l 419 121 b 329 211 358 121 329 142 l 329 618 l 525 618 l 525 739 l 329 739 l 329 913 l 182 913 l 182 739 l 69 739 l 69 618 l 182 618 l 182 200 b 388 0 182 61 247 0 z m 236 -339 l 331 -339 l 414 -196 l 414 -72 l 261 -72 l 261 -208 l 311 -208 z "},"u":{"ha":814,"x_min":0,"x_max":0,"o":"m 347 -17 b 571 121 454 -17 532 31 l 572 0 l 710 0 l 710 739 l 563 739 l 563 306 b 392 107 563 179 499 107 b 251 301 297 107 251 167 l 251 739 l 104 739 l 104 264 b 347 -17 104 88 197 -17 z "},"ú":{"ha":814,"x_min":0,"x_max":0,"o":"m 336 828 l 454 828 l 579 1014 l 425 1014 z m 347 -17 b 571 121 454 -17 532 31 l 572 0 l 710 0 l 710 739 l 563 739 l 563 306 b 392 107 563 179 499 107 b 251 301 297 107 251 167 l 251 739 l 104 739 l 104 264 b 347 -17 104 88 197 -17 z "},"ŭ":{"ha":814,"x_min":0,"x_max":0,"o":"m 403 832 b 604 1019 521 832 599 903 l 510 1019 b 403 928 501 956 464 928 b 294 1019 342 928 301 956 l 200 1019 b 403 832 206 903 283 832 z m 347 -17 b 571 121 454 -17 532 31 l 572 0 l 710 0 l 710 739 l 563 739 l 563 306 b 392 107 563 179 499 107 b 251 301 297 107 251 167 l 251 739 l 104 739 l 104 264 b 347 -17 104 88 197 -17 z "},"û":{"ha":814,"x_min":0,"x_max":0,"o":"m 197 828 l 311 828 l 403 951 l 494 828 l 607 828 l 479 1021 l 325 1021 z m 347 -17 b 571 121 454 -17 532 31 l 572 0 l 710 0 l 710 739 l 563 739 l 563 306 b 392 107 563 179 499 107 b 251 301 297 107 251 167 l 251 739 l 104 739 l 104 264 b 347 -17 104 88 197 -17 z "},"ü":{"ha":814,"x_min":0,"x_max":0,"o":"m 199 844 l 346 844 l 346 992 l 199 992 z m 458 844 l 607 844 l 607 992 l 458 992 z m 347 -17 b 571 121 454 -17 532 31 l 572 0 l 710 0 l 710 739 l 563 739 l 563 306 b 392 107 563 179 499 107 b 251 301 297 107 251 167 l 251 739 l 104 739 l 104 264 b 347 -17 104 88 197 -17 z "},"ù":{"ha":814,"x_min":0,"x_max":0,"o":"m 351 828 l 469 828 l 381 1014 l 226 1014 z m 347 -17 b 571 121 454 -17 532 31 l 572 0 l 710 0 l 710 739 l 563 739 l 563 306 b 392 107 563 179 499 107 b 251 301 297 107 251 167 l 251 739 l 104 739 l 104 264 b 347 -17 104 88 197 -17 z "},"ű":{"ha":814,"x_min":0,"x_max":0,"o":"m 239 828 l 357 828 l 482 1014 l 326 1014 z m 442 828 l 560 828 l 685 1014 l 531 1014 z m 347 -17 b 571 121 454 -17 532 31 l 572 0 l 710 0 l 710 739 l 563 739 l 563 306 b 392 107 563 179 499 107 b 251 301 297 107 251 167 l 251 739 l 104 739 l 104 264 b 347 -17 104 88 197 -17 z "},"ū":{"ha":814,"x_min":0,"x_max":0,"o":"m 210 860 l 596 860 l 596 978 l 210 978 z m 347 -17 b 571 121 454 -17 532 31 l 572 0 l 710 0 l 710 739 l 563 739 l 563 306 b 392 107 563 179 499 107 b 251 301 297 107 251 167 l 251 739 l 104 739 l 104 264 b 347 -17 104 88 197 -17 z "},"ų":{"ha":814,"x_min":0,"x_max":0,"o":"m 347 -17 b 571 121 454 -17 532 31 l 572 0 l 589 0 l 567 -29 b 492 -190 531 -79 492 -136 b 629 -294 492 -258 544 -294 b 758 -258 682 -294 736 -279 l 724 -172 b 658 -190 707 -183 683 -190 b 619 -156 636 -190 619 -178 b 663 -62 619 -132 631 -107 l 710 0 l 710 739 l 563 739 l 563 306 b 392 107 563 179 499 107 b 251 301 297 107 251 167 l 251 739 l 104 739 l 104 264 b 347 -17 104 88 197 -17 z "},"ů":{"ha":814,"x_min":0,"x_max":0,"o":"m 403 800 b 535 932 478 800 535 857 b 403 1064 535 1007 478 1064 b 269 932 328 1064 269 1007 b 403 800 269 857 328 800 z m 403 875 b 346 932 371 875 346 900 b 403 988 346 964 371 988 b 458 932 435 988 458 964 b 403 875 458 900 435 875 z m 347 -17 b 571 121 454 -17 532 31 l 572 0 l 710 0 l 710 739 l 563 739 l 563 306 b 392 107 563 179 499 107 b 251 301 297 107 251 167 l 251 739 l 104 739 l 104 264 b 347 -17 104 88 197 -17 z "},"ũ":{"ha":814,"x_min":0,"x_max":0,"o":"m 468 843 b 613 1021 554 843 608 910 l 529 1021 b 474 936 525 954 506 936 b 410 967 453 936 436 944 b 301 1008 376 993 346 1008 b 163 833 219 1008 164 946 l 244 833 b 303 915 249 897 271 915 b 368 882 328 915 340 906 b 468 843 400 856 431 843 z m 347 -17 b 571 121 454 -17 532 31 l 572 0 l 710 0 l 710 739 l 563 739 l 563 306 b 392 107 563 179 499 107 b 251 301 297 107 251 167 l 251 739 l 104 739 l 104 264 b 347 -17 104 88 197 -17 z "},"v":{"ha":778,"x_min":0,"x_max":0,"o":"m 300 0 l 478 0 l 749 739 l 590 739 l 389 150 l 188 739 l 31 739 z "},"w":{"ha":1151,"x_min":0,"x_max":0,"o":"m 256 0 l 419 0 l 575 528 l 731 0 l 896 0 l 1121 739 l 967 739 l 807 161 l 644 739 l 506 739 l 343 161 l 185 739 l 31 739 z "},"ẃ":{"ha":1151,"x_min":0,"x_max":0,"o":"m 511 828 l 628 828 l 753 1014 l 599 1014 z m 256 0 l 419 0 l 575 528 l 731 0 l 896 0 l 1121 739 l 967 739 l 807 161 l 644 739 l 506 739 l 343 161 l 185 739 l 31 739 z "},"ŵ":{"ha":1151,"x_min":0,"x_max":0,"o":"m 372 828 l 485 828 l 576 951 l 668 828 l 781 828 l 653 1021 l 500 1021 z m 256 0 l 419 0 l 575 528 l 731 0 l 896 0 l 1121 739 l 967 739 l 807 161 l 644 739 l 506 739 l 343 161 l 185 739 l 31 739 z "},"ẅ":{"ha":1151,"x_min":0,"x_max":0,"o":"m 372 844 l 519 844 l 519 992 l 372 992 z m 633 844 l 781 844 l 781 992 l 633 992 z m 256 0 l 419 0 l 575 528 l 731 0 l 896 0 l 1121 739 l 967 739 l 807 161 l 644 739 l 506 739 l 343 161 l 185 739 l 31 739 z "},"ẁ":{"ha":1151,"x_min":0,"x_max":0,"o":"m 525 828 l 643 828 l 556 1014 l 400 1014 z m 256 0 l 419 0 l 575 528 l 731 0 l 896 0 l 1121 739 l 967 739 l 807 161 l 644 739 l 506 739 l 343 161 l 185 739 l 31 739 z "},"x":{"ha":843,"x_min":0,"x_max":0,"o":"m 65 0 l 232 0 l 424 282 l 614 0 l 778 0 l 513 375 l 767 739 l 599 739 l 422 474 l 240 739 l 76 739 l 333 378 z "},"y":{"ha":768,"x_min":0,"x_max":0,"o":"m 146 -208 l 257 -208 b 444 -86 361 -208 414 -171 l 739 739 l 582 739 l 389 158 l 186 739 l 31 739 l 297 22 l 343 22 l 319 -39 b 236 -87 306 -74 286 -87 l 146 -87 z "},"ý":{"ha":768,"x_min":0,"x_max":0,"o":"m 319 828 l 438 828 l 563 1014 l 408 1014 z m 146 -208 l 257 -208 b 444 -86 361 -208 414 -171 l 739 739 l 582 739 l 389 158 l 186 739 l 31 739 l 297 22 l 343 22 l 319 -39 b 236 -87 306 -74 286 -87 l 146 -87 z "},"ŷ":{"ha":768,"x_min":0,"x_max":0,"o":"m 181 828 l 294 828 l 385 951 l 476 828 l 590 828 l 463 1021 l 308 1021 z m 146 -208 l 257 -208 b 444 -86 361 -208 414 -171 l 739 739 l 582 739 l 389 158 l 186 739 l 31 739 l 297 22 l 343 22 l 319 -39 b 236 -87 306 -74 286 -87 l 146 -87 z "},"ÿ":{"ha":768,"x_min":0,"x_max":0,"o":"m 181 844 l 329 844 l 329 992 l 181 992 z m 442 844 l 589 844 l 589 992 l 442 992 z m 146 -208 l 257 -208 b 444 -86 361 -208 414 -171 l 739 739 l 582 739 l 389 158 l 186 739 l 31 739 l 297 22 l 343 22 l 319 -39 b 236 -87 306 -74 286 -87 l 146 -87 z "},"ỳ":{"ha":768,"x_min":0,"x_max":0,"o":"m 335 828 l 453 828 l 364 1014 l 210 1014 z m 146 -208 l 257 -208 b 444 -86 361 -208 414 -171 l 739 739 l 582 739 l 389 158 l 186 739 l 31 739 l 297 22 l 343 22 l 319 -39 b 236 -87 306 -74 286 -87 l 146 -87 z "},"ỹ":{"ha":768,"x_min":0,"x_max":0,"o":"m 465 843 b 610 1021 553 843 606 910 l 526 1021 b 471 936 522 954 503 936 b 407 967 450 936 433 944 b 299 1008 374 993 343 1008 b 160 833 217 1008 161 946 l 242 833 b 300 915 246 897 268 915 b 365 882 325 915 338 906 b 465 843 399 856 428 843 z m 146 -208 l 257 -208 b 444 -86 361 -208 414 -171 l 739 739 l 582 739 l 389 158 l 186 739 l 31 739 l 297 22 l 343 22 l 319 -39 b 236 -87 306 -74 286 -87 l 146 -87 z "},"z":{"ha":767,"x_min":0,"x_max":0,"o":"m 71 0 l 697 0 l 697 121 l 236 121 l 686 607 l 686 739 l 85 739 l 85 618 l 517 618 l 71 132 z "},"ź":{"ha":767,"x_min":0,"x_max":0,"o":"m 321 828 l 439 828 l 564 1014 l 408 1014 z m 71 0 l 697 0 l 697 121 l 236 121 l 686 607 l 686 739 l 85 739 l 85 618 l 517 618 l 71 132 z "},"ž":{"ha":767,"x_min":0,"x_max":0,"o":"m 182 1021 l 310 828 l 464 828 l 592 1021 l 478 1021 l 386 897 l 294 1021 z m 71 0 l 697 0 l 697 121 l 236 121 l 686 607 l 686 739 l 85 739 l 85 618 l 517 618 l 71 132 z "},"ż":{"ha":767,"x_min":0,"x_max":0,"o":"m 310 846 l 463 846 l 463 993 l 310 993 z m 71 0 l 697 0 l 697 121 l 236 121 l 686 607 l 686 739 l 85 739 l 85 618 l 517 618 l 71 132 z "},"ꞌ":{"ha":347,"x_min":0,"x_max":0,"o":"m 122 504 l 225 504 l 243 865 l 243 986 l 104 986 l 104 865 z "},"ﬁ":{"ha":879,"x_min":0,"x_max":0,"o":"m 625 846 l 778 846 l 778 993 l 625 993 z m 179 0 l 326 0 l 326 618 l 511 618 l 511 739 l 326 739 l 326 778 b 411 865 326 833 353 865 l 522 865 l 522 986 l 390 986 b 179 786 246 986 179 908 l 179 739 l 76 739 l 76 618 l 179 618 z m 628 0 l 775 0 l 775 739 l 628 739 z "},"ﬂ":{"ha":939,"x_min":0,"x_max":0,"o":"m 179 0 l 326 0 l 326 618 l 511 618 l 511 739 l 326 739 l 326 778 b 411 865 326 833 353 865 l 522 865 l 522 986 l 390 986 b 179 786 246 986 179 908 l 179 739 l 76 739 l 76 618 l 179 618 z m 813 0 l 908 0 l 908 121 l 849 121 b 799 171 815 121 799 136 l 799 986 l 651 986 l 651 157 b 813 0 651 47 715 0 z "},"ª":{"ha":571,"x_min":0,"x_max":0,"o":"m 221 522 b 379 604 301 522 357 557 b 482 522 389 540 433 522 b 529 526 504 522 522 525 l 529 615 l 517 615 b 492 650 500 615 492 624 l 492 815 b 281 1008 492 940 421 1008 b 64 854 158 1008 81 956 l 196 849 b 281 915 204 892 232 915 b 361 825 331 915 361 885 l 210 794 b 56 647 111 774 56 732 b 221 522 56 568 121 522 z m 246 608 b 189 658 208 608 189 628 b 254 719 189 688 210 710 l 361 743 l 361 715 b 246 608 361 649 313 608 z "},"º":{"ha":594,"x_min":0,"x_max":0,"o":"m 297 522 b 539 765 446 522 539 617 b 297 1008 539 911 446 1008 b 56 765 149 1008 56 913 b 297 522 56 617 149 522 z m 297 619 b 188 765 225 619 188 674 b 297 911 188 854 225 911 b 407 765 368 911 407 857 b 297 619 407 672 368 619 z "},"А":{"ha":957,"x_min":0,"x_max":0,"o":"m 28 0 l 188 0 l 276 257 l 679 257 l 769 0 l 929 0 l 574 986 l 383 986 z m 324 393 l 478 843 l 633 393 z "},"Б":{"ha":926,"x_min":0,"x_max":0,"o":"m 119 0 l 488 0 b 846 303 713 0 846 114 b 488 611 846 496 713 611 l 269 611 l 269 849 l 800 849 l 800 986 l 119 986 z m 269 138 l 269 474 l 483 474 b 690 303 621 474 690 415 b 483 138 690 193 621 138 z "},"В":{"ha":956,"x_min":0,"x_max":0,"o":"m 119 0 l 526 0 b 874 271 749 0 874 90 b 649 510 874 403 790 493 b 832 719 764 526 832 607 b 474 986 832 904 710 986 l 119 986 z m 269 565 l 269 851 l 471 851 b 678 708 607 851 678 806 b 471 565 678 617 603 565 z m 269 135 l 269 438 l 522 438 b 719 285 646 438 719 382 b 522 135 719 186 646 135 z "},"Г":{"ha":815,"x_min":0,"x_max":0,"o":"m 119 0 l 269 0 l 269 849 l 800 849 l 800 986 l 119 986 z "},"Ѓ":{"ha":815,"x_min":0,"x_max":0,"o":"m 393 1075 l 511 1075 l 636 1261 l 482 1261 z m 119 0 l 269 0 l 269 849 l 800 849 l 800 986 l 119 986 z "},"Ґ":{"ha":731,"x_min":0,"x_max":0,"o":"m 119 0 l 269 0 l 269 849 l 715 849 l 715 1201 l 565 1201 l 565 986 l 119 986 z "},"Ғ":{"ha":889,"x_min":0,"x_max":0,"o":"m 193 0 l 343 0 l 343 388 l 672 388 l 672 524 l 343 524 l 343 849 l 874 849 l 874 986 l 193 986 l 193 524 l 92 524 l 92 388 l 193 388 z "},"Д":{"ha":1140,"x_min":0,"x_max":0,"o":"m 69 -208 l 219 -208 l 219 0 l 921 0 l 921 -208 l 1071 -208 l 1071 138 l 949 138 l 949 986 l 317 986 l 244 321 b 122 138 231 196 192 138 l 69 138 z m 340 138 b 396 307 369 178 386 233 l 454 849 l 799 849 l 799 138 z "},"Е":{"ha":846,"x_min":0,"x_max":0,"o":"m 119 0 l 772 0 l 772 138 l 269 138 l 269 428 l 744 428 l 744 561 l 269 561 l 269 849 l 761 849 l 761 986 l 119 986 z "},"Ѐ":{"ha":846,"x_min":0,"x_max":0,"o":"m 397 1075 l 515 1075 l 426 1261 l 272 1261 z m 119 0 l 772 0 l 772 138 l 269 138 l 269 428 l 744 428 l 744 561 l 269 561 l 269 849 l 761 849 l 761 986 l 119 986 z "},"Ё":{"ha":846,"x_min":0,"x_max":0,"o":"m 239 1092 l 386 1092 l 386 1239 l 239 1239 z m 499 1092 l 647 1092 l 647 1239 l 499 1239 z m 119 0 l 772 0 l 772 138 l 269 138 l 269 428 l 744 428 l 744 561 l 269 561 l 269 849 l 761 849 l 761 986 l 119 986 z "},"Ж":{"ha":1335,"x_min":0,"x_max":0,"o":"m 19 0 l 215 0 l 593 468 l 593 0 l 743 0 l 743 468 l 1119 0 l 1315 0 l 918 493 l 1301 986 l 1106 986 l 743 519 l 743 986 l 593 986 l 593 519 l 229 986 l 33 986 l 417 493 z "},"З":{"ha":921,"x_min":0,"x_max":0,"o":"m 461 -22 b 854 271 694 -22 854 97 b 626 533 854 401 772 496 b 821 751 753 565 821 639 b 461 1008 821 904 675 1008 b 99 761 264 1008 117 907 l 253 751 b 460 871 264 825 342 871 b 665 742 586 871 665 822 b 479 586 665 626 565 585 l 376 588 l 376 460 l 479 461 b 699 289 588 463 699 410 b 461 115 699 182 608 115 b 221 274 324 115 231 176 l 67 265 b 461 -22 75 94 236 -22 z "},"И":{"ha":1035,"x_min":0,"x_max":0,"o":"m 915 0 l 915 986 l 725 986 l 269 182 l 269 986 l 119 986 l 119 0 l 317 0 l 765 786 l 765 0 z "},"Й":{"ha":1029,"x_min":0,"x_max":0,"o":"m 508 1082 b 710 1269 628 1082 704 1153 l 617 1269 b 508 1178 608 1206 569 1178 b 400 1269 447 1178 408 1206 l 307 1269 b 508 1082 313 1153 390 1082 z m 910 0 l 910 986 l 719 986 l 264 182 l 264 986 l 114 986 l 114 0 l 311 0 l 760 786 l 760 0 z "},"Ѝ":{"ha":1029,"x_min":0,"x_max":0,"o":"m 444 1075 l 563 1075 l 475 1261 l 319 1261 z m 910 0 l 910 986 l 719 986 l 264 182 l 264 986 l 114 986 l 114 0 l 311 0 l 760 786 l 760 0 z "},"К":{"ha":908,"x_min":0,"x_max":0,"o":"m 119 0 l 269 0 l 269 482 l 700 0 l 889 0 l 449 493 l 875 986 l 686 986 l 269 504 l 269 986 l 119 986 z "},"Ќ":{"ha":908,"x_min":0,"x_max":0,"o":"m 410 1075 l 528 1075 l 653 1261 l 499 1261 z m 119 0 l 269 0 l 269 482 l 700 0 l 889 0 l 449 493 l 875 986 l 686 986 l 269 504 l 269 986 l 119 986 z "},"Л":{"ha":1069,"x_min":0,"x_max":0,"o":"m 85 0 l 197 0 b 397 217 325 0 386 85 l 451 849 l 801 849 l 801 0 l 950 0 l 950 986 l 313 986 l 249 238 b 165 138 243 176 217 138 l 85 138 z "},"М":{"ha":1236,"x_min":0,"x_max":0,"o":"m 119 0 l 269 0 l 269 722 l 535 1 l 701 1 l 967 722 l 967 0 l 1117 0 l 1117 986 l 911 986 l 618 176 l 325 986 l 119 986 z "},"Н":{"ha":994,"x_min":0,"x_max":0,"o":"m 119 0 l 269 0 l 269 428 l 725 428 l 725 0 l 875 0 l 875 986 l 725 986 l 725 564 l 269 564 l 269 986 l 119 986 z "},"О":{"ha":1043,"x_min":0,"x_max":0,"o":"m 521 -22 b 982 492 810 -22 982 172 b 521 1008 982 811 810 1008 b 61 492 235 1008 61 811 b 521 -22 61 172 235 -22 z m 521 115 b 217 492 331 115 217 254 b 521 871 217 729 331 871 b 826 492 713 871 826 729 b 521 115 826 254 713 115 z "},"П":{"ha":983,"x_min":0,"x_max":0,"o":"m 119 0 l 269 0 l 269 849 l 714 849 l 714 0 l 864 0 l 864 986 l 119 986 z "},"Р":{"ha":913,"x_min":0,"x_max":0,"o":"m 119 0 l 269 0 l 269 369 l 488 369 b 846 679 713 369 846 486 b 488 986 846 871 713 986 l 119 986 z m 269 506 l 269 849 l 483 849 b 690 679 619 849 690 792 b 483 506 690 565 619 506 z "},"С":{"ha":983,"x_min":0,"x_max":0,"o":"m 508 -22 b 933 344 750 -22 896 121 l 776 353 b 508 115 753 206 668 115 b 214 492 332 115 214 256 b 508 871 214 726 331 871 b 769 654 658 871 743 789 l 926 663 b 508 1008 885 878 754 1008 b 58 492 239 1008 58 810 b 508 -22 58 171 242 -22 z "},"Т":{"ha":811,"x_min":0,"x_max":0,"o":"m 303 0 l 453 0 l 453 849 l 757 849 l 757 986 l 0 986 l 0 849 l 303 849 z "},"У":{"ha":783,"x_min":0,"x_max":0,"o":"m 126 0 l 268 0 b 446 122 358 0 415 39 l 756 986 l 597 986 l 394 406 l 186 986 l 28 986 l 296 272 l 347 272 l 314 186 b 239 135 301 151 278 135 l 126 135 z "},"Ў":{"ha":783,"x_min":0,"x_max":0,"o":"m 389 1079 b 590 1267 507 1079 585 1150 l 496 1267 b 389 1175 488 1203 450 1175 b 281 1267 328 1175 288 1203 l 186 1267 b 389 1079 192 1150 269 1079 z m 126 0 l 268 0 b 446 122 358 0 415 39 l 756 986 l 597 986 l 394 406 l 186 986 l 28 986 l 296 272 l 347 272 l 314 186 b 239 135 301 151 278 135 l 126 135 z "},"Ф":{"ha":1172,"x_min":0,"x_max":0,"o":"m 514 0 l 657 0 l 657 104 b 1111 493 928 128 1111 279 b 657 882 1111 707 928 858 l 657 986 l 514 986 l 514 882 b 61 493 243 860 61 707 b 514 104 61 279 243 126 z m 217 493 b 514 744 217 632 329 725 l 514 242 b 217 493 329 261 217 354 z m 954 493 b 657 242 954 356 842 261 l 657 744 b 954 493 842 725 954 631 z "},"Х":{"ha":879,"x_min":0,"x_max":0,"o":"m 19 0 l 194 0 l 439 381 l 683 0 l 860 0 l 531 497 l 856 986 l 681 986 l 442 611 l 199 986 l 22 986 l 347 494 z "},"Ц":{"ha":1088,"x_min":0,"x_max":0,"o":"m 846 -208 l 996 -208 l 996 138 l 864 138 l 864 986 l 714 986 l 714 138 l 269 138 l 269 986 l 119 986 l 119 0 l 846 0 z "},"Ч":{"ha":915,"x_min":0,"x_max":0,"o":"m 646 0 l 796 0 l 796 986 l 646 986 l 646 663 b 396 467 646 546 544 467 b 204 661 269 467 204 539 l 204 986 l 54 986 l 54 644 b 378 331 54 451 171 331 b 646 464 499 331 600 383 z "},"Ш":{"ha":1299,"x_min":0,"x_max":0,"o":"m 119 0 l 1179 0 l 1179 986 l 1029 986 l 1029 138 l 725 138 l 725 986 l 574 986 l 574 138 l 269 138 l 269 986 l 119 986 z "},"Щ":{"ha":1403,"x_min":0,"x_max":0,"o":"m 119 0 l 1161 0 l 1161 -208 l 1311 -208 l 1311 138 l 1179 138 l 1179 986 l 1029 986 l 1029 138 l 725 138 l 725 986 l 574 986 l 574 138 l 269 138 l 269 986 l 119 986 z "},"Џ":{"ha":983,"x_min":0,"x_max":0,"o":"m 417 -208 l 567 -208 l 567 0 l 864 0 l 864 986 l 714 986 l 714 138 l 269 138 l 269 986 l 119 986 l 119 0 l 417 0 z "},"Ь":{"ha":926,"x_min":0,"x_max":0,"o":"m 119 986 l 119 0 l 488 0 b 846 307 713 0 846 115 b 488 617 846 500 713 617 l 269 617 l 269 986 z m 269 481 l 483 481 b 690 307 619 481 690 421 b 483 138 690 194 619 138 l 269 138 z "},"Ы":{"ha":1221,"x_min":0,"x_max":0,"o":"m 951 0 l 1101 0 l 1101 986 l 951 986 z m 119 986 l 119 0 l 488 0 b 846 307 713 0 846 115 b 488 617 846 500 713 617 l 269 617 l 269 986 z m 269 481 l 483 481 b 690 307 619 481 690 421 b 483 138 690 194 619 138 l 269 138 z "},"Ъ":{"ha":1033,"x_min":0,"x_max":0,"o":"m 92 849 l 240 849 l 240 0 l 608 0 b 967 307 833 0 967 115 b 608 617 967 500 833 617 l 390 617 l 390 986 l 92 986 z m 390 481 l 604 481 b 811 307 740 481 811 421 b 604 138 811 194 740 138 l 390 138 z "},"Љ":{"ha":1608,"x_min":0,"x_max":0,"o":"m 85 0 l 197 0 b 397 217 325 0 386 85 l 451 849 l 800 849 l 800 0 l 1168 0 b 1526 307 1393 0 1526 115 b 1168 617 1526 500 1393 617 l 950 617 l 950 986 l 313 986 l 249 238 b 165 138 243 176 217 138 l 85 138 z m 950 481 l 1164 481 b 1371 307 1300 481 1371 421 b 1164 138 1371 194 1300 138 l 950 138 z "},"Њ":{"ha":1521,"x_min":0,"x_max":0,"o":"m 119 0 l 269 0 l 269 481 l 714 481 l 714 0 l 1082 0 b 1440 307 1307 0 1440 115 b 1082 617 1440 500 1307 617 l 864 617 l 864 986 l 714 986 l 714 617 l 269 617 l 269 986 l 119 986 z m 864 481 l 1078 481 b 1285 307 1213 481 1285 421 b 1078 138 1285 194 1214 138 l 864 138 z "},"Ѕ":{"ha":908,"x_min":0,"x_max":0,"o":"m 475 -22 b 833 264 688 -22 833 88 b 490 564 833 408 746 504 b 250 728 299 610 250 642 b 435 872 250 814 321 872 b 660 679 569 872 646 793 l 814 688 b 438 1008 792 874 663 1008 b 96 722 225 1008 96 892 b 418 443 96 568 182 500 b 679 256 636 390 679 339 b 478 114 679 163 604 114 b 229 328 331 114 247 190 l 75 318 b 475 -22 92 115 239 -22 z "},"Є":{"ha":1021,"x_min":0,"x_max":0,"o":"m 522 -22 b 968 347 763 -22 924 117 l 808 347 b 522 115 771 201 669 115 b 219 426 349 115 240 231 l 597 426 l 597 558 l 219 558 b 522 871 239 754 349 871 b 808 638 669 871 771 785 l 968 638 b 522 1008 924 871 763 1008 b 61 492 233 1008 61 813 b 522 -22 61 174 233 -22 z "},"Э":{"ha":1021,"x_min":0,"x_max":0,"o":"m 499 -22 b 960 492 788 -22 960 174 b 499 1008 960 813 788 1008 b 53 638 258 1008 97 871 l 213 638 b 499 871 250 785 353 871 b 801 558 672 871 782 754 l 425 558 l 425 426 l 801 426 b 499 115 782 231 672 115 b 213 347 353 115 250 201 l 53 347 b 499 -22 97 117 258 -22 z "},"І":{"ha":394,"x_min":0,"x_max":0,"o":"m 125 0 l 275 0 l 275 986 l 125 986 z "},"Ї":{"ha":389,"x_min":0,"x_max":0,"o":"m -7 1094 l 140 1094 l 140 1242 l -7 1242 z m 253 1094 l 401 1094 l 401 1242 l 253 1242 z m 115 0 l 265 0 l 265 986 l 115 986 z "},"Ј":{"ha":843,"x_min":0,"x_max":0,"o":"m 414 -22 b 744 347 615 -22 744 121 l 744 986 l 594 986 l 594 347 b 414 115 594 196 529 115 b 238 340 303 115 239 193 l 85 332 b 414 -22 86 125 215 -22 z "},"Ћ":{"ha":1072,"x_min":0,"x_max":0,"o":"m 17 849 l 278 849 l 278 0 l 428 0 l 428 324 b 676 519 428 440 528 519 b 869 325 804 519 869 447 l 869 0 l 1019 0 l 1019 342 b 694 656 1019 535 903 656 b 428 522 574 656 472 603 l 428 849 l 719 849 l 719 986 l 17 986 z "},"Ю":{"ha":1401,"x_min":0,"x_max":0,"o":"m 119 0 l 269 0 l 269 425 l 421 425 b 879 -22 444 146 613 -22 b 1340 492 1167 -22 1340 172 b 879 1008 1340 811 1167 1008 b 422 561 614 1008 446 839 l 269 561 l 269 986 l 119 986 z m 879 115 b 575 492 689 115 575 254 b 879 871 575 729 689 871 b 1183 492 1069 871 1183 729 b 879 115 1183 254 1069 115 z "},"Я":{"ha":956,"x_min":0,"x_max":0,"o":"m 836 0 l 836 986 l 468 986 b 110 683 242 986 110 874 b 311 410 110 549 181 449 l 81 0 l 244 0 l 460 386 l 686 386 l 686 0 z m 686 522 l 472 522 b 265 685 340 522 265 579 b 472 849 265 790 340 849 l 686 849 z "},"Ђ":{"ha":1075,"x_min":0,"x_max":0,"o":"m 278 0 l 428 0 l 428 321 b 676 519 428 439 528 519 b 864 332 792 519 864 447 b 618 138 864 213 774 138 l 618 0 b 1019 333 865 0 1019 128 b 693 656 1019 525 886 656 b 428 524 572 656 472 603 l 428 849 l 719 849 l 719 986 l 17 986 l 17 849 l 278 849 z "},"Ѣ":{"ha":1038,"x_min":0,"x_max":0,"o":"m 78 736 l 229 736 l 229 0 l 597 0 b 956 307 822 0 956 115 b 597 617 956 500 822 617 l 379 617 l 379 736 l 533 736 l 533 856 l 379 856 l 379 986 l 229 986 l 229 856 l 78 856 z m 379 481 l 593 481 b 800 307 729 481 800 421 b 593 138 800 194 729 138 l 379 138 z "},"Ѫ":{"ha":976,"x_min":0,"x_max":0,"o":"m 19 0 l 179 0 l 297 325 b 386 403 319 388 343 403 l 415 403 l 415 0 l 563 0 l 563 403 l 592 403 b 679 325 633 403 658 388 l 797 0 l 957 0 l 811 388 b 647 538 778 483 719 531 l 861 849 l 861 986 l 117 986 l 117 849 l 332 538 b 164 388 258 532 200 483 z m 282 849 l 697 849 l 489 549 z "},"Ѳ":{"ha":1043,"x_min":0,"x_max":0,"o":"m 521 -22 b 982 492 810 -22 982 172 b 521 1008 982 811 810 1008 b 61 492 235 1008 61 811 b 521 -22 61 172 235 -22 z m 497 576 b 296 606 435 601 353 614 b 224 590 272 603 249 599 b 521 871 251 768 358 871 b 825 544 697 871 808 750 b 740 519 797 531 771 524 b 497 576 682 513 649 519 z m 521 115 b 219 439 346 115 235 233 b 315 468 249 454 281 464 b 504 438 365 474 439 463 b 760 382 657 382 701 375 b 819 396 779 385 800 389 b 521 115 792 217 685 115 z "},"Ѵ":{"ha":1026,"x_min":0,"x_max":0,"o":"m 385 0 l 571 0 l 835 726 b 976 849 869 818 906 849 l 999 849 l 999 986 l 938 986 b 700 796 831 986 742 914 l 478 168 l 188 986 l 28 986 z "},"Җ":{"ha":1372,"x_min":0,"x_max":0,"o":"m 19 0 l 215 0 l 593 468 l 593 0 l 743 0 l 743 468 l 1119 0 l 1210 0 l 1210 -208 l 1360 -208 l 1360 108 l 1228 108 l 918 493 l 1301 986 l 1106 986 l 743 519 l 743 986 l 593 986 l 593 519 l 229 986 l 33 986 l 417 493 z "},"Қ":{"ha":947,"x_min":0,"x_max":0,"o":"m 119 0 l 269 0 l 269 482 l 700 0 l 778 0 l 778 -208 l 928 -208 l 928 108 l 792 108 l 449 493 l 875 986 l 686 986 l 269 504 l 269 986 l 119 986 z "},"Ң":{"ha":1060,"x_min":0,"x_max":0,"o":"m 119 0 l 269 0 l 269 428 l 725 428 l 725 0 l 818 0 l 818 -208 l 968 -208 l 968 108 l 875 108 l 875 986 l 725 986 l 725 564 l 269 564 l 269 986 l 119 986 z "},"Ү":{"ha":825,"x_min":0,"x_max":0,"o":"m 338 0 l 488 0 l 488 396 l 835 986 l 663 986 l 413 546 l 164 986 l -8 986 l 338 396 z "},"Ұ":{"ha":915,"x_min":0,"x_max":0,"o":"m 160 299 l 349 299 l 349 0 l 499 0 l 499 299 l 765 299 l 765 435 l 521 435 l 844 986 l 672 986 l 424 546 l 174 986 l 1 986 l 325 435 l 160 435 z "},"Ҳ":{"ha":954,"x_min":0,"x_max":0,"o":"m 19 0 l 194 0 l 439 381 l 683 0 l 785 0 l 785 -208 l 935 -208 l 935 108 l 789 108 l 531 497 l 856 986 l 681 986 l 442 611 l 199 986 l 22 986 l 347 494 z "},"Ҷ":{"ha":996,"x_min":0,"x_max":0,"o":"m 646 0 l 754 0 l 754 -208 l 904 -208 l 904 108 l 796 108 l 796 986 l 646 986 l 646 663 b 396 467 646 546 544 467 b 204 661 269 467 204 539 l 204 986 l 54 986 l 54 644 b 378 331 54 451 171 331 b 646 464 499 331 600 383 z "},"Һ":{"ha":915,"x_min":0,"x_max":0,"o":"m 269 986 l 119 986 l 119 0 l 269 0 l 269 324 b 519 519 269 440 371 519 b 711 325 646 519 711 447 l 711 0 l 861 0 l 861 342 b 538 656 861 535 744 656 b 269 522 417 656 315 603 z "},"Ӏ":{"ha":389,"x_min":0,"x_max":0,"o":"m 119 0 l 269 0 l 269 986 l 119 986 z "},"Ә":{"ha":1011,"x_min":0,"x_max":0,"o":"m 950 493 b 494 1008 950 813 769 1008 b 90 704 299 1008 149 892 l 249 692 b 494 871 297 811 388 871 b 793 549 651 871 778 754 l 61 549 l 61 476 b 494 -22 61 146 269 -22 b 950 493 756 -22 950 164 z m 496 115 b 222 415 346 115 247 217 l 792 415 b 496 115 774 218 653 115 z "},"Ӣ":{"ha":1035,"x_min":0,"x_max":0,"o":"m 308 1107 l 694 1107 l 694 1225 l 308 1225 z m 915 0 l 915 986 l 725 986 l 269 182 l 269 986 l 119 986 l 119 0 l 317 0 l 765 786 l 765 0 z "},"Ө":{"ha":1043,"x_min":0,"x_max":0,"o":"m 521 -22 b 982 492 810 -22 982 172 b 521 1008 982 811 810 1008 b 61 492 235 1008 61 811 b 521 -22 61 172 235 -22 z m 521 871 b 822 561 693 871 803 757 l 221 561 b 521 871 242 757 350 871 z m 521 115 b 221 425 350 115 240 228 l 824 425 b 521 115 803 228 693 115 z "},"Ӯ":{"ha":783,"x_min":0,"x_max":0,"o":"m 199 1107 l 586 1107 l 586 1225 l 199 1225 z m 126 0 l 268 0 b 446 122 358 0 415 39 l 756 986 l 597 986 l 394 406 l 186 986 l 28 986 l 296 272 l 347 272 l 314 186 b 239 135 301 151 278 135 l 126 135 z "},"а":{"ha":785,"x_min":0,"x_max":0,"o":"m 311 -17 b 561 114 426 -17 524 36 b 707 -4 572 28 622 -4 b 761 0 729 -4 751 -3 l 761 117 l 735 117 b 696 164 707 117 696 128 l 696 451 b 389 756 696 643 589 756 b 71 517 214 756 99 664 l 222 507 b 389 631 242 588 294 631 b 549 460 494 631 549 574 l 294 411 b 58 185 132 379 58 311 b 311 -17 58 57 157 -17 z m 335 100 b 211 199 256 100 211 135 b 332 307 211 256 243 290 l 549 349 l 549 301 b 335 100 549 183 468 100 z "},"б":{"ha":844,"x_min":0,"x_max":0,"o":"m 424 -22 b 783 329 636 -22 783 113 b 444 675 783 533 649 675 b 203 544 340 675 254 628 b 417 813 214 721 300 757 b 574 1061 533 867 574 946 l 435 1060 b 315 907 435 982 408 949 b 61 436 133 828 61 704 b 164 92 61 286 96 163 b 424 -22 236 10 331 -22 z m 426 106 b 219 329 303 106 217 197 b 435 547 221 457 310 547 b 631 329 550 547 631 457 b 426 106 631 197 546 106 z "},"в":{"ha":835,"x_min":0,"x_max":0,"o":"m 104 0 l 461 0 b 744 210 639 0 744 79 b 551 382 744 307 672 371 b 714 533 653 393 714 450 b 421 739 714 663 604 739 l 104 739 z m 253 431 l 253 621 l 419 621 b 560 528 506 621 560 585 b 419 431 560 468 506 431 z m 253 118 l 253 319 l 457 319 b 590 215 539 319 590 281 b 457 118 590 156 539 118 z "},"г":{"ha":679,"x_min":0,"x_max":0,"o":"m 104 0 l 251 0 l 251 618 l 636 618 l 636 739 l 104 739 z "},"ѓ":{"ha":679,"x_min":0,"x_max":0,"o":"m 304 828 l 422 828 l 547 1014 l 392 1014 z m 104 0 l 251 0 l 251 618 l 636 618 l 636 739 l 104 739 z "},"ґ":{"ha":615,"x_min":0,"x_max":0,"o":"m 104 0 l 251 0 l 251 618 l 585 618 l 585 954 l 436 954 l 436 739 l 104 739 z "},"ғ":{"ha":747,"x_min":0,"x_max":0,"o":"m 157 0 l 304 0 l 304 307 l 521 307 l 521 426 l 304 426 l 304 618 l 689 618 l 689 739 l 157 739 l 157 426 l 76 426 l 76 307 l 157 307 z "},"д":{"ha":981,"x_min":0,"x_max":0,"o":"m 54 -208 l 201 -208 l 201 0 l 781 0 l 781 -208 l 928 -208 l 928 119 l 808 119 l 808 739 l 285 739 l 218 253 b 115 119 204 161 174 119 l 54 119 z m 358 243 l 410 618 l 661 618 l 661 119 l 315 119 b 358 243 336 151 350 193 z "},"е":{"ha":800,"x_min":0,"x_max":0,"o":"m 408 -17 b 731 213 571 -17 692 75 l 578 222 b 410 110 554 153 496 110 b 211 326 292 110 218 182 l 742 326 l 742 364 b 404 756 742 613 606 756 b 58 369 193 756 58 603 b 408 -17 58 136 193 -17 z m 211 438 b 404 631 228 563 299 631 b 586 438 504 631 576 568 z "},"ѐ":{"ha":800,"x_min":0,"x_max":0,"o":"m 358 825 l 476 825 l 388 1011 l 233 1011 z m 408 -17 b 731 213 571 -17 692 75 l 578 222 b 410 110 554 153 496 110 b 211 326 292 110 218 182 l 742 326 l 742 364 b 404 756 742 613 606 756 b 58 369 193 756 58 603 b 408 -17 58 136 193 -17 z m 211 438 b 404 631 228 563 299 631 b 586 438 504 631 576 568 z "},"ё":{"ha":800,"x_min":0,"x_max":0,"o":"m 204 842 l 353 842 l 353 989 l 204 989 z m 465 842 l 613 842 l 613 989 l 465 989 z m 408 -17 b 731 213 571 -17 692 75 l 578 222 b 410 110 554 153 496 110 b 211 326 292 110 218 182 l 742 326 l 742 364 b 404 756 742 613 606 756 b 58 369 193 756 58 603 b 408 -17 58 136 193 -17 z m 211 438 b 404 631 228 563 299 631 b 586 438 504 631 576 568 z "},"ж":{"ha":1256,"x_min":0,"x_max":0,"o":"m 65 0 l 256 0 l 556 353 l 556 0 l 703 0 l 703 353 l 1003 0 l 1190 0 l 872 369 l 1176 739 l 989 739 l 703 388 l 703 739 l 556 739 l 556 386 l 269 739 l 79 739 l 383 369 z "},"з":{"ha":735,"x_min":0,"x_max":0,"o":"m 369 -17 b 682 201 561 -17 682 67 b 504 397 682 294 615 367 b 658 547 601 422 658 478 b 369 756 658 676 546 756 b 79 560 206 756 93 681 l 233 553 b 368 640 240 606 290 640 b 506 547 453 640 506 604 b 378 447 506 485 456 446 l 306 449 l 306 332 l 378 333 b 531 214 469 335 531 289 b 369 108 531 149 468 108 b 206 219 274 108 210 153 l 53 214 b 369 -17 60 72 182 -17 z "},"и":{"ha":807,"x_min":0,"x_max":0,"o":"m 104 0 l 268 0 l 554 507 l 554 0 l 701 0 l 701 739 l 546 739 l 251 219 l 251 739 l 104 739 z "},"й":{"ha":807,"x_min":0,"x_max":0,"o":"m 399 832 b 599 1019 517 832 593 903 l 506 1019 b 399 928 497 956 460 928 b 290 1019 338 928 297 956 l 196 1019 b 399 832 201 903 279 832 z m 104 0 l 268 0 l 554 507 l 554 0 l 701 0 l 701 739 l 546 739 l 251 219 l 251 739 l 104 739 z "},"ѝ":{"ha":807,"x_min":0,"x_max":0,"o":"m 349 828 l 467 828 l 378 1014 l 224 1014 z m 104 0 l 268 0 l 554 507 l 554 0 l 701 0 l 701 739 l 546 739 l 251 219 l 251 739 l 104 739 z "},"к":{"ha":850,"x_min":0,"x_max":0,"o":"m 104 0 l 254 0 l 254 358 l 592 0 l 785 0 l 428 369 l 768 739 l 578 739 l 254 381 l 254 739 l 104 739 z "},"ќ":{"ha":850,"x_min":0,"x_max":0,"o":"m 349 828 l 467 828 l 592 1014 l 438 1014 z m 104 0 l 254 0 l 254 358 l 592 0 l 785 0 l 428 369 l 768 739 l 578 739 l 254 381 l 254 739 l 104 739 z "},"л":{"ha":940,"x_min":0,"x_max":0,"o":"m 76 0 l 178 0 b 363 206 288 0 349 69 l 406 618 l 689 618 l 689 0 l 836 0 l 836 739 l 272 739 l 217 232 b 136 132 210 167 183 132 l 76 132 z "},"м":{"ha":1013,"x_min":0,"x_max":0,"o":"m 104 0 l 251 0 l 251 482 l 433 0 l 579 0 l 760 482 l 760 0 l 907 0 l 907 739 l 719 739 l 507 144 l 294 739 l 104 739 z "},"н":{"ha":814,"x_min":0,"x_max":0,"o":"m 104 0 l 251 0 l 251 308 l 563 308 l 563 0 l 710 0 l 710 739 l 563 739 l 563 428 l 251 428 l 251 739 l 104 739 z "},"о":{"ha":817,"x_min":0,"x_max":0,"o":"m 408 -17 b 758 369 619 -17 758 135 b 408 756 758 604 619 756 b 58 369 197 756 58 604 b 408 -17 58 135 197 -17 z m 408 111 b 211 369 283 111 211 207 b 408 628 211 532 283 628 b 606 369 533 628 606 532 b 408 111 606 207 533 111 z "},"п":{"ha":821,"x_min":0,"x_max":0,"o":"m 104 0 l 251 0 l 251 618 l 569 618 l 569 0 l 717 0 l 717 739 l 104 739 z "},"р":{"ha":844,"x_min":0,"x_max":0,"o":"m 104 -208 l 251 -208 l 251 100 b 469 -17 292 28 375 -17 b 786 369 685 -17 786 161 b 469 756 786 578 686 756 b 246 626 371 756 289 711 l 243 739 l 104 739 z m 443 111 b 251 369 324 111 251 199 b 443 628 251 540 325 628 b 633 369 561 628 633 532 b 443 111 633 207 561 111 z "},"с":{"ha":782,"x_min":0,"x_max":0,"o":"m 408 -17 b 739 263 589 -17 715 93 l 585 271 b 408 111 571 164 503 111 b 211 369 283 111 211 207 b 408 628 211 532 283 628 b 585 479 501 628 569 575 l 739 488 b 408 756 714 658 588 756 b 58 369 196 756 58 603 b 408 -17 58 136 196 -17 z "},"т":{"ha":788,"x_min":0,"x_max":0,"o":"m 322 0 l 471 0 l 471 618 l 731 618 l 731 739 l 61 739 l 61 618 l 322 618 z "},"у":{"ha":768,"x_min":0,"x_max":0,"o":"m 146 -208 l 257 -208 b 444 -86 361 -208 414 -171 l 739 739 l 582 739 l 389 158 l 186 739 l 31 739 l 297 22 l 343 22 l 319 -39 b 236 -87 306 -74 286 -87 l 146 -87 z "},"ў":{"ha":768,"x_min":0,"x_max":0,"o":"m 381 832 b 581 1019 499 832 575 903 l 488 1019 b 381 928 479 956 442 928 b 272 1019 319 928 279 956 l 178 1019 b 381 832 183 903 261 832 z m 146 -208 l 257 -208 b 444 -86 361 -208 414 -171 l 739 739 l 582 739 l 389 158 l 186 739 l 31 739 l 297 22 l 343 22 l 319 -39 b 236 -87 306 -74 286 -87 l 146 -87 z "},"ф":{"ha":928,"x_min":0,"x_max":0,"o":"m 394 -210 l 536 -210 l 536 38 b 871 374 739 63 871 192 b 536 710 871 556 739 685 l 536 986 l 394 986 l 394 710 b 58 374 190 686 58 557 b 394 38 58 190 190 61 z m 211 374 b 394 576 211 481 281 556 l 394 171 b 211 374 281 192 211 267 z m 717 374 b 536 172 717 267 650 193 l 536 575 b 717 374 650 554 717 481 z "},"х":{"ha":843,"x_min":0,"x_max":0,"o":"m 65 0 l 232 0 l 424 282 l 614 0 l 778 0 l 513 375 l 767 739 l 599 739 l 422 474 l 240 739 l 76 739 l 333 378 z "},"ц":{"ha":935,"x_min":0,"x_max":0,"o":"m 696 -210 l 844 -210 l 844 119 l 717 119 l 717 739 l 569 739 l 569 121 l 251 121 l 251 739 l 104 739 l 104 0 l 696 0 z "},"ч":{"ha":857,"x_min":0,"x_max":0,"o":"m 604 0 l 753 0 l 753 739 l 604 739 l 604 553 b 406 349 604 426 529 349 b 251 551 311 349 251 426 l 251 739 l 104 739 l 104 535 b 386 221 104 342 214 221 b 604 350 485 221 567 272 z "},"ш":{"ha":1133,"x_min":0,"x_max":0,"o":"m 104 0 l 1029 0 l 1029 739 l 882 739 l 882 119 l 640 119 l 640 739 l 494 739 l 494 119 l 251 119 l 251 739 l 104 739 z "},"щ":{"ha":1239,"x_min":0,"x_max":0,"o":"m 104 0 l 1014 0 l 1014 -210 l 1163 -210 l 1163 119 l 1029 119 l 1029 739 l 882 739 l 882 119 l 640 119 l 640 739 l 494 739 l 494 119 l 251 119 l 251 739 l 104 739 z "},"џ":{"ha":821,"x_min":0,"x_max":0,"o":"m 336 -210 l 483 -210 l 483 0 l 717 0 l 717 739 l 569 739 l 569 121 l 251 121 l 251 739 l 104 739 l 104 0 l 336 0 z "},"ь":{"ha":819,"x_min":0,"x_max":0,"o":"m 104 0 l 432 0 b 761 233 646 0 761 82 b 432 469 761 386 646 469 l 251 469 l 251 739 l 104 739 z m 251 118 l 251 351 l 425 351 b 608 233 549 351 608 313 b 425 118 608 154 549 118 z "},"ы":{"ha":1139,"x_min":0,"x_max":0,"o":"m 886 0 l 1033 0 l 1033 739 l 886 739 z m 104 0 l 432 0 b 761 233 646 0 761 82 b 432 469 761 386 646 469 l 251 469 l 251 739 l 104 739 z m 251 118 l 251 351 l 425 351 b 608 233 549 351 608 313 b 425 118 608 154 549 118 z "},"ъ":{"ha":908,"x_min":0,"x_max":0,"o":"m 194 0 l 521 0 b 851 233 735 0 851 82 b 521 469 851 386 735 469 l 342 469 l 342 739 l 76 739 l 76 618 l 194 618 z m 342 118 l 342 351 l 515 351 b 699 233 638 351 699 313 b 515 118 699 154 638 118 z "},"љ":{"ha":1404,"x_min":0,"x_max":0,"o":"m 76 0 l 178 0 b 363 206 288 0 349 69 l 406 618 l 689 618 l 689 0 l 1015 0 b 1346 233 1229 0 1346 82 b 1015 469 1346 386 1229 469 l 836 469 l 836 739 l 272 739 l 217 232 b 136 132 210 167 183 132 l 76 132 z m 836 118 l 836 351 l 1010 351 b 1193 233 1132 351 1193 313 b 1010 118 1193 154 1132 118 z "},"њ":{"ha":1276,"x_min":0,"x_max":0,"o":"m 104 0 l 251 0 l 251 349 l 561 349 l 561 0 l 889 0 b 1219 233 1103 0 1219 82 b 889 469 1219 386 1103 469 l 708 469 l 708 739 l 561 739 l 561 469 l 251 469 l 251 739 l 104 739 z m 708 118 l 708 351 l 883 351 b 1067 233 1006 351 1067 313 b 883 118 1067 154 1006 118 z "},"ѕ":{"ha":746,"x_min":0,"x_max":0,"o":"m 389 -17 b 685 201 565 -17 685 63 b 393 421 685 322 617 383 b 238 532 274 440 238 467 b 379 632 238 590 283 632 b 536 504 488 632 531 574 l 688 513 b 382 756 674 642 586 756 b 85 526 189 756 85 661 b 364 303 85 406 149 343 b 532 200 504 278 532 254 b 389 107 532 135 481 107 b 210 240 271 107 224 158 l 58 233 b 389 -17 69 88 174 -17 z "},"є":{"ha":806,"x_min":0,"x_max":0,"o":"m 408 -17 b 746 258 582 -17 708 86 l 590 258 b 408 111 564 164 500 111 b 214 313 299 111 229 185 l 439 313 l 439 426 l 214 426 b 408 628 229 554 299 628 b 592 476 501 628 565 572 l 747 476 b 408 756 710 650 585 756 b 58 369 197 756 58 604 b 408 -17 58 135 197 -17 z "},"э":{"ha":806,"x_min":0,"x_max":0,"o":"m 396 -17 b 747 369 608 -17 747 135 b 396 756 747 604 608 756 b 58 476 221 756 96 650 l 214 476 b 396 628 240 572 304 628 b 592 426 507 628 576 554 l 365 426 l 365 313 l 592 313 b 396 111 576 185 507 111 b 215 258 306 111 242 164 l 60 258 b 396 -17 97 86 222 -17 z "},"і":{"ha":356,"x_min":0,"x_max":0,"o":"m 101 846 l 254 846 l 254 993 l 101 993 z m 104 0 l 251 0 l 251 739 l 104 739 z "},"ї":{"ha":356,"x_min":0,"x_max":0,"o":"m -26 844 l 122 844 l 122 992 l -26 992 z m 235 844 l 382 844 l 382 992 l 235 992 z m 104 0 l 251 0 l 251 739 l 104 739 z "},"ј":{"ha":394,"x_min":0,"x_max":0,"o":"m 139 846 l 293 846 l 293 993 l 139 993 z m -6 -208 l 83 -208 b 290 -12 232 -208 290 -154 l 290 739 l 142 739 l 142 -7 b 61 -87 142 -69 111 -87 l -6 -87 z "},"ћ":{"ha":821,"x_min":0,"x_max":0,"o":"m 104 0 l 251 0 l 251 433 b 429 632 251 563 321 632 b 569 436 524 632 569 568 l 569 0 l 717 0 l 717 475 b 468 756 717 640 629 756 b 251 632 371 756 290 717 l 251 806 l 447 806 l 447 908 l 251 908 l 251 986 l 104 986 l 104 908 l 8 908 l 8 806 l 104 806 z "},"ю":{"ha":1122,"x_min":0,"x_max":0,"o":"m 104 0 l 251 0 l 251 310 l 367 310 b 715 -17 389 110 521 -17 b 1065 369 926 -17 1065 135 b 715 756 1065 604 926 756 b 367 429 521 756 389 629 l 251 429 l 251 739 l 104 739 z m 715 111 b 517 369 589 111 517 207 b 715 628 517 532 589 628 b 913 369 839 628 913 532 b 715 111 913 207 839 111 z "},"я":{"ha":835,"x_min":0,"x_max":0,"o":"m 104 0 l 267 0 l 429 279 l 583 279 l 583 0 l 731 0 l 731 739 l 428 739 b 121 513 229 739 121 658 b 282 304 121 418 179 344 z m 428 396 b 275 510 331 396 275 438 b 428 622 275 582 331 622 l 583 622 l 583 396 z "},"ђ":{"ha":872,"x_min":0,"x_max":0,"o":"m 156 0 l 303 0 l 303 422 b 478 625 303 553 371 625 b 621 422 576 625 621 557 l 621 10 b 539 -87 621 -50 589 -87 l 485 -87 l 485 -208 l 561 -208 b 768 10 700 -208 768 -128 l 768 475 b 519 756 768 646 672 756 b 303 639 429 756 346 721 l 303 810 l 461 810 l 461 918 l 303 918 l 303 990 l 156 990 l 156 918 l 76 918 l 76 810 l 156 810 z "},"ѣ":{"ha":949,"x_min":0,"x_max":0,"o":"m 233 0 l 561 0 b 892 247 772 0 892 88 b 561 497 892 407 772 497 l 381 497 l 381 738 l 538 738 l 538 856 l 381 856 l 381 990 l 233 990 l 233 856 l 76 856 l 76 738 l 233 738 z m 381 118 l 381 379 l 556 379 b 738 247 672 379 738 331 b 556 118 738 163 672 118 z "},"ѫ":{"ha":1003,"x_min":0,"x_max":0,"o":"m 65 0 l 222 0 l 322 240 b 411 300 340 286 365 300 l 429 300 l 429 0 l 574 0 l 574 300 l 592 300 b 682 240 638 300 663 286 l 781 0 l 939 0 l 808 290 b 658 399 781 354 724 390 l 872 621 l 872 739 l 133 739 l 133 621 l 346 399 b 196 290 281 392 224 354 z m 293 621 l 713 621 l 503 403 z "},"ѳ":{"ha":817,"x_min":0,"x_max":0,"o":"m 408 -17 b 758 369 619 -17 758 135 b 408 756 758 604 619 756 b 58 369 197 756 58 604 b 408 -17 58 135 197 -17 z m 394 436 b 232 463 342 460 279 468 b 219 461 228 463 224 461 b 408 628 243 567 310 628 b 606 382 529 628 601 538 b 590 381 601 382 596 381 b 394 436 542 376 521 378 z m 408 111 b 213 338 292 111 221 194 b 249 346 224 342 236 344 b 403 315 290 349 347 340 b 593 261 517 265 553 260 b 408 111 567 165 503 111 z "},"ѵ":{"ha":840,"x_min":0,"x_max":0,"o":"m 300 0 l 478 0 l 667 518 b 796 618 692 585 735 618 l 810 618 l 810 739 l 769 739 b 529 558 657 739 569 675 l 389 151 l 185 739 l 31 739 z "},"җ":{"ha":1269,"x_min":0,"x_max":0,"o":"m 65 0 l 256 0 l 556 353 l 556 0 l 703 0 l 703 353 l 1003 0 l 1057 0 l 1057 -210 l 1204 -210 l 1204 103 l 1101 103 l 872 369 l 1176 739 l 989 739 l 703 388 l 703 739 l 556 739 l 556 386 l 269 739 l 79 739 l 383 369 z "},"қ":{"ha":871,"x_min":0,"x_max":0,"o":"m 104 0 l 254 0 l 254 358 l 592 0 l 658 0 l 658 -210 l 806 -210 l 806 103 l 686 103 l 428 369 l 768 739 l 578 739 l 254 381 l 254 739 l 104 739 z "},"ң":{"ha":929,"x_min":0,"x_max":0,"o":"m 104 0 l 251 0 l 251 308 l 563 308 l 563 0 l 678 0 l 678 -210 l 825 -210 l 825 103 l 710 103 l 710 739 l 563 739 l 563 428 l 251 428 l 251 739 l 104 739 z "},"ү":{"ha":778,"x_min":0,"x_max":0,"o":"m 315 0 l 315 -208 l 463 -208 l 463 0 l 749 739 l 593 739 l 389 165 l 185 739 l 31 739 z "},"ұ":{"ha":778,"x_min":0,"x_max":0,"o":"m 153 -60 l 315 -60 l 315 -208 l 463 -208 l 463 -60 l 626 -60 l 626 60 l 486 60 l 749 739 l 593 739 l 389 165 l 185 739 l 31 739 l 292 60 l 153 60 z "},"ҳ":{"ha":892,"x_min":0,"x_max":0,"o":"m 65 0 l 232 0 l 424 282 l 614 0 l 679 0 l 679 -210 l 826 -210 l 826 103 l 704 103 l 513 375 l 767 739 l 599 739 l 422 474 l 240 739 l 76 739 l 333 378 z "},"ҷ":{"ha":949,"x_min":0,"x_max":0,"o":"m 604 0 l 718 0 l 718 -208 l 865 -208 l 865 103 l 753 103 l 753 739 l 604 739 l 604 553 b 406 349 604 426 529 349 b 251 551 311 349 251 426 l 251 739 l 104 739 l 104 535 b 386 221 104 342 214 221 b 604 350 485 221 567 272 z "},"һ":{"ha":821,"x_min":0,"x_max":0,"o":"m 104 0 l 251 0 l 251 433 b 429 632 251 563 321 632 b 569 436 524 632 569 568 l 569 0 l 717 0 l 717 475 b 468 756 717 640 629 756 b 251 632 371 756 290 717 l 251 986 l 104 986 z "},"ӏ":{"ha":386,"x_min":0,"x_max":0,"o":"m 119 0 l 267 0 l 267 986 l 119 986 z "},"ә":{"ha":800,"x_min":0,"x_max":0,"o":"m 392 756 b 68 526 228 756 108 664 l 222 517 b 390 629 246 586 303 629 b 589 413 508 629 582 557 l 58 413 l 58 375 b 396 -17 58 126 194 -17 b 742 369 607 -17 742 136 b 392 756 742 603 607 756 z m 589 301 b 396 108 572 176 501 108 b 214 301 294 108 224 171 z "},"ӣ":{"ha":807,"x_min":0,"x_max":0,"o":"m 211 860 l 597 860 l 597 978 l 211 978 z m 104 0 l 268 0 l 554 507 l 554 0 l 701 0 l 701 739 l 546 739 l 251 219 l 251 739 l 104 739 z "},"ө":{"ha":821,"x_min":0,"x_max":0,"o":"m 406 -17 b 756 369 617 -17 756 135 b 406 756 756 604 617 756 b 54 369 193 756 54 604 b 406 -17 54 135 193 -17 z m 406 628 b 599 429 514 628 582 556 l 211 429 b 406 628 228 556 296 628 z m 406 111 b 211 310 296 111 228 183 l 599 310 b 406 111 582 183 514 111 z "},"ӯ":{"ha":768,"x_min":0,"x_max":0,"o":"m 190 860 l 576 860 l 576 978 l 190 978 z m 146 -208 l 257 -208 b 444 -86 361 -208 414 -171 l 739 739 l 582 739 l 389 158 l 186 739 l 31 739 l 297 22 l 343 22 l 319 -39 b 236 -87 306 -74 286 -87 l 146 -87 z "},"Λ":{"ha":953,"x_min":0,"x_max":0,"o":"m 28 0 l 185 0 l 476 843 l 767 0 l 925 0 l 569 986 l 383 986 z "},"Ω":{"ha":1032,"x_min":0,"x_max":0,"o":"m 64 0 l 450 0 l 450 138 b 217 506 319 140 217 301 b 515 871 217 733 325 871 b 817 506 707 871 817 733 b 581 138 817 301 713 140 l 581 0 l 969 0 l 969 138 l 779 136 b 971 519 896 207 971 344 b 515 1008 971 810 796 1008 b 61 519 238 1008 61 810 b 254 136 61 344 136 207 l 64 138 z "},"λ":{"ha":824,"x_min":0,"x_max":0,"o":"m 28 0 l 181 0 l 386 517 l 515 190 b 729 0 569 54 614 0 l 796 0 l 796 119 l 747 119 b 661 201 697 119 682 149 l 425 796 b 203 986 372 928 319 986 l 115 986 l 115 867 l 189 867 b 279 783 242 867 257 838 l 313 703 z "},"μ":{"ha":814,"x_min":0,"x_max":0,"o":"m 104 -208 l 251 -208 l 251 0 b 347 -17 281 -11 313 -17 b 571 121 454 -17 532 31 l 572 0 l 710 0 l 710 739 l 563 739 l 563 306 b 392 107 563 179 499 107 b 251 301 297 107 251 167 l 251 739 l 104 739 z "},"π":{"ha":917,"x_min":0,"x_max":0,"o":"m 217 0 l 351 0 l 351 618 l 597 618 l 597 217 b 822 0 597 82 664 0 l 869 0 l 869 121 l 825 121 b 732 217 765 121 732 157 l 732 618 l 872 618 l 872 739 l 69 739 l 69 618 l 217 618 z "},"⓿":{"ha":1140,"x_min":0,"x_max":0,"o":"m 571 -17 b 1083 497 854 -17 1083 213 b 571 1008 1083 779 854 1008 b 58 497 288 1008 58 779 b 571 -17 58 213 288 -17 z m 574 211 b 349 492 438 211 349 318 b 574 771 349 667 436 771 b 799 492 713 771 799 667 b 574 211 799 318 711 211 z m 471 393 l 633 663 b 574 679 617 674 597 679 b 456 492 496 679 456 618 b 471 393 456 454 461 421 z m 574 303 b 692 492 651 303 692 367 b 679 593 692 532 688 565 l 515 324 b 574 303 532 310 551 303 z "},"❶":{"ha":1140,"x_min":0,"x_max":0,"o":"m 571 -17 b 1083 497 854 -17 1083 213 b 571 1008 1083 779 854 1008 b 58 497 288 1008 58 779 b 571 -17 58 213 288 -17 z m 547 222 l 547 561 l 411 560 l 411 640 l 446 640 b 571 761 528 640 571 686 l 654 761 l 654 222 z "},"❷":{"ha":1140,"x_min":0,"x_max":0,"o":"m 571 -17 b 1083 497 854 -17 1083 213 b 571 1008 1083 779 854 1008 b 58 497 288 1008 58 779 b 571 -17 58 213 288 -17 z m 386 222 b 526 479 386 349 406 414 l 597 517 b 664 611 647 544 664 563 b 586 682 664 656 631 682 b 486 590 525 682 494 653 l 386 594 b 585 771 397 703 465 771 b 767 613 701 771 767 706 b 636 439 767 525 717 481 l 576 408 b 503 314 524 379 503 344 l 765 314 l 765 222 z "},"❸":{"ha":1140,"x_min":0,"x_max":0,"o":"m 571 -17 b 1083 497 854 -17 1083 213 b 571 1008 1083 779 854 1008 b 58 497 288 1008 58 779 b 571 -17 58 213 288 -17 z m 578 211 b 372 365 426 211 379 271 l 478 369 b 578 300 481 328 510 300 b 676 379 640 300 676 331 b 571 460 676 428 644 460 l 533 460 l 533 544 l 571 544 b 651 611 619 544 651 567 b 571 681 651 653 626 681 b 485 615 518 681 489 653 l 381 622 b 571 771 392 710 453 771 b 757 625 697 771 757 711 b 661 508 757 560 724 525 b 782 375 751 488 782 439 b 578 211 782 275 701 211 z "},"❹":{"ha":1140,"x_min":0,"x_max":0,"o":"m 571 -17 b 1083 497 854 -17 1083 213 b 571 1008 1083 779 854 1008 b 58 497 288 1008 58 779 b 571 -17 58 213 288 -17 z m 588 222 l 588 340 l 336 340 l 336 421 l 586 760 l 693 760 l 693 431 l 767 431 l 767 340 l 693 340 l 693 222 z m 443 431 l 588 431 l 588 617 z "},"❺":{"ha":1140,"x_min":0,"x_max":0,"o":"m 571 -17 b 1083 497 854 -17 1083 213 b 571 1008 1083 779 854 1008 b 58 497 288 1008 58 779 b 571 -17 58 213 288 -17 z m 569 211 b 375 356 453 211 383 264 l 479 361 b 571 300 489 319 519 300 b 669 399 633 300 669 336 b 581 497 669 456 639 497 b 485 446 531 497 504 476 l 385 446 l 425 760 l 739 760 l 739 671 l 513 671 l 499 543 b 601 579 519 565 556 579 b 774 399 718 579 774 503 b 569 211 774 282 696 211 z "},"❻":{"ha":1140,"x_min":0,"x_max":0,"o":"m 571 -17 b 1083 497 854 -17 1083 213 b 571 1008 1083 779 854 1008 b 58 497 288 1008 58 779 b 571 -17 58 213 288 -17 z m 581 211 b 372 464 454 211 372 297 b 600 771 372 636 439 771 b 785 636 711 771 765 725 l 686 626 b 599 683 678 664 650 683 b 478 535 529 683 485 629 b 599 589 497 565 540 589 b 790 401 710 589 790 528 b 581 211 790 281 703 211 z m 583 300 b 689 404 650 300 689 342 b 583 504 689 468 651 504 b 481 404 524 504 482 467 b 583 300 479 342 518 300 z "},"❼":{"ha":1140,"x_min":0,"x_max":0,"o":"m 571 -17 b 1083 497 854 -17 1083 213 b 571 1008 1083 779 854 1008 b 58 497 288 1008 58 779 b 571 -17 58 213 288 -17 z m 493 222 b 650 669 493 385 550 540 l 397 669 l 397 761 l 767 761 l 767 686 b 597 222 658 550 597 410 z "},"❽":{"ha":1140,"x_min":0,"x_max":0,"o":"m 571 -17 b 1083 497 854 -17 1083 213 b 571 1008 1083 779 854 1008 b 58 497 288 1008 58 779 b 571 -17 58 213 288 -17 z m 576 211 b 367 367 436 211 367 269 b 481 513 367 435 408 486 b 392 632 425 531 392 564 b 576 771 392 718 453 771 b 761 632 701 771 761 718 b 672 513 761 564 728 531 b 786 367 743 485 786 433 b 576 211 786 269 717 211 z m 576 550 b 656 619 626 550 656 574 b 576 682 656 658 628 682 b 497 619 525 682 497 658 b 576 550 497 574 526 550 z m 576 300 b 679 376 642 300 679 325 b 576 465 679 426 642 465 b 474 376 511 465 474 426 b 576 300 474 325 511 300 z "},"❾":{"ha":1140,"x_min":0,"x_max":0,"o":"m 571 -17 b 1083 497 854 -17 1083 213 b 571 1008 1083 779 854 1008 b 58 497 288 1008 58 779 b 571 -17 58 213 288 -17 z m 578 771 b 786 518 704 771 786 685 b 560 211 786 346 719 211 b 374 346 447 211 393 257 l 472 356 b 561 299 482 318 510 299 b 681 447 631 299 675 353 b 561 393 661 417 619 393 b 369 581 449 393 369 454 b 578 771 369 701 456 771 z m 576 682 b 471 578 510 682 471 640 b 575 478 471 514 507 478 b 679 578 636 478 678 515 b 576 682 681 640 640 682 z "},"⓪":{"ha":1156,"x_min":0,"x_max":0,"o":"m 576 -24 b 1099 497 864 -24 1099 208 b 576 1015 1099 783 864 1015 b 58 497 290 1015 58 783 b 576 -24 58 208 290 -24 z m 576 85 b 165 497 346 85 165 267 b 576 907 165 726 346 907 b 989 497 807 907 989 726 b 576 85 989 267 807 85 z m 581 211 b 806 492 718 211 806 318 b 581 771 806 667 719 771 b 356 492 443 771 356 667 b 581 211 356 318 444 211 z m 463 492 b 581 679 463 618 503 679 b 640 663 604 679 624 674 l 476 393 b 463 492 468 421 463 454 z m 581 303 b 521 322 558 303 539 310 l 686 594 b 699 492 694 567 699 532 b 581 303 699 367 658 303 z "},"①":{"ha":1156,"x_min":0,"x_max":0,"o":"m 576 -24 b 1099 497 864 -24 1099 208 b 576 1015 1099 783 864 1015 b 58 497 290 1015 58 783 b 576 -24 58 208 290 -24 z m 576 85 b 165 497 346 85 165 267 b 576 907 165 726 346 907 b 989 497 807 907 989 726 b 576 85 989 267 807 85 z m 550 222 l 657 222 l 657 761 l 574 761 b 449 640 574 686 531 640 l 414 640 l 414 560 l 550 561 z "},"②":{"ha":1156,"x_min":0,"x_max":0,"o":"m 576 -24 b 1099 497 864 -24 1099 208 b 576 1015 1099 783 864 1015 b 58 497 290 1015 58 783 b 576 -24 58 208 290 -24 z m 576 85 b 165 497 346 85 165 267 b 576 907 165 726 346 907 b 989 497 807 907 989 726 b 576 85 989 267 807 85 z m 390 222 l 769 222 l 769 314 l 506 314 b 581 408 506 344 526 379 l 639 439 b 771 613 721 481 771 525 b 589 771 771 706 704 771 b 389 594 469 771 401 703 l 490 590 b 589 682 499 653 528 682 b 668 611 633 682 668 656 b 600 517 668 563 651 544 l 531 479 b 390 222 408 414 390 349 z "},"③":{"ha":1156,"x_min":0,"x_max":0,"o":"m 576 -24 b 1099 497 864 -24 1099 208 b 576 1015 1099 783 864 1015 b 58 497 290 1015 58 783 b 576 -24 58 208 290 -24 z m 576 85 b 165 497 346 85 165 267 b 576 907 165 726 346 907 b 989 497 807 907 989 726 b 576 85 989 267 807 85 z m 581 211 b 785 375 704 211 785 275 b 664 508 785 439 754 488 b 760 625 726 525 760 560 b 574 771 760 711 700 771 b 383 622 457 771 394 710 l 488 615 b 574 681 492 653 522 681 b 656 611 631 681 656 653 b 575 544 656 567 624 544 l 538 544 l 538 460 l 575 460 b 679 379 647 460 679 428 b 581 300 679 331 644 300 b 481 369 513 300 485 328 l 376 365 b 581 211 383 271 429 211 z "},"④":{"ha":1156,"x_min":0,"x_max":0,"o":"m 576 -24 b 1099 497 864 -24 1099 208 b 576 1015 1099 783 864 1015 b 58 497 290 1015 58 783 b 576 -24 58 208 290 -24 z m 576 85 b 165 497 346 85 165 267 b 576 907 165 726 346 907 b 989 497 807 907 989 726 b 576 85 989 267 807 85 z m 592 222 l 697 222 l 697 340 l 771 340 l 771 431 l 697 431 l 697 760 l 590 760 l 340 421 l 340 340 l 592 340 z m 447 431 l 592 617 l 592 431 z "},"⑤":{"ha":1156,"x_min":0,"x_max":0,"o":"m 576 -24 b 1099 497 864 -24 1099 208 b 576 1015 1099 783 864 1015 b 58 497 290 1015 58 783 b 576 -24 58 208 290 -24 z m 576 85 b 165 497 346 85 165 267 b 576 907 165 726 346 907 b 989 497 807 907 989 726 b 576 85 989 267 807 85 z m 576 211 b 781 399 703 211 781 282 b 608 579 781 503 724 579 b 506 543 563 579 526 565 l 519 671 l 746 671 l 746 760 l 432 760 l 392 446 l 490 446 b 588 497 511 476 538 497 b 676 399 646 497 676 456 b 578 300 676 336 640 300 b 486 361 526 300 496 319 l 382 356 b 576 211 390 264 460 211 z "},"⑥":{"ha":1156,"x_min":0,"x_max":0,"o":"m 576 -24 b 1099 497 864 -24 1099 208 b 576 1015 1099 783 864 1015 b 58 497 290 1015 58 783 b 576 -24 58 208 290 -24 z m 576 85 b 165 497 346 85 165 267 b 576 907 165 726 346 907 b 989 497 807 907 989 726 b 576 85 989 267 807 85 z m 581 211 b 789 401 703 211 789 281 b 597 589 789 528 708 589 b 478 535 539 589 497 565 b 597 683 483 629 528 683 b 686 626 649 683 676 664 l 785 636 b 599 771 764 725 711 771 b 372 464 439 771 372 636 b 581 211 372 297 454 211 z m 582 300 b 479 404 518 300 478 342 b 583 504 481 467 522 504 b 688 404 651 504 688 468 b 582 300 688 342 649 300 z "},"⑦":{"ha":1156,"x_min":0,"x_max":0,"o":"m 576 -24 b 1099 497 864 -24 1099 208 b 576 1015 1099 783 864 1015 b 58 497 290 1015 58 783 b 576 -24 58 208 290 -24 z m 576 85 b 165 497 346 85 165 267 b 576 907 165 726 346 907 b 989 497 807 907 989 726 b 576 85 989 267 807 85 z m 493 222 l 597 222 b 765 686 597 410 658 550 l 765 761 l 397 761 l 397 669 l 650 669 b 493 222 550 540 493 385 z "},"⑧":{"ha":1156,"x_min":0,"x_max":0,"o":"m 576 -24 b 1099 497 864 -24 1099 208 b 576 1015 1099 783 864 1015 b 58 497 290 1015 58 783 b 576 -24 58 208 290 -24 z m 576 85 b 165 497 346 85 165 267 b 576 907 165 726 346 907 b 989 497 807 907 989 726 b 576 85 989 267 807 85 z m 581 211 b 790 367 722 211 790 269 b 676 513 790 433 747 485 b 765 632 732 531 765 564 b 581 771 765 718 706 771 b 396 632 457 771 396 718 b 485 513 396 564 431 531 b 371 367 413 486 371 435 b 581 211 371 269 440 211 z m 581 550 b 501 619 531 550 501 574 b 581 682 501 658 529 682 b 660 619 632 682 660 658 b 581 550 660 574 632 550 z m 581 300 b 478 376 515 300 478 325 b 581 465 478 426 515 465 b 683 376 647 465 683 426 b 581 300 683 325 647 300 z "},"⑨":{"ha":1156,"x_min":0,"x_max":0,"o":"m 576 -24 b 1099 497 864 -24 1099 208 b 576 1015 1099 783 864 1015 b 58 497 290 1015 58 783 b 576 -24 58 208 290 -24 z m 576 85 b 165 497 346 85 165 267 b 576 907 165 726 346 907 b 989 497 807 907 989 726 b 576 85 989 267 807 85 z m 592 771 b 382 581 469 771 382 701 b 574 393 382 454 463 393 b 694 447 632 393 675 417 b 574 299 688 353 643 299 b 486 356 522 299 494 318 l 388 346 b 572 211 407 257 461 211 b 800 518 733 211 800 346 b 592 771 800 685 718 771 z m 589 682 b 692 578 654 682 693 640 b 589 478 690 515 649 478 b 483 578 521 478 483 514 b 589 682 483 640 522 682 z "},"⁄":{"ha":233,"x_min":0,"x_max":0,"o":"m -278 0 l -161 0 l 511 986 l 394 986 z "},"½":{"ha":1132,"x_min":0,"x_max":0,"o":"m 164 449 l 271 449 l 271 988 l 189 988 b 63 867 189 913 144 867 l 28 867 l 28 786 l 164 788 z m 126 0 l 243 0 l 915 986 l 799 986 z m 694 0 l 1075 0 l 1075 92 l 811 92 b 886 186 811 122 832 157 l 944 217 b 1075 390 1025 258 1075 303 b 894 549 1075 483 1010 549 b 694 372 774 549 706 481 l 794 368 b 894 460 803 431 833 460 b 972 389 939 460 972 433 b 906 294 972 340 956 322 l 836 257 b 694 0 714 192 694 126 z "},"⅓":{"ha":1117,"x_min":0,"x_max":0,"o":"m 164 449 l 271 449 l 271 988 l 189 988 b 63 867 189 913 144 867 l 28 867 l 28 786 l 164 788 z m 126 0 l 243 0 l 915 986 l 799 986 z m 869 -11 b 1075 153 993 -11 1075 53 b 953 286 1075 217 1043 265 b 1050 403 1015 303 1050 338 b 864 549 1050 489 990 549 b 672 400 746 549 683 488 l 778 393 b 864 458 781 431 811 458 b 944 389 919 458 944 431 b 864 322 944 344 913 322 l 826 322 l 826 238 l 864 238 b 968 157 936 238 968 206 b 869 78 968 108 933 78 b 769 147 803 78 774 106 l 665 143 b 869 -11 672 49 719 -11 z "},"⅔":{"ha":1206,"x_min":0,"x_max":0,"o":"m 57 449 l 436 449 l 436 540 l 174 540 b 247 635 174 571 194 606 l 307 665 b 438 839 388 707 438 751 b 256 997 438 932 372 997 b 57 821 136 997 68 929 l 157 817 b 257 908 165 879 196 908 b 335 838 301 908 335 882 b 268 743 335 789 318 771 l 197 706 b 57 449 76 640 57 575 z m 217 0 l 333 0 l 1006 986 l 889 986 z m 960 -11 b 1164 153 1083 -11 1164 53 b 1043 286 1164 217 1133 265 b 1139 403 1106 303 1139 338 b 953 549 1139 489 1079 549 b 763 400 836 549 774 488 l 867 393 b 953 458 871 431 901 458 b 1035 389 1010 458 1035 431 b 954 322 1035 344 1003 322 l 917 322 l 917 238 l 954 238 b 1058 157 1026 238 1058 206 b 960 78 1058 108 1024 78 b 860 147 892 78 864 106 l 756 143 b 960 -11 763 49 808 -11 z "},"¼":{"ha":1043,"x_min":0,"x_max":0,"o":"m 164 449 l 271 449 l 271 988 l 189 988 b 63 867 189 913 144 867 l 28 867 l 28 786 l 164 788 z m 126 0 l 243 0 l 915 986 l 799 986 z m 836 0 l 943 0 l 943 118 l 1015 118 l 1015 208 l 943 208 l 943 538 l 836 538 l 585 199 l 585 118 l 836 118 z m 693 208 l 836 394 l 836 208 z "},"¾":{"ha":1117,"x_min":0,"x_max":0,"o":"m 232 438 b 436 601 356 438 436 501 b 315 735 436 665 406 714 b 411 851 378 751 411 786 b 225 997 411 938 351 997 b 35 849 108 997 46 936 l 139 842 b 225 907 143 879 174 907 b 307 838 282 907 307 879 b 226 771 307 793 275 771 l 189 771 l 189 686 l 226 686 b 331 606 299 686 331 654 b 232 526 331 557 296 526 b 132 596 164 526 136 554 l 28 592 b 232 438 35 497 81 438 z m 200 0 l 317 0 l 989 986 l 872 986 z m 910 0 l 1017 0 l 1017 118 l 1089 118 l 1089 208 l 1017 208 l 1017 538 l 910 538 l 658 199 l 658 118 l 910 118 z m 767 208 l 910 394 l 910 208 z "},"⅕":{"ha":1133,"x_min":0,"x_max":0,"o":"m 164 449 l 271 449 l 271 988 l 189 988 b 63 867 189 913 144 867 l 28 867 l 28 786 l 164 788 z m 126 0 l 243 0 l 915 986 l 799 986 z m 888 -11 b 1092 176 1014 -11 1092 60 b 919 357 1092 281 1036 357 b 817 321 874 357 838 343 l 831 449 l 1057 449 l 1057 538 l 743 538 l 703 224 l 803 224 b 899 275 822 254 849 275 b 988 176 957 275 988 233 b 889 78 988 114 951 78 b 797 139 838 78 807 97 l 693 133 b 888 -11 701 42 771 -11 z "},"⅛":{"ha":1140,"x_min":0,"x_max":0,"o":"m 164 449 l 271 449 l 271 988 l 189 988 b 63 867 189 913 144 867 l 28 867 l 28 786 l 164 788 z m 126 0 l 243 0 l 915 986 l 799 986 z m 889 -11 b 1099 144 1031 -11 1099 47 b 985 290 1099 211 1056 263 b 1074 410 1040 308 1074 342 b 889 549 1074 496 1014 549 b 704 410 765 549 704 496 b 793 290 704 342 739 308 b 679 144 721 264 679 213 b 889 -11 679 47 749 -11 z m 889 328 b 810 397 839 328 810 351 b 889 460 810 436 838 460 b 968 397 940 460 968 436 b 889 328 968 351 940 328 z m 889 78 b 786 154 824 78 786 103 b 889 243 786 204 824 243 b 992 154 956 243 992 204 b 889 78 992 103 956 78 z "},"⅜":{"ha":1214,"x_min":0,"x_max":0,"o":"m 232 438 b 436 601 356 438 436 501 b 315 735 436 665 406 714 b 411 851 378 751 411 786 b 225 997 411 938 351 997 b 35 849 108 997 46 936 l 139 842 b 225 907 143 879 174 907 b 307 838 282 907 307 879 b 226 771 307 793 275 771 l 189 771 l 189 686 l 226 686 b 331 606 299 686 331 654 b 232 526 331 557 296 526 b 132 596 164 526 136 554 l 28 592 b 232 438 35 497 81 438 z m 200 0 l 317 0 l 989 986 l 872 986 z m 963 -11 b 1172 144 1104 -11 1172 47 b 1058 290 1172 211 1129 263 b 1147 410 1114 308 1147 342 b 963 549 1147 496 1089 549 b 779 410 839 549 779 496 b 867 290 779 342 813 308 b 753 144 796 264 753 213 b 963 -11 753 47 822 -11 z m 963 328 b 883 397 913 328 883 351 b 963 460 883 436 911 460 b 1042 397 1015 460 1042 436 b 963 328 1042 351 1014 328 z m 963 78 b 860 154 897 78 860 103 b 963 243 860 204 897 243 b 1067 154 1029 243 1067 204 b 963 78 1067 103 1029 78 z "},"⅝":{"ha":1232,"x_min":0,"x_max":0,"o":"m 250 438 b 454 625 376 438 454 508 b 282 806 454 729 397 806 b 179 769 236 806 200 792 l 193 897 l 419 897 l 419 986 l 106 986 l 65 672 l 164 672 b 261 724 185 703 211 724 b 350 625 319 724 350 682 b 251 526 350 563 314 526 b 160 588 200 526 169 546 l 56 582 b 250 438 64 490 133 438 z m 218 0 l 335 0 l 1007 986 l 890 986 z m 981 -11 b 1190 144 1121 -11 1190 47 b 1076 290 1190 211 1147 263 b 1165 410 1132 308 1165 342 b 981 549 1165 496 1106 549 b 796 410 857 549 796 496 b 885 290 796 342 829 308 b 771 144 813 264 771 213 b 981 -11 771 47 840 -11 z m 981 328 b 901 397 931 328 901 351 b 981 460 901 436 929 460 b 1060 397 1032 460 1060 436 b 981 328 1060 351 1031 328 z m 981 78 b 878 154 915 78 878 103 b 981 243 878 204 915 243 b 1083 154 1046 243 1083 204 b 981 78 1083 103 1046 78 z "},"⅞":{"ha":1118,"x_min":0,"x_max":0,"o":"m 122 447 l 228 447 b 396 911 228 635 288 775 l 396 986 l 28 986 l 28 894 l 281 894 b 122 447 181 765 122 610 z m 104 0 l 221 0 l 893 986 l 776 986 z m 867 -11 b 1076 144 1008 -11 1076 47 b 963 290 1076 211 1033 263 b 1051 410 1018 308 1051 342 b 867 549 1051 496 992 549 b 682 410 743 549 682 496 b 771 290 682 342 717 308 b 657 144 699 264 657 213 b 867 -11 657 47 726 -11 z m 867 328 b 788 397 817 328 788 351 b 867 460 788 436 815 460 b 946 397 918 460 946 436 b 867 328 946 351 918 328 z m 867 78 b 764 154 801 78 764 103 b 867 243 764 204 801 243 b 969 154 933 243 969 204 b 867 78 969 103 933 78 z "},"₀":{"ha":561,"x_min":0,"x_max":0,"o":"m 281 -150 b 506 131 417 -150 506 -43 b 281 410 506 306 418 410 b 56 131 142 410 56 306 b 281 -150 56 -43 143 -150 z m 163 131 b 281 318 163 257 201 318 b 340 301 303 318 324 313 l 176 32 b 163 131 167 60 163 93 z m 281 -58 b 221 -39 258 -58 238 -51 l 385 233 b 399 131 394 206 399 171 b 281 -58 399 6 357 -58 z "},"₁":{"ha":354,"x_min":0,"x_max":0,"o":"m 164 -139 l 271 -139 l 271 400 l 189 400 b 63 279 189 325 144 279 l 28 279 l 28 199 l 164 200 z "},"₂":{"ha":494,"x_min":0,"x_max":0,"o":"m 57 -139 l 436 -139 l 436 -47 l 174 -47 b 247 47 174 -17 194 18 l 307 78 b 438 251 388 119 438 164 b 256 410 438 344 372 410 b 57 233 136 410 68 342 l 157 229 b 257 321 165 292 196 321 b 335 250 301 321 335 294 b 268 156 335 201 318 183 l 197 118 b 57 -139 76 53 57 -12 z "},"₃":{"ha":478,"x_min":0,"x_max":0,"o":"m 232 -150 b 436 14 356 -150 436 -86 b 315 147 436 78 406 126 b 411 264 378 164 411 199 b 225 410 411 350 351 410 b 35 261 108 410 46 349 l 139 254 b 225 319 143 292 174 319 b 307 250 282 319 307 292 b 226 183 307 206 275 183 l 189 183 l 189 99 l 226 99 b 331 18 299 99 331 67 b 232 -61 331 -31 296 -61 b 132 8 164 -61 136 -33 l 28 4 b 232 -150 35 -90 81 -150 z "},"₄":{"ha":472,"x_min":0,"x_max":0,"o":"m 265 -139 l 372 -139 l 372 -21 l 444 -21 l 444 69 l 372 69 l 372 399 l 264 399 l 14 60 l 14 -21 l 265 -21 z m 122 69 l 265 256 l 265 69 z "},"₅":{"ha":496,"x_min":0,"x_max":0,"o":"m 250 -150 b 454 38 376 -150 454 -79 b 282 218 454 142 397 218 b 179 182 236 218 200 204 l 193 310 l 419 310 l 419 399 l 106 399 l 65 85 l 164 85 b 261 136 185 115 211 136 b 350 38 319 136 350 94 b 251 -61 350 -25 314 -61 b 160 0 200 -61 169 -42 l 56 -6 b 250 -150 64 -97 133 -150 z "},"₆":{"ha":529,"x_min":0,"x_max":0,"o":"m 264 -150 b 472 40 386 -150 472 -81 b 281 228 472 167 393 228 b 161 174 222 228 181 204 b 281 322 167 268 211 322 b 369 265 332 322 360 303 l 468 275 b 282 410 449 364 394 410 b 56 103 122 410 56 275 b 264 -150 56 -64 138 -150 z m 265 -61 b 163 43 201 -61 161 -19 b 267 143 164 106 206 143 b 371 43 335 143 371 107 b 265 -61 371 -19 332 -61 z "},"₇":{"ha":424,"x_min":0,"x_max":0,"o":"m 122 -139 l 228 -139 b 396 325 228 49 288 189 l 396 400 l 28 400 l 28 308 l 281 308 b 122 -139 181 179 122 24 z "},"₈":{"ha":503,"x_min":0,"x_max":0,"o":"m 251 -150 b 461 6 392 -150 461 -92 b 347 151 461 72 418 124 b 436 271 403 169 436 203 b 251 410 436 357 376 410 b 67 271 128 410 67 357 b 156 151 67 203 100 169 b 42 6 83 125 42 74 b 251 -150 42 -92 111 -150 z m 251 189 b 172 258 201 189 172 213 b 251 321 172 297 200 321 b 331 258 303 321 331 297 b 251 189 331 213 301 189 z m 251 -61 b 149 15 186 -61 149 -36 b 251 104 149 65 186 104 b 354 15 317 104 354 65 b 251 -61 354 -36 317 -61 z "},"₉":{"ha":529,"x_min":0,"x_max":0,"o":"m 265 410 b 57 219 143 410 57 340 b 247 32 57 93 136 32 b 368 86 306 32 349 56 b 247 -62 361 -8 318 -62 b 160 -6 196 -62 169 -43 l 61 -15 b 246 -150 81 -104 135 -150 b 474 157 407 -150 474 -15 b 265 410 474 324 392 410 z m 264 321 b 367 217 328 321 368 279 b 263 117 365 154 324 117 b 158 217 194 117 158 153 b 264 321 158 279 196 321 z "},"⁰":{"ha":561,"x_min":0,"x_max":0,"o":"m 281 438 b 506 718 417 438 506 544 b 281 997 506 893 418 997 b 56 718 142 997 56 893 b 281 438 56 544 143 438 z m 163 718 b 281 906 163 844 201 906 b 340 889 303 906 324 900 l 176 619 b 163 718 167 647 163 681 z m 281 529 b 221 549 258 529 238 536 l 385 821 b 399 718 394 793 399 758 b 281 529 399 593 357 529 z "},"¹":{"ha":354,"x_min":0,"x_max":0,"o":"m 164 449 l 271 449 l 271 988 l 189 988 b 63 867 189 913 144 867 l 28 867 l 28 786 l 164 788 z "},"²":{"ha":494,"x_min":0,"x_max":0,"o":"m 57 449 l 436 449 l 436 540 l 174 540 b 247 635 174 571 194 606 l 307 665 b 438 839 388 707 438 751 b 256 997 438 932 372 997 b 57 821 136 997 68 929 l 157 817 b 257 908 165 879 196 908 b 335 838 301 908 335 882 b 268 743 335 789 318 771 l 197 706 b 57 449 76 640 57 575 z "},"³":{"ha":478,"x_min":0,"x_max":0,"o":"m 232 438 b 436 601 356 438 436 501 b 315 735 436 665 406 714 b 411 851 378 751 411 786 b 225 997 411 938 351 997 b 35 849 108 997 46 936 l 139 842 b 225 907 143 879 174 907 b 307 838 282 907 307 879 b 226 771 307 793 275 771 l 189 771 l 189 686 l 226 686 b 331 606 299 686 331 654 b 232 526 331 557 296 526 b 132 596 164 526 136 554 l 28 592 b 232 438 35 497 81 438 z "},"⁴":{"ha":472,"x_min":0,"x_max":0,"o":"m 265 449 l 372 449 l 372 567 l 444 567 l 444 657 l 372 657 l 372 986 l 264 986 l 14 647 l 14 567 l 265 567 z m 122 657 l 265 843 l 265 657 z "},"⁵":{"ha":496,"x_min":0,"x_max":0,"o":"m 250 438 b 454 625 376 438 454 508 b 282 806 454 729 397 806 b 179 769 236 806 200 792 l 193 897 l 419 897 l 419 986 l 106 986 l 65 672 l 164 672 b 261 724 185 703 211 724 b 350 625 319 724 350 682 b 251 526 350 563 314 526 b 160 588 200 526 169 546 l 56 582 b 250 438 64 490 133 438 z "},"⁶":{"ha":529,"x_min":0,"x_max":0,"o":"m 264 438 b 472 628 386 438 472 507 b 281 815 472 754 393 815 b 161 761 222 815 181 792 b 281 910 167 856 211 910 b 369 853 332 910 360 890 l 468 863 b 282 997 449 951 394 997 b 56 690 122 997 56 863 b 264 438 56 524 138 438 z m 265 526 b 163 631 201 526 161 568 b 267 731 164 693 206 731 b 371 631 335 731 371 694 b 265 526 371 568 332 526 z "},"⁷":{"ha":424,"x_min":0,"x_max":0,"o":"m 122 447 l 228 447 b 396 911 228 635 288 775 l 396 986 l 28 986 l 28 894 l 281 894 b 122 447 181 765 122 610 z "},"⁸":{"ha":503,"x_min":0,"x_max":0,"o":"m 251 438 b 461 593 392 438 461 496 b 347 739 461 660 418 711 b 436 858 403 757 436 790 b 251 997 436 944 376 997 b 67 858 128 997 67 944 b 156 739 67 790 100 757 b 42 593 83 713 42 661 b 251 438 42 496 111 438 z m 251 776 b 172 846 201 776 172 800 b 251 908 172 885 200 908 b 331 846 303 908 331 885 b 251 776 331 800 301 776 z m 251 526 b 149 603 186 526 149 551 b 251 692 149 653 186 692 b 354 603 317 692 354 653 b 251 526 354 551 317 526 z "},"⁹":{"ha":529,"x_min":0,"x_max":0,"o":"m 265 997 b 57 807 143 997 57 928 b 247 619 57 681 136 619 b 368 674 306 619 349 643 b 247 525 361 579 318 525 b 160 582 196 525 169 544 l 61 572 b 246 438 81 483 135 438 b 474 744 407 438 474 572 b 265 997 474 911 392 997 z m 264 908 b 367 804 328 908 368 867 b 263 704 365 742 324 704 b 158 804 194 704 158 740 b 264 908 158 867 196 908 z "}," ":{"ha":338,"x_min":0,"x_max":0,"o":""}," ":{"ha":338,"x_min":0,"x_max":0,"o":""},".":{"ha":296,"x_min":0,"x_max":0,"o":"m 58 0 l 238 0 l 238 175 l 58 175 z "},",":{"ha":296,"x_min":0,"x_max":0,"o":"m 65 -218 l 150 -218 l 238 21 l 238 175 l 58 175 l 58 0 l 135 0 z "},":":{"ha":419,"x_min":0,"x_max":0,"o":"m 119 529 l 300 529 l 300 704 l 119 704 z m 119 0 l 300 0 l 300 175 l 119 175 z "},";":{"ha":419,"x_min":0,"x_max":0,"o":"m 119 529 l 300 529 l 300 704 l 119 704 z m 128 -218 l 211 -218 l 300 21 l 300 175 l 119 175 l 119 0 l 197 0 z "},"…":{"ha":850,"x_min":0,"x_max":0,"o":"m 58 0 l 238 0 l 238 175 l 58 175 z m 335 0 l 515 0 l 515 175 l 335 175 z m 613 0 l 793 0 l 793 175 l 613 175 z "},"!":{"ha":317,"x_min":0,"x_max":0,"o":"m 114 294 l 213 294 b 238 674 222 392 238 563 l 238 986 l 88 986 l 88 674 b 114 294 88 563 104 392 z m 68 0 l 249 0 l 249 175 l 68 175 z "},"¡":{"ha":317,"x_min":0,"x_max":0,"o":"m 68 761 l 68 586 l 249 586 l 249 761 z m 88 -225 l 238 -225 l 238 88 b 213 467 238 199 222 369 l 114 467 b 88 88 104 369 88 199 z "},"?":{"ha":792,"x_min":0,"x_max":0,"o":"m 317 290 l 465 290 b 560 471 465 383 488 425 b 733 724 681 547 733 606 b 415 1008 733 889 610 1008 b 58 694 204 1008 75 878 l 214 686 b 415 874 226 808 292 874 b 579 724 518 874 579 810 b 453 554 579 647 558 615 b 317 290 356 497 317 428 z m 299 0 l 478 0 l 478 175 l 299 175 z "},"¿":{"ha":792,"x_min":0,"x_max":0,"o":"m 493 783 l 313 783 l 313 608 l 493 608 z m 376 -225 b 733 89 588 -225 717 -94 l 578 97 b 376 -90 565 -25 500 -90 b 213 60 274 -90 213 -26 b 339 229 213 136 233 168 b 474 493 436 286 474 356 l 326 493 b 232 313 326 400 304 358 b 58 60 111 236 58 178 b 376 -225 58 -106 181 -225 z "},"·":{"ha":296,"x_min":0,"x_max":0,"o":"m 58 333 l 238 333 l 238 510 l 58 510 z "},"•":{"ha":457,"x_min":0,"x_max":0,"o":"m 229 263 b 401 429 333 263 401 333 b 229 596 401 526 333 596 b 57 429 124 596 57 526 b 229 263 57 333 124 263 z "},"*":{"ha":593,"x_min":0,"x_max":0,"o":"m 213 522 l 297 663 l 383 522 l 467 574 l 378 708 l 536 708 l 536 814 l 378 813 l 467 947 l 383 1000 l 297 858 l 213 1000 l 128 947 l 217 813 l 58 814 l 58 708 l 217 708 l 128 574 z "},"#":{"ha":715,"x_min":0,"x_max":0,"o":"m 57 0 l 186 0 l 232 258 l 396 258 l 351 0 l 481 0 l 526 258 l 644 258 l 663 378 l 547 378 l 586 603 l 699 603 l 717 722 l 607 722 l 654 986 l 524 986 l 478 722 l 314 722 l 360 986 l 229 986 l 183 722 l 65 722 l 47 603 l 163 603 l 122 378 l 11 378 l -8 258 l 101 258 z m 253 378 l 292 603 l 457 603 l 417 378 z "},"/":{"ha":686,"x_min":0,"x_max":0,"o":"m 51 -153 l 194 -153 l 604 1042 l 463 1042 z "},"\\":{"ha":653,"x_min":0,"x_max":0,"o":"m 603 -153 l 193 1042 l 50 1042 l 460 -153 z "},"-":{"ha":581,"x_min":0,"x_max":0,"o":"m 58 340 l 524 340 l 524 469 l 58 469 z "},"–":{"ha":822,"x_min":0,"x_max":0,"o":"m 58 342 l 765 342 l 765 469 l 58 469 z "},"—":{"ha":1261,"x_min":0,"x_max":0,"o":"m 58 342 l 1204 342 l 1204 469 l 58 469 z "},"_":{"ha":775,"x_min":0,"x_max":0,"o":"m 58 -128 l 718 -128 l 718 0 l 58 0 z "},"〜":{"ha":1186,"x_min":0,"x_max":0,"o":"m 826 275 b 1129 422 921 275 1026 324 l 1058 525 b 824 406 960 436 901 406 b 615 476 753 406 724 421 b 375 550 518 526 440 550 b 58 399 267 550 183 514 l 128 297 b 369 419 215 378 285 419 b 571 360 431 419 504 396 b 826 275 671 307 726 275 z "},"(":{"ha":403,"x_min":0,"x_max":0,"o":"m 253 -153 l 383 -153 b 210 444 268 47 210 246 b 383 1042 210 643 268 843 l 253 1042 b 61 444 126 849 61 647 b 253 -153 61 242 126 40 z "},")":{"ha":403,"x_min":0,"x_max":0,"o":"m 150 -153 b 342 444 278 40 342 242 b 150 1042 342 647 278 849 l 19 1042 b 193 444 135 843 193 643 b 19 -153 193 246 135 47 z "},"{":{"ha":549,"x_min":0,"x_max":0,"o":"m 449 -164 l 529 -164 l 529 -35 b 339 92 393 -39 339 -1 l 339 208 b 182 440 339 344 269 424 l 182 443 b 339 672 267 460 339 536 l 339 790 b 529 914 339 882 393 918 l 529 1046 l 449 1046 b 199 799 292 1046 199 943 l 199 683 b 61 507 199 565 151 506 l 61 375 b 199 197 151 375 199 315 l 199 82 b 449 -164 199 -62 292 -164 z "},"}":{"ha":549,"x_min":0,"x_max":0,"o":"m 100 -164 b 350 82 257 -164 350 -62 l 350 197 b 488 375 350 315 397 375 l 488 507 b 350 683 397 506 350 565 l 350 799 b 100 1046 350 943 257 1046 l 19 1046 l 19 914 b 210 790 156 918 210 882 l 210 672 b 368 443 210 536 282 460 l 368 440 b 210 208 281 424 210 344 l 210 92 b 19 -35 210 -1 156 -39 l 19 -164 z "},"[":{"ha":501,"x_min":0,"x_max":0,"o":"m 482 -153 l 482 -33 l 260 -33 l 260 922 l 482 922 l 482 1042 l 119 1042 l 119 -153 z "},"]":{"ha":501,"x_min":0,"x_max":0,"o":"m 19 -153 l 382 -153 l 382 1042 l 19 1042 l 19 922 l 242 922 l 242 -33 l 19 -33 z "},"‚":{"ha":296,"x_min":0,"x_max":0,"o":"m 65 -218 l 150 -218 l 238 21 l 238 175 l 58 175 l 58 0 l 135 0 z "},"„":{"ha":549,"x_min":0,"x_max":0,"o":"m 318 -219 l 403 -219 l 490 18 l 490 174 l 310 174 l 310 -3 l 388 -3 z m 65 -219 l 150 -219 l 238 18 l 238 174 l 58 174 l 58 -3 l 135 -3 z "},"“":{"ha":554,"x_min":0,"x_max":0,"o":"m 233 1008 l 149 1008 l 61 769 l 61 615 l 242 615 l 242 790 l 164 790 z m 486 1008 l 401 1008 l 314 769 l 314 615 l 493 615 l 493 790 l 417 790 z "},"”":{"ha":554,"x_min":0,"x_max":0,"o":"m 322 593 l 406 593 l 493 831 l 493 986 l 314 986 l 314 811 l 392 811 z m 69 593 l 153 593 l 242 831 l 242 986 l 61 986 l 61 811 l 139 811 z "},"‘":{"ha":303,"x_min":0,"x_max":0,"o":"m 233 1008 l 149 1008 l 61 769 l 61 615 l 242 615 l 242 790 l 164 790 z "},"’":{"ha":303,"x_min":0,"x_max":0,"o":"m 69 593 l 153 593 l 242 831 l 242 986 l 61 986 l 61 811 l 139 811 z "},"«":{"ha":792,"x_min":0,"x_max":0,"o":"m 425 106 l 186 383 l 425 661 l 253 661 l 58 435 l 58 332 l 253 106 z m 735 106 l 496 383 l 735 661 l 561 661 l 367 435 l 367 332 l 561 106 z "},"»":{"ha":800,"x_min":0,"x_max":0,"o":"m 365 106 l 538 106 l 732 332 l 732 435 l 538 661 l 365 661 l 603 383 z m 56 106 l 229 106 l 424 332 l 424 435 l 229 661 l 56 661 l 294 383 z "},"‹":{"ha":483,"x_min":0,"x_max":0,"o":"m 425 106 l 186 383 l 425 661 l 253 661 l 58 435 l 58 332 l 253 106 z "},"›":{"ha":483,"x_min":0,"x_max":0,"o":"m 58 106 l 231 106 l 425 332 l 425 435 l 231 661 l 58 661 l 296 383 z "},"\"":{"ha":501,"x_min":0,"x_max":0,"o":"m 89 611 l 189 611 l 197 986 l 61 986 l 61 874 z m 313 611 l 411 611 l 440 874 l 440 986 l 303 986 z "},"'":{"ha":258,"x_min":0,"x_max":0,"o":"m 83 611 l 176 611 l 197 874 l 197 986 l 61 986 l 61 874 z "},"ƒ":{"ha":718,"x_min":0,"x_max":0,"o":"m 76 0 l 172 -1 b 388 189 300 -4 374 65 l 435 606 l 667 606 l 667 726 l 449 726 l 454 783 b 539 861 460 833 489 861 l 667 861 l 667 985 l 528 986 b 314 796 403 988 328 919 l 306 726 l 181 726 l 181 606 l 293 606 l 249 201 b 164 125 243 151 214 125 l 76 125 z "},"฿":{"ha":918,"x_min":0,"x_max":0,"o":"m 119 0 l 378 0 l 378 -126 l 483 -126 l 483 0 l 485 0 b 838 279 707 0 838 106 b 613 510 838 410 754 494 b 796 713 724 528 796 606 b 483 985 796 876 686 971 l 483 1118 l 378 1118 l 378 986 l 119 986 z m 269 565 l 269 851 l 378 851 l 378 565 z m 643 707 b 483 568 643 628 588 579 l 483 849 b 643 707 588 836 643 788 z m 269 135 l 269 438 l 378 438 l 378 135 z m 485 438 b 685 285 614 438 685 382 b 485 135 685 190 610 135 l 483 135 l 483 438 z "},"☹":{"ha":1156,"x_min":0,"x_max":0,"o":"m 576 -24 b 1099 497 864 -24 1099 208 b 576 1015 1099 783 864 1015 b 58 497 290 1015 58 783 b 576 -24 58 208 290 -24 z m 576 85 b 165 497 346 85 165 267 b 576 907 165 726 346 907 b 989 497 807 907 989 726 b 576 85 989 267 807 85 z m 446 572 b 517 644 485 572 517 604 b 446 713 517 682 485 713 b 375 644 406 713 375 682 b 446 572 375 604 406 572 z m 725 572 b 796 644 764 572 796 604 b 725 713 796 682 764 713 b 654 644 686 713 654 682 b 725 572 654 604 686 572 z m 307 286 l 413 286 b 585 415 443 369 504 415 b 756 286 664 415 726 369 l 861 286 b 585 514 829 425 722 514 b 307 286 447 514 340 425 z "},"☺":{"ha":1156,"x_min":0,"x_max":0,"o":"m 576 -24 b 1099 497 864 -24 1099 208 b 576 1015 1099 783 864 1015 b 58 497 290 1015 58 783 b 576 -24 58 208 290 -24 z m 576 85 b 165 497 346 85 165 267 b 576 907 165 726 346 907 b 989 497 807 907 989 726 b 576 85 989 267 807 85 z m 446 572 b 517 644 485 572 517 604 b 446 713 517 682 485 713 b 375 644 406 713 375 682 b 446 572 375 604 406 572 z m 725 572 b 796 644 764 572 796 604 b 725 713 796 682 764 713 b 654 644 686 713 654 682 b 725 572 654 604 686 572 z m 585 228 b 885 488 738 228 863 338 l 783 488 b 585 325 761 393 681 325 b 386 488 488 325 407 393 l 286 488 b 585 228 307 338 432 228 z "},"":{"ha":833,"x_min":0,"x_max":0,"o":"m 146 0 l 688 0 b 822 135 765 0 822 57 l 822 676 b 688 811 822 754 765 811 l 146 811 b 11 676 68 811 11 754 l 11 135 b 146 0 11 57 68 0 z m 119 172 l 415 688 l 713 172 z "},"@":{"ha":1285,"x_min":0,"x_max":0,"o":"m 900 -97 l 874 4 b 586 -53 786 -33 689 -53 b 172 350 321 -53 172 93 b 686 881 172 667 379 881 b 1113 483 964 881 1113 740 b 965 214 1113 314 1057 214 b 899 276 922 214 899 236 b 907 407 899 310 904 365 l 931 693 l 810 693 l 804 613 b 625 697 772 664 707 697 b 333 361 449 697 333 550 b 585 106 333 208 422 106 b 797 222 668 106 753 156 b 951 113 814 154 871 113 b 1224 492 1113 113 1224 264 b 690 986 1224 792 1013 986 b 61 346 318 986 61 725 b 582 -158 61 28 253 -158 b 900 -97 699 -158 801 -137 z m 608 213 b 468 371 506 213 468 279 b 644 590 468 490 531 590 b 792 429 747 590 792 521 b 608 213 792 319 732 213 z "},"&":{"ha":901,"x_min":0,"x_max":0,"o":"m 374 -22 b 654 56 503 -22 599 8 l 700 0 l 876 0 l 753 147 b 851 432 810 214 849 322 l 703 446 b 658 257 703 363 688 299 l 456 513 b 664 789 603 606 664 679 b 411 1008 664 921 575 1008 b 150 772 247 1008 150 918 b 251 544 150 686 188 624 b 53 242 103 446 53 368 b 374 -22 53 72 171 -22 z m 378 610 b 306 769 324 678 306 719 b 413 871 306 833 344 871 b 510 778 474 871 510 838 b 378 610 510 713 472 668 z m 389 113 b 208 250 265 113 208 167 b 333 442 208 326 244 381 l 557 163 b 389 113 528 133 472 113 z "},"¶":{"ha":858,"x_min":0,"x_max":0,"o":"m 371 0 l 507 0 l 507 863 l 603 863 l 603 0 l 739 0 l 739 986 l 382 986 b 61 706 192 986 61 876 b 371 426 61 535 186 426 z "},"§":{"ha":789,"x_min":0,"x_max":0,"o":"m 410 -90 b 711 121 588 -90 711 -4 b 599 293 711 203 676 256 b 713 449 675 324 713 375 b 415 683 713 578 631 635 b 254 794 293 714 254 740 b 390 885 254 847 311 885 b 564 758 486 885 550 839 l 713 767 b 401 1008 692 919 575 1008 b 100 789 218 1008 100 925 b 222 635 100 725 140 672 b 97 464 140 597 99 539 b 363 250 96 353 171 289 b 560 128 507 221 560 182 b 407 35 560 71 518 35 b 226 169 299 35 239 86 l 75 160 b 410 -90 89 14 211 -90 z m 439 351 b 238 472 288 353 238 413 b 369 574 238 528 297 574 b 575 454 464 574 575 538 b 439 351 575 392 521 351 z "},"©":{"ha":1147,"x_min":0,"x_max":0,"o":"m 574 -17 b 1086 496 857 -17 1086 213 b 574 1008 1086 779 857 1008 b 61 496 290 1008 61 779 b 574 -17 61 213 290 -17 z m 574 100 b 181 496 360 100 181 275 b 574 892 181 717 360 892 b 967 496 788 892 967 717 b 574 100 967 275 788 100 z m 579 206 b 840 432 719 206 826 300 l 718 439 b 579 313 707 363 651 313 b 422 496 486 313 422 386 b 579 678 422 604 486 678 b 713 563 649 678 703 631 l 835 569 b 579 785 822 696 718 785 b 300 496 415 785 300 667 b 579 206 300 325 415 206 z "},"®":{"ha":889,"x_min":0,"x_max":0,"o":"m 444 240 b 828 625 657 240 828 413 b 444 1008 828 838 657 1008 b 61 625 232 1008 61 838 b 444 240 61 413 232 240 z m 444 322 b 144 625 269 322 144 461 b 444 925 144 789 269 925 b 743 625 619 925 743 789 b 444 322 743 461 619 322 z m 289 417 l 378 417 l 378 575 l 435 575 l 525 417 l 622 417 l 521 588 b 608 703 576 603 608 646 b 436 832 608 783 543 832 l 289 832 z m 378 646 l 378 758 l 440 758 b 521 704 492 758 521 740 b 440 646 521 667 492 646 z "},"℗":{"ha":889,"x_min":0,"x_max":0,"o":"m 444 240 b 828 625 657 240 828 413 b 444 1008 828 838 657 1008 b 61 625 232 1008 61 838 b 444 240 61 413 232 240 z m 444 322 b 144 625 269 322 144 461 b 444 925 144 789 269 925 b 743 625 619 925 743 789 b 444 322 743 461 619 322 z m 313 417 l 400 417 l 400 575 l 460 575 b 631 703 568 575 631 619 b 460 832 631 783 568 832 l 313 832 z m 400 646 l 400 758 l 464 758 b 543 704 514 758 543 740 b 464 646 543 667 514 646 z "},"™":{"ha":1249,"x_min":0,"x_max":0,"o":"m 582 499 l 678 499 l 678 832 l 801 499 l 910 499 l 1033 838 l 1033 499 l 1129 499 l 1129 986 l 1003 986 l 856 599 l 710 986 l 582 986 z m 269 499 l 369 499 l 369 894 l 518 894 l 518 986 l 119 986 l 119 894 l 269 894 z "},"°":{"ha":572,"x_min":0,"x_max":0,"o":"m 286 551 b 514 781 411 551 514 650 b 286 1008 514 910 411 1008 b 58 781 163 1008 58 910 b 286 551 58 650 163 551 z m 286 668 b 175 781 225 668 175 714 b 286 894 175 847 226 894 b 397 781 346 894 397 847 b 286 668 397 714 347 668 z "},"′":{"ha":314,"x_min":0,"x_max":0,"o":"m 56 667 l 183 667 l 258 986 l 117 986 z "},"″":{"ha":510,"x_min":0,"x_max":0,"o":"m 56 667 l 183 667 l 258 986 l 117 986 z m 253 667 l 379 667 l 454 986 l 313 986 z "},"|":{"ha":381,"x_min":0,"x_max":0,"o":"m 119 -153 l 261 -153 l 261 1042 l 119 1042 z "},"¦":{"ha":381,"x_min":0,"x_max":0,"o":"m 119 549 l 261 549 l 261 1042 l 119 1042 z m 119 -153 l 261 -153 l 261 340 l 119 340 z "},"†":{"ha":813,"x_min":0,"x_max":0,"o":"m 336 0 l 475 0 l 475 615 l 693 615 l 693 739 l 475 739 l 475 986 l 336 986 l 336 739 l 119 739 l 119 615 l 336 615 z "},"‡":{"ha":813,"x_min":0,"x_max":0,"o":"m 119 238 l 336 238 l 336 0 l 475 0 l 475 238 l 693 238 l 693 361 l 475 361 l 475 615 l 693 615 l 693 739 l 475 739 l 475 986 l 336 986 l 336 739 l 119 739 l 119 615 l 336 615 l 336 361 l 119 361 z "},"№":{"ha":1610,"x_min":0,"x_max":0,"o":"m 119 0 l 269 0 l 269 786 l 718 0 l 915 0 l 915 986 l 765 986 l 765 182 l 310 986 l 119 986 z m 1249 233 b 1490 476 1397 233 1490 328 b 1249 719 1490 622 1397 719 b 1007 476 1100 719 1007 624 b 1249 233 1007 328 1100 233 z m 1249 331 b 1139 476 1176 331 1139 385 b 1249 622 1139 565 1176 622 b 1358 476 1319 622 1358 568 b 1249 331 1358 383 1319 331 z m 1049 0 l 1450 0 l 1450 115 l 1049 115 z "},"¢":{"ha":782,"x_min":0,"x_max":0,"o":"m 306 -17 l 406 -17 l 417 110 b 739 389 589 110 715 218 l 585 397 b 428 238 571 297 511 244 l 471 744 b 585 606 532 726 574 678 l 739 614 b 482 876 718 760 622 853 l 493 1008 l 393 1008 l 383 881 b 58 496 185 869 58 719 b 318 119 58 297 157 157 z m 211 496 b 372 751 211 640 269 733 l 329 253 b 211 496 253 286 211 372 z "},"¤":{"ha":871,"x_min":0,"x_max":0,"o":"m 140 108 l 268 236 b 435 183 315 203 374 183 b 603 236 497 183 556 203 l 731 108 l 810 186 l 682 314 b 733 482 714 363 733 419 b 681 650 733 544 714 603 l 810 779 l 731 857 l 603 728 b 435 781 554 761 497 781 b 268 729 374 781 317 761 l 140 857 l 61 779 l 190 650 b 138 482 157 603 138 544 b 189 314 138 419 157 363 l 61 186 z m 435 297 b 250 482 333 297 250 379 b 435 667 250 585 333 667 b 621 482 535 667 621 585 b 435 297 621 379 535 297 z "},"$":{"ha":893,"x_min":0,"x_max":0,"o":"m 403 -125 l 508 -125 l 508 -18 b 818 261 694 -4 818 100 b 508 549 818 397 739 490 l 508 846 b 649 668 590 819 638 754 l 799 676 b 508 985 781 835 682 957 l 508 1111 l 403 1111 l 403 990 b 94 710 211 981 94 868 b 403 438 94 561 178 493 l 403 119 b 226 324 300 140 240 211 l 75 314 b 403 -15 89 135 208 7 z m 246 717 b 403 856 246 794 306 849 l 403 575 b 246 717 279 611 246 644 z m 667 253 b 508 115 667 172 608 125 l 508 408 b 667 253 639 365 667 321 z "},"€":{"ha":1028,"x_min":0,"x_max":0,"o":"m 75 326 l 204 326 b 603 -22 256 117 406 -22 b 974 319 797 -22 936 118 l 814 328 b 601 115 790 203 708 115 b 361 326 479 115 397 199 l 622 326 l 638 432 l 343 432 b 340 492 342 451 340 471 b 342 539 340 508 342 524 l 650 539 l 665 644 l 358 644 b 601 871 392 781 474 871 b 810 678 703 871 782 793 l 967 688 b 603 1008 924 876 783 1008 b 201 644 400 1008 249 863 l 75 644 l 75 539 l 186 539 b 185 492 186 524 185 507 b 188 432 185 471 186 451 l 75 432 z "},"₴":{"ha":953,"x_min":0,"x_max":0,"o":"m 75 538 l 878 538 l 878 643 l 794 643 b 818 728 808 663 818 694 b 485 1008 818 900 693 1008 b 138 740 304 1008 182 906 l 297 725 b 492 872 338 819 394 872 b 664 725 604 872 664 810 b 631 643 664 692 653 667 l 75 643 z m 468 -17 b 838 236 654 -17 794 81 l 668 247 b 463 119 635 169 557 119 b 297 254 364 119 297 178 b 319 326 297 283 307 306 l 878 326 l 878 432 l 75 432 l 75 326 l 158 326 b 142 244 149 307 142 279 b 468 -17 142 86 271 -17 z "},"₱":{"ha":978,"x_min":0,"x_max":0,"o":"m 153 0 l 303 0 l 303 304 l 467 304 b 806 515 642 304 761 378 l 936 515 l 936 613 l 824 613 b 825 647 825 624 825 636 b 824 678 825 658 825 668 l 936 678 l 936 775 l 807 775 b 467 986 763 913 643 986 l 153 986 l 153 775 l 42 775 l 42 678 l 153 678 l 153 613 l 42 613 l 42 515 l 153 515 z m 303 854 l 463 854 b 642 775 549 854 608 829 l 303 775 z m 671 647 b 669 613 671 635 671 624 l 303 613 l 303 678 l 669 678 b 671 647 671 668 671 658 z m 303 438 l 303 515 l 640 515 b 463 438 607 461 547 438 z "},"₽":{"ha":1001,"x_min":0,"x_max":0,"o":"m 56 158 l 208 158 l 208 0 l 358 0 l 358 158 l 596 158 l 596 267 l 358 267 l 358 369 l 576 369 b 935 679 801 369 935 486 b 576 986 935 871 801 986 l 208 986 l 208 267 l 56 267 z m 358 506 l 358 849 l 572 849 b 779 679 708 849 779 792 b 572 506 779 565 708 506 z "},"₹":{"ha":958,"x_min":0,"x_max":0,"o":"m 519 0 l 722 0 l 314 372 l 408 372 b 764 621 610 372 739 464 l 878 621 l 878 729 l 764 729 b 689 878 754 789 728 839 l 878 878 l 878 986 l 119 986 l 119 850 l 404 850 b 608 729 521 850 589 810 l 119 729 l 119 621 l 607 621 b 404 503 586 542 518 503 l 119 503 l 119 371 z "},"₪":{"ha":1117,"x_min":0,"x_max":0,"o":"m 368 0 l 789 0 b 997 208 917 0 997 81 l 997 986 l 860 986 l 860 207 b 775 121 860 154 828 121 l 503 121 l 503 765 l 368 765 z m 119 0 l 257 0 l 257 865 l 529 865 b 614 779 582 865 614 832 l 614 221 l 747 221 l 747 778 b 540 986 747 906 668 986 l 119 986 z "},"£":{"ha":865,"x_min":0,"x_max":0,"o":"m 76 0 l 789 1 l 789 142 l 228 142 b 376 438 338 196 375 288 l 596 438 l 596 543 l 361 543 b 321 713 339 613 321 668 b 478 871 321 806 383 871 b 636 744 553 871 615 829 l 806 754 b 474 1008 782 894 682 1008 b 168 732 296 1008 168 890 b 210 543 168 676 185 615 l 75 543 l 75 438 l 233 438 b 239 385 236 419 239 401 b 76 128 239 275 182 186 z "},"¥":{"ha":825,"x_min":0,"x_max":0,"o":"m 129 189 l 338 189 l 338 0 l 488 0 l 488 189 l 775 189 l 775 303 l 488 303 l 488 396 l 489 397 l 775 397 l 775 511 l 556 511 l 835 986 l 663 986 l 413 546 l 164 986 l -8 986 l 269 511 l 129 511 l 129 397 l 338 397 l 338 303 l 129 303 z "},"+":{"ha":781,"x_min":0,"x_max":0,"o":"m 326 71 l 454 71 l 454 342 l 725 342 l 725 469 l 454 469 l 454 740 l 326 740 l 326 469 l 56 469 l 56 342 l 326 342 z "},"−":{"ha":733,"x_min":0,"x_max":0,"o":"m 56 342 l 678 342 l 678 469 l 56 469 z "},"×":{"ha":715,"x_min":0,"x_max":0,"o":"m 56 194 l 146 104 l 357 315 l 569 104 l 660 194 l 449 406 l 660 617 l 569 708 l 357 496 l 146 708 l 56 617 l 267 406 z "},"÷":{"ha":761,"x_min":0,"x_max":0,"o":"m 381 568 b 478 663 440 568 478 608 b 381 757 478 717 440 757 b 283 663 321 757 283 717 b 381 568 283 608 321 568 z m 56 343 l 706 343 l 706 468 l 56 468 z m 381 54 b 478 149 440 54 478 94 b 381 243 478 204 440 243 b 283 149 321 243 283 204 b 381 54 283 94 321 54 z "},"=":{"ha":756,"x_min":0,"x_max":0,"o":"m 56 497 l 700 497 l 700 625 l 56 625 z m 56 200 l 700 200 l 700 328 l 56 328 z "},"≠":{"ha":756,"x_min":0,"x_max":0,"o":"m 56 200 l 256 200 l 210 44 l 329 44 l 375 200 l 700 200 l 700 328 l 413 328 l 463 497 l 700 497 l 700 625 l 500 625 l 546 781 l 426 781 l 381 625 l 56 625 l 56 497 l 343 497 l 293 328 l 56 328 z "},">":{"ha":758,"x_min":0,"x_max":0,"o":"m 69 40 l 703 319 l 703 486 l 69 765 l 69 628 l 582 403 l 69 178 z "},"<":{"ha":758,"x_min":0,"x_max":0,"o":"m 689 40 l 689 178 l 176 403 l 689 628 l 689 765 l 56 486 l 56 319 z "},"≥":{"ha":761,"x_min":0,"x_max":0,"o":"m 69 165 l 703 385 l 703 556 l 69 775 l 69 639 l 586 469 l 69 300 z m 69 0 l 706 0 l 706 118 l 69 118 z "},"≤":{"ha":761,"x_min":0,"x_max":0,"o":"m 692 165 l 692 300 l 176 469 l 692 639 l 692 775 l 58 556 l 58 385 z m 692 0 l 692 118 l 56 118 l 56 0 z "},"±":{"ha":753,"x_min":0,"x_max":0,"o":"m 313 165 l 440 165 l 440 418 l 697 418 l 697 544 l 440 544 l 440 796 l 313 796 l 313 544 l 56 544 l 56 418 l 313 418 z m 56 0 l 697 0 l 697 118 l 56 118 z "},"≈":{"ha":726,"x_min":0,"x_max":0,"o":"m 485 482 b 671 736 597 482 671 583 l 549 736 b 481 600 549 646 525 600 b 388 667 447 600 433 610 b 240 749 342 724 307 749 b 56 494 129 749 56 646 l 178 494 b 247 631 178 583 203 631 b 339 563 275 631 286 626 b 485 482 392 503 422 482 z m 485 176 b 671 431 597 176 671 278 l 549 431 b 481 294 549 340 525 294 b 388 361 447 294 433 304 b 240 443 342 418 307 443 b 56 189 129 443 56 340 l 178 189 b 247 325 178 278 203 325 b 339 257 275 325 286 321 b 485 176 392 197 422 176 z "},"~":{"ha":726,"x_min":0,"x_max":0,"o":"m 485 329 b 671 583 597 329 671 431 l 549 583 b 481 447 549 493 525 447 b 388 514 447 447 433 457 b 240 596 342 571 307 596 b 56 342 129 596 56 493 l 178 342 b 247 478 178 431 203 478 b 339 410 275 478 286 474 b 485 329 392 350 422 329 z "},"¬":{"ha":700,"x_min":0,"x_max":0,"o":"m 529 92 l 644 92 l 644 446 l 56 446 l 56 331 l 529 331 z "},"^":{"ha":608,"x_min":0,"x_max":0,"o":"m 56 532 l 182 532 l 304 821 l 426 532 l 553 532 l 386 935 l 222 935 z "},"∞":{"ha":1156,"x_min":0,"x_max":0,"o":"m 299 128 b 579 292 414 128 513 183 b 858 128 658 168 744 128 b 1100 376 1010 128 1100 238 b 857 625 1100 515 999 625 b 579 461 732 625 654 572 b 299 625 510 568 415 625 b 56 376 161 625 56 524 b 299 128 56 222 161 128 z m 319 247 b 194 376 244 247 194 294 b 319 506 194 447 244 506 b 519 376 394 506 468 458 b 319 247 469 293 394 247 z m 839 247 b 635 374 763 246 689 293 b 839 504 690 460 764 506 b 961 376 914 503 961 447 b 839 247 961 306 914 249 z "},"∫":{"ha":560,"x_min":0,"x_max":0,"o":"m 89 -208 b 304 -18 219 -208 290 -142 l 394 785 b 481 861 400 833 429 861 l 540 861 l 553 986 l 469 986 b 254 796 343 986 268 919 l 165 -7 b 83 -83 158 -67 132 -83 l 18 -83 l 6 -208 z "},"∆":{"ha":903,"x_min":0,"x_max":0,"o":"m 28 0 l 875 0 l 875 129 l 536 986 l 368 986 l 28 129 z m 161 129 l 453 864 l 743 129 z "},"∏":{"ha":861,"x_min":0,"x_max":0,"o":"m 171 -208 l 311 -208 l 311 856 l 556 856 l 556 -208 l 696 -208 l 696 856 l 846 856 l 846 986 l 17 986 l 17 856 l 171 856 z "},"∑":{"ha":744,"x_min":0,"x_max":0,"o":"m 39 0 l 707 0 l 707 138 l 194 138 l 438 493 l 194 849 l 707 849 l 707 986 l 39 986 l 39 849 l 278 493 l 39 138 z "},"√":{"ha":950,"x_min":0,"x_max":0,"o":"m 213 -208 l 400 -208 l 626 861 l 919 861 l 919 986 l 513 986 l 301 -31 l 169 472 l 31 472 z "},"∂":{"ha":750,"x_min":0,"x_max":0,"o":"m 363 -15 b 689 378 553 -15 689 126 b 169 1007 689 710 574 940 l 139 883 b 549 579 381 840 500 750 b 358 649 497 619 432 649 b 58 317 178 649 58 518 b 363 -15 58 115 172 -15 z m 363 99 b 197 317 250 99 197 179 b 374 535 197 453 261 535 b 550 353 485 535 550 468 b 363 99 550 161 475 99 z "},"%":{"ha":1125,"x_min":0,"x_max":0,"o":"m 278 508 b 496 753 406 508 496 592 b 278 997 496 914 406 997 b 58 753 150 997 58 914 b 278 508 58 592 150 508 z m 168 0 l 285 0 l 957 986 l 840 986 z m 278 601 b 172 753 208 601 172 656 b 278 904 172 850 208 904 b 383 753 347 904 383 850 b 278 601 383 656 347 601 z m 847 -11 b 1067 233 975 -11 1067 72 b 847 478 1067 394 975 478 b 628 233 719 478 628 394 b 847 -11 628 72 719 -11 z m 847 82 b 742 233 778 82 742 136 b 847 385 742 331 778 385 b 953 233 917 385 953 331 b 847 82 953 136 917 82 z "},"‰":{"ha":1643,"x_min":0,"x_max":0,"o":"m 278 508 b 496 753 406 508 496 592 b 278 997 496 914 406 997 b 58 753 150 997 58 914 b 278 508 58 592 150 508 z m 168 0 l 285 0 l 957 986 l 840 986 z m 278 601 b 172 753 208 601 172 656 b 278 904 172 850 208 904 b 383 753 347 904 383 850 b 278 601 383 656 347 601 z m 847 -11 b 1067 233 975 -11 1067 72 b 847 478 1067 394 975 478 b 628 233 719 478 628 394 b 847 -11 628 72 719 -11 z m 1367 -11 b 1586 233 1494 -11 1586 72 b 1367 478 1586 394 1494 478 b 1147 233 1239 478 1147 394 b 1367 -11 1147 72 1239 -11 z m 847 82 b 742 233 778 82 742 136 b 847 385 742 331 778 385 b 953 233 917 385 953 331 b 847 82 953 136 917 82 z m 1367 82 b 1261 233 1297 82 1261 136 b 1367 385 1261 331 1297 385 b 1472 233 1436 385 1472 331 b 1367 82 1472 136 1436 82 z "},"∶":{"ha":419,"x_min":0,"x_max":0,"o":"m 119 668 l 300 668 l 300 843 l 119 843 z m 119 139 l 300 139 l 300 314 l 119 314 z "},"↑":{"ha":986,"x_min":0,"x_max":0,"o":"m 421 0 l 565 0 l 565 739 l 925 381 l 925 554 l 493 986 l 61 556 l 61 382 l 421 742 z "},"↗":{"ha":869,"x_min":0,"x_max":0,"o":"m 61 219 l 163 118 l 685 642 l 686 133 l 808 256 l 808 867 l 199 868 l 76 744 l 586 744 z "},"→":{"ha":1108,"x_min":0,"x_max":0,"o":"m 442 61 l 615 61 l 1047 493 l 617 925 l 443 925 l 803 565 l 61 565 l 61 421 l 800 421 z "},"↘":{"ha":872,"x_min":0,"x_max":0,"o":"m 76 242 l 199 119 l 810 119 l 811 729 l 688 851 l 688 342 l 163 867 l 61 765 l 585 243 z "},"↓":{"ha":986,"x_min":0,"x_max":0,"o":"m 421 986 l 421 244 l 61 604 l 61 431 l 493 0 l 925 432 l 925 606 l 565 247 l 565 986 z "},"↙":{"ha":872,"x_min":0,"x_max":0,"o":"m 796 242 l 288 243 l 810 765 l 708 867 l 183 342 l 183 851 l 61 729 l 63 119 l 674 119 z "},"←":{"ha":1108,"x_min":0,"x_max":0,"o":"m 667 61 l 308 421 l 1047 421 l 1047 565 l 306 565 l 665 925 l 492 925 l 61 493 l 493 61 z "},"↖":{"ha":869,"x_min":0,"x_max":0,"o":"m 185 133 l 185 642 l 708 118 l 810 219 l 285 744 l 794 744 l 671 868 l 61 867 l 61 256 z "},"↔":{"ha":1460,"x_min":0,"x_max":0,"o":"m 667 61 l 308 421 l 1153 421 l 793 61 l 967 61 l 1399 493 l 968 925 l 794 925 l 1156 565 l 306 565 l 665 925 l 492 925 l 61 493 l 493 61 z "},"↕":{"ha":986,"x_min":0,"x_max":0,"o":"m 61 429 l 61 256 l 493 -176 l 925 254 l 925 428 l 565 68 l 565 918 l 925 558 l 925 732 l 493 1163 l 61 731 l 61 557 l 421 915 l 421 71 z "},"↝":{"ha":903,"x_min":0,"x_max":0,"o":"m 515 238 b 724 383 592 238 668 292 l 842 315 l 811 653 l 507 511 l 618 446 b 517 357 589 393 553 357 b 443 469 472 357 451 401 b 283 632 429 571 367 632 b 61 422 186 632 82 544 l 186 422 b 278 513 207 481 243 513 b 353 386 326 513 339 471 b 515 238 375 272 457 238 z "},"⇤":{"ha":929,"x_min":0,"x_max":0,"o":"m 61 219 l 174 219 l 174 761 l 61 761 z m 500 258 l 500 429 l 868 429 l 868 551 l 500 551 l 499 722 l 222 490 z "},"⇥":{"ha":929,"x_min":0,"x_max":0,"o":"m 868 219 l 868 761 l 756 761 l 756 219 z m 429 258 l 707 490 l 431 722 l 431 551 l 61 551 l 61 429 l 429 429 z "},"↩":{"ha":913,"x_min":0,"x_max":0,"o":"m 456 163 l 285 335 l 539 335 b 851 632 714 335 851 464 b 539 931 851 800 714 931 l 129 931 l 129 808 l 539 808 b 728 632 644 808 728 731 b 539 457 728 535 644 457 l 282 457 l 454 628 l 292 628 l 61 396 l 294 163 z "},"↪":{"ha":913,"x_min":0,"x_max":0,"o":"m 457 163 l 618 163 l 851 396 l 621 628 l 458 628 l 629 457 l 374 457 b 185 632 268 457 185 535 b 374 808 185 731 268 808 l 782 808 l 782 931 l 372 931 b 61 632 199 931 61 800 b 372 335 61 464 199 335 l 628 335 z "},"↰":{"ha":919,"x_min":0,"x_max":0,"o":"m 347 381 l 346 554 l 731 554 l 731 0 l 858 0 l 858 682 l 346 682 l 346 856 l 61 618 z "},"↱":{"ha":919,"x_min":0,"x_max":0,"o":"m 189 0 l 189 554 l 572 554 l 572 381 l 858 618 l 574 856 l 572 682 l 61 682 l 61 0 z "},"↳":{"ha":919,"x_min":0,"x_max":0,"o":"m 572 606 l 572 432 l 189 432 l 189 986 l 61 986 l 61 304 l 572 304 l 574 131 l 858 368 z "},"↴":{"ha":924,"x_min":0,"x_max":0,"o":"m 631 0 l 863 278 l 692 279 l 692 985 l 61 985 l 61 863 l 569 863 l 569 279 l 399 279 z "},"↵":{"ha":919,"x_min":0,"x_max":0,"o":"m 347 606 l 61 368 l 346 131 l 346 304 l 858 304 l 858 986 l 731 986 l 731 432 l 346 432 z "},"⇧":{"ha":1146,"x_min":0,"x_max":0,"o":"m 325 0 l 824 0 l 824 464 l 1118 464 l 574 1007 l 28 464 l 325 464 z m 447 122 l 447 578 l 307 578 l 574 844 l 840 578 l 700 578 l 700 122 z "},"●":{"ha":1169,"x_min":0,"x_max":0,"o":"m 585 -17 b 1108 494 881 -17 1108 199 b 585 1008 1108 793 881 1008 b 61 494 289 1008 61 793 b 585 -17 61 199 289 -17 z "},"○":{"ha":1169,"x_min":0,"x_max":0,"o":"m 585 -17 b 1108 494 881 -17 1108 199 b 585 1008 1108 793 881 1008 b 61 494 289 1008 61 793 b 585 -17 61 199 289 -17 z m 585 104 b 185 494 358 104 185 268 b 585 888 185 724 358 888 b 985 494 811 888 985 724 b 585 104 985 268 811 104 z "},"◌":{"ha":1169,"x_min":0,"x_max":0,"o":"m 504 915 b 585 922 532 919 557 922 l 585 1029 b 483 1019 550 1029 517 1025 z m 735 901 l 774 1001 b 674 1029 742 1014 708 1022 l 656 924 b 735 901 683 918 710 911 z m 354 853 b 425 892 375 868 399 881 l 385 990 b 294 942 353 976 322 961 z m 874 815 l 946 893 b 865 956 921 917 894 938 l 808 865 b 874 815 832 850 853 833 z m 239 739 b 290 803 254 763 271 782 l 214 878 b 149 799 190 854 168 828 z m 967 685 l 1065 728 b 1014 817 1051 758 1033 789 l 926 753 b 967 685 942 732 957 710 z m 176 590 b 200 668 181 617 189 643 l 100 708 b 71 610 86 678 76 644 z m 1001 526 l 1108 528 b 1097 629 1108 563 1104 597 l 992 607 b 1001 526 999 581 1001 556 z m 72 407 l 178 429 b 168 510 171 456 168 481 l 61 508 b 72 407 61 474 65 439 z m 1069 328 b 1099 426 1083 358 1093 392 l 993 446 b 971 368 989 419 981 393 z m 156 219 l 243 283 b 204 351 228 304 214 326 l 104 308 b 156 219 118 278 136 247 z m 956 158 b 1021 238 979 182 1001 208 l 931 297 b 881 233 915 274 899 254 z m 304 81 l 361 171 b 297 221 338 186 317 203 l 224 143 b 304 81 249 119 275 99 z m 785 46 b 875 94 817 60 847 75 l 815 183 b 744 144 794 168 771 156 z m 496 7 l 514 113 b 435 135 486 118 461 125 l 396 35 b 496 7 428 22 461 14 z m 585 7 b 686 17 619 7 653 11 l 665 121 b 585 114 638 117 613 114 z "},"◊":{"ha":767,"x_min":0,"x_max":0,"o":"m 296 0 l 471 0 l 706 447 l 471 894 l 296 894 l 61 447 z m 207 447 l 383 782 l 560 447 l 383 113 z "},"▲":{"ha":1208,"x_min":0,"x_max":0,"o":"m 36 0 l 1174 0 l 604 986 z "},"▶":{"ha":1208,"x_min":0,"x_max":0,"o":"m 111 -1 l 1097 494 l 111 989 z "},"▼":{"ha":1208,"x_min":0,"x_max":0,"o":"m 36 986 l 604 0 l 1174 986 z "},"◀":{"ha":1208,"x_min":0,"x_max":0,"o":"m 1097 -1 l 1097 989 l 111 494 z "},"△":{"ha":1208,"x_min":0,"x_max":0,"o":"m 36 0 l 1174 0 l 604 986 z m 253 129 l 604 747 l 957 129 z "},"▷":{"ha":1208,"x_min":0,"x_max":0,"o":"m 111 -1 l 1097 494 l 111 989 z m 232 194 l 232 793 l 826 494 z "},"▽":{"ha":1208,"x_min":0,"x_max":0,"o":"m 36 986 l 604 0 l 1174 986 z m 253 857 l 957 857 l 604 239 z "},"◁":{"ha":1208,"x_min":0,"x_max":0,"o":"m 1097 -1 l 1097 989 l 111 494 z m 976 194 l 382 494 l 976 793 z "},"̈":{"ha":0,"x_min":0,"x_max":0,"o":"m 58 844 l 206 844 l 206 992 l 58 992 z m 318 844 l 467 844 l 467 992 l 318 992 z "},"̇":{"ha":0,"x_min":0,"x_max":0,"o":"m 58 846 l 211 846 l 211 993 l 58 993 z "},"̀":{"ha":0,"x_min":0,"x_max":0,"o":"m 183 828 l 300 828 l 213 1014 l 58 1014 z "},"́":{"ha":0,"x_min":0,"x_max":0,"o":"m 58 828 l 175 828 l 300 1014 l 146 1014 z "},"̋":{"ha":0,"x_min":0,"x_max":0,"o":"m 58 828 l 175 828 l 300 1014 l 146 1014 z m 261 828 l 379 828 l 504 1014 l 350 1014 z "},"̂":{"ha":0,"x_min":0,"x_max":0,"o":"m 58 828 l 171 828 l 263 951 l 354 828 l 467 828 l 339 1021 l 186 1021 z "},"̌":{"ha":0,"x_min":0,"x_max":0,"o":"m 58 1021 l 186 828 l 339 828 l 467 1021 l 354 1021 l 263 897 l 171 1021 z "},"̆":{"ha":0,"x_min":0,"x_max":0,"o":"m 260 832 b 461 1019 379 832 456 903 l 367 1019 b 260 928 360 956 321 928 b 151 1019 199 928 160 956 l 58 1019 b 260 832 64 903 142 832 z "},"̊":{"ha":0,"x_min":0,"x_max":0,"o":"m 190 800 b 324 932 265 800 324 857 b 190 1064 324 1007 265 1064 b 58 932 115 1064 58 1007 b 190 800 58 857 115 800 z m 190 875 b 135 932 158 875 135 900 b 190 988 135 964 158 988 b 247 932 222 988 247 964 b 190 875 247 900 222 875 z "},"̃":{"ha":0,"x_min":0,"x_max":0,"o":"m 364 843 b 508 1021 450 843 504 910 l 425 1021 b 369 936 421 954 401 936 b 306 967 349 936 332 944 b 197 1008 272 993 242 1008 b 58 833 115 1008 60 946 l 140 833 b 199 915 144 897 167 915 b 264 882 224 915 236 906 b 364 843 296 856 326 843 z "},"̄":{"ha":0,"x_min":0,"x_max":0,"o":"m 58 860 l 444 860 l 444 978 l 58 978 z "},"̒":{"ha":0,"x_min":0,"x_max":0,"o":"m 58 832 l 211 832 l 211 969 l 161 969 l 236 1100 l 142 1100 l 58 957 z "},"̦":{"ha":0,"x_min":0,"x_max":0,"o":"m 58 -339 l 153 -339 l 236 -196 l 236 -72 l 83 -72 l 83 -208 l 133 -208 z "},"̧":{"ha":0,"x_min":0,"x_max":0,"o":"m 225 -311 b 388 -175 318 -311 388 -260 b 254 -47 388 -104 346 -53 l 299 14 l 200 14 l 149 -67 l 194 -112 b 294 -172 278 -112 294 -137 b 222 -225 294 -206 267 -225 b 136 -169 178 -225 151 -208 l 58 -200 b 225 -311 79 -264 135 -311 z "},"̨":{"ha":0,"x_min":0,"x_max":0,"o":"m 196 -294 b 325 -258 249 -294 303 -279 l 290 -172 b 225 -190 274 -183 250 -190 b 186 -156 203 -190 186 -178 b 229 -62 186 -132 197 -107 l 276 0 l 176 28 l 133 -29 b 58 -190 97 -79 58 -136 b 196 -294 58 -258 111 -294 z "},"̵":{"ha":0,"x_min":0,"x_max":0,"o":"m 161 422 l 600 422 l 600 526 l 161 526 z "},"̶":{"ha":0,"x_min":0,"x_max":0,"o":"m 28 721 l 989 721 l 989 846 l 28 846 z "},"̷":{"ha":0,"x_min":0,"x_max":0,"o":"m 56 406 l 410 572 l 410 679 l 56 513 z "},"̸":{"ha":0,"x_min":0,"x_max":0,"o":"m 56 -22 l 167 -22 l 700 756 l 589 756 z "},"¨":{"ha":524,"x_min":0,"x_max":0,"o":"m 58 844 l 206 844 l 206 992 l 58 992 z m 318 844 l 467 844 l 467 992 l 318 992 z "},"˙":{"ha":269,"x_min":0,"x_max":0,"o":"m 58 846 l 211 846 l 211 993 l 58 993 z "},"`":{"ha":358,"x_min":0,"x_max":0,"o":"m 183 828 l 300 828 l 213 1014 l 58 1014 z "},"´":{"ha":358,"x_min":0,"x_max":0,"o":"m 58 828 l 175 828 l 300 1014 l 146 1014 z "},"˝":{"ha":561,"x_min":0,"x_max":0,"o":"m 58 828 l 175 828 l 300 1014 l 146 1014 z m 261 828 l 379 828 l 504 1014 l 350 1014 z "},"ˆ":{"ha":525,"x_min":0,"x_max":0,"o":"m 58 828 l 171 828 l 263 951 l 354 828 l 467 828 l 339 1021 l 186 1021 z "},"ˇ":{"ha":525,"x_min":0,"x_max":0,"o":"m 58 1021 l 186 828 l 339 828 l 467 1021 l 354 1021 l 263 897 l 171 1021 z "},"˘":{"ha":519,"x_min":0,"x_max":0,"o":"m 260 832 b 461 1019 379 832 456 903 l 367 1019 b 260 928 360 956 321 928 b 151 1019 199 928 160 956 l 58 1019 b 260 832 64 903 142 832 z "},"˚":{"ha":381,"x_min":0,"x_max":0,"o":"m 190 800 b 324 932 265 800 324 857 b 190 1064 324 1007 265 1064 b 58 932 115 1064 58 1007 b 190 800 58 857 115 800 z m 190 875 b 135 932 158 875 135 900 b 190 988 135 964 158 988 b 247 932 222 988 247 964 b 190 875 247 900 222 875 z "},"˜":{"ha":565,"x_min":0,"x_max":0,"o":"m 364 843 b 508 1021 450 843 504 910 l 425 1021 b 369 936 421 954 401 936 b 306 967 349 936 332 944 b 197 1008 272 993 242 1008 b 58 833 115 1008 60 946 l 140 833 b 199 915 144 897 167 915 b 264 882 224 915 236 906 b 364 843 296 856 326 843 z "},"¯":{"ha":503,"x_min":0,"x_max":0,"o":"m 58 860 l 444 860 l 444 978 l 58 978 z "},"¸":{"ha":446,"x_min":0,"x_max":0,"o":"m 225 -311 b 388 -175 318 -311 388 -260 b 254 -47 388 -104 346 -53 l 299 14 l 200 14 l 149 -67 l 194 -112 b 294 -172 278 -112 294 -137 b 222 -225 294 -206 267 -225 b 136 -169 178 -225 151 -208 l 58 -200 b 225 -311 79 -264 135 -311 z "},"˛":{"ha":383,"x_min":0,"x_max":0,"o":"m 196 -294 b 325 -258 249 -294 303 -279 l 290 -172 b 225 -190 274 -183 250 -190 b 186 -156 203 -190 186 -178 b 229 -62 186 -132 197 -107 l 276 0 l 176 28 l 133 -29 b 58 -190 97 -79 58 -136 b 196 -294 58 -258 111 -294 z "},"ʼ":{"ha":303,"x_min":0,"x_max":0,"o":"m 74 636 l 171 636 l 244 986 l 115 986 z "},"ʹ":{"ha":353,"x_min":0,"x_max":0,"o":"m 56 667 l 183 667 l 258 986 l 117 986 z "},"ˈ":{"ha":258,"x_min":0,"x_max":0,"o":"m 81 636 l 179 636 l 197 876 l 197 986 l 61 986 l 61 876 z "}}}
